solid CATIA STL
  facet normal  0.000000e+000  0.000000e+000 -1.000000e+000
    outer loop
      vertex  2.800000e+001  2.000000e+001  4.600000e+001
      vertex  2.800000e+001  2.000000e+000  4.600000e+001
      vertex  2.700000e+001  9.000000e+000  4.600000e+001
    endloop
  endfacet
  facet normal  0.000000e+000  0.000000e+000 -1.000000e+000
    outer loop
      vertex  2.800000e+001  2.000000e+001  4.600000e+001
      vertex  2.700000e+001  9.000000e+000  4.600000e+001
      vertex  2.696593e+001  9.258819e+000  4.600000e+001
    endloop
  endfacet
  facet normal  0.000000e+000  0.000000e+000 -1.000000e+000
    outer loop
      vertex  2.800000e+001  2.000000e+001  4.600000e+001
      vertex  2.696593e+001  9.258819e+000  4.600000e+001
      vertex  2.686603e+001  9.500000e+000  4.600000e+001
    endloop
  endfacet
  facet normal  0.000000e+000  0.000000e+000 -1.000000e+000
    outer loop
      vertex  2.800000e+001  2.000000e+001  4.600000e+001
      vertex  2.686603e+001  9.500000e+000  4.600000e+001
      vertex  2.670711e+001  9.707107e+000  4.600000e+001
    endloop
  endfacet
  facet normal  0.000000e+000  0.000000e+000 -1.000000e+000
    outer loop
      vertex  2.800000e+001  2.000000e+001  4.600000e+001
      vertex  2.670711e+001  9.707107e+000  4.600000e+001
      vertex  2.650000e+001  9.866025e+000  4.600000e+001
    endloop
  endfacet
  facet normal  0.000000e+000  0.000000e+000 -1.000000e+000
    outer loop
      vertex  2.800000e+001  2.000000e+001  4.600000e+001
      vertex  2.650000e+001  9.866025e+000  4.600000e+001
      vertex  2.625882e+001  9.965926e+000  4.600000e+001
    endloop
  endfacet
  facet normal  0.000000e+000  0.000000e+000 -1.000000e+000
    outer loop
      vertex  2.800000e+001  2.000000e+001  4.600000e+001
      vertex  2.625882e+001  9.965926e+000  4.600000e+001
      vertex  2.600000e+001  1.000000e+001  4.600000e+001
    endloop
  endfacet
  facet normal  0.000000e+000  0.000000e+000 -1.000000e+000
    outer loop
      vertex  2.800000e+001  2.000000e+001  4.600000e+001
      vertex  2.600000e+001  1.000000e+001  4.600000e+001
      vertex  2.300000e+001  1.750000e+001  4.600000e+001
    endloop
  endfacet
  facet normal  0.000000e+000  0.000000e+000 -1.000000e+000
    outer loop
      vertex  2.800000e+001  2.000000e+001  4.600000e+001
      vertex  2.300000e+001  1.750000e+001  4.600000e+001
      vertex  1.000000e+000  2.000000e+001  4.600000e+001
    endloop
  endfacet
  facet normal  0.000000e+000  0.000000e+000 -1.000000e+000
    outer loop
      vertex  1.000000e+000  2.000000e+000  4.600000e+001
      vertex  1.000000e+000  2.000000e+001  4.600000e+001
      vertex  2.000000e+000  9.000000e+000  4.600000e+001
    endloop
  endfacet
  facet normal  0.000000e+000  -0.000000e+000 -1.000000e+000
    outer loop
      vertex  1.000000e+000  2.000000e+000  4.600000e+001
      vertex  2.000000e+000  9.000000e+000  4.600000e+001
      vertex  2.034074e+000  8.741181e+000  4.600000e+001
    endloop
  endfacet
  facet normal  0.000000e+000  -0.000000e+000 -1.000000e+000
    outer loop
      vertex  1.000000e+000  2.000000e+000  4.600000e+001
      vertex  2.034074e+000  8.741181e+000  4.600000e+001
      vertex  2.133975e+000  8.500000e+000  4.600000e+001
    endloop
  endfacet
  facet normal  0.000000e+000  -0.000000e+000 -1.000000e+000
    outer loop
      vertex  1.000000e+000  2.000000e+000  4.600000e+001
      vertex  2.133975e+000  8.500000e+000  4.600000e+001
      vertex  2.292893e+000  8.292893e+000  4.600000e+001
    endloop
  endfacet
  facet normal  0.000000e+000  -0.000000e+000 -1.000000e+000
    outer loop
      vertex  1.000000e+000  2.000000e+000  4.600000e+001
      vertex  2.292893e+000  8.292893e+000  4.600000e+001
      vertex  2.500000e+000  8.133975e+000  4.600000e+001
    endloop
  endfacet
  facet normal  0.000000e+000  -0.000000e+000 -1.000000e+000
    outer loop
      vertex  1.000000e+000  2.000000e+000  4.600000e+001
      vertex  2.500000e+000  8.133975e+000  4.600000e+001
      vertex  2.741181e+000  8.034074e+000  4.600000e+001
    endloop
  endfacet
  facet normal  0.000000e+000  -0.000000e+000 -1.000000e+000
    outer loop
      vertex  1.000000e+000  2.000000e+000  4.600000e+001
      vertex  2.741181e+000  8.034074e+000  4.600000e+001
      vertex  3.000000e+000  8.000000e+000  4.600000e+001
    endloop
  endfacet
  facet normal  0.000000e+000  -0.000000e+000 -1.000000e+000
    outer loop
      vertex  1.000000e+000  2.000000e+000  4.600000e+001
      vertex  3.000000e+000  8.000000e+000  4.600000e+001
      vertex  6.000000e+000  4.500000e+000  4.600000e+001
    endloop
  endfacet
  facet normal  0.000000e+000  -0.000000e+000 -1.000000e+000
    outer loop
      vertex  1.000000e+000  2.000000e+000  4.600000e+001
      vertex  6.000000e+000  4.500000e+000  4.600000e+001
      vertex  2.300000e+001  4.500000e+000  4.600000e+001
    endloop
  endfacet
  facet normal  0.000000e+000  -0.000000e+000 -1.000000e+000
    outer loop
      vertex  1.000000e+000  2.000000e+000  4.600000e+001
      vertex  2.300000e+001  4.500000e+000  4.600000e+001
      vertex  2.800000e+001  2.000000e+000  4.600000e+001
    endloop
  endfacet
  facet normal  0.000000e+000  0.000000e+000 -1.000000e+000
    outer loop
      vertex  1.000000e+000  2.000000e+001  4.600000e+001
      vertex  2.300000e+001  1.750000e+001  4.600000e+001
      vertex  6.000000e+000  1.750000e+001  4.600000e+001
    endloop
  endfacet
  facet normal  -0.000000e+000  0.000000e+000 -1.000000e+000
    outer loop
      vertex  1.000000e+000  2.000000e+001  4.600000e+001
      vertex  6.000000e+000  1.750000e+001  4.600000e+001
      vertex  3.000000e+000  1.000000e+001  4.600000e+001
    endloop
  endfacet
  facet normal  -0.000000e+000  0.000000e+000 -1.000000e+000
    outer loop
      vertex  1.000000e+000  2.000000e+001  4.600000e+001
      vertex  3.000000e+000  1.000000e+001  4.600000e+001
      vertex  2.741181e+000  9.965926e+000  4.600000e+001
    endloop
  endfacet
  facet normal  -0.000000e+000  0.000000e+000 -1.000000e+000
    outer loop
      vertex  1.000000e+000  2.000000e+001  4.600000e+001
      vertex  2.741181e+000  9.965926e+000  4.600000e+001
      vertex  2.500000e+000  9.866025e+000  4.600000e+001
    endloop
  endfacet
  facet normal  -0.000000e+000  0.000000e+000 -1.000000e+000
    outer loop
      vertex  1.000000e+000  2.000000e+001  4.600000e+001
      vertex  2.500000e+000  9.866025e+000  4.600000e+001
      vertex  2.292893e+000  9.707107e+000  4.600000e+001
    endloop
  endfacet
  facet normal  -0.000000e+000  0.000000e+000 -1.000000e+000
    outer loop
      vertex  1.000000e+000  2.000000e+001  4.600000e+001
      vertex  2.292893e+000  9.707107e+000  4.600000e+001
      vertex  2.133975e+000  9.500000e+000  4.600000e+001
    endloop
  endfacet
  facet normal  -0.000000e+000  0.000000e+000 -1.000000e+000
    outer loop
      vertex  1.000000e+000  2.000000e+001  4.600000e+001
      vertex  2.133975e+000  9.500000e+000  4.600000e+001
      vertex  2.034074e+000  9.258819e+000  4.600000e+001
    endloop
  endfacet
  facet normal  -0.000000e+000  0.000000e+000 -1.000000e+000
    outer loop
      vertex  1.000000e+000  2.000000e+001  4.600000e+001
      vertex  2.034074e+000  9.258819e+000  4.600000e+001
      vertex  2.000000e+000  9.000000e+000  4.600000e+001
    endloop
  endfacet
  facet normal  0.000000e+000  0.000000e+000 -1.000000e+000
    outer loop
      vertex  6.000000e+000  4.500000e+000  4.600000e+001
      vertex  3.000000e+000  8.000000e+000  4.600000e+001
      vertex  3.258819e+000  8.034074e+000  4.600000e+001
    endloop
  endfacet
  facet normal  0.000000e+000  0.000000e+000 -1.000000e+000
    outer loop
      vertex  6.000000e+000  4.500000e+000  4.600000e+001
      vertex  3.258819e+000  8.034074e+000  4.600000e+001
      vertex  3.500000e+000  8.133975e+000  4.600000e+001
    endloop
  endfacet
  facet normal  0.000000e+000  0.000000e+000 -1.000000e+000
    outer loop
      vertex  6.000000e+000  4.500000e+000  4.600000e+001
      vertex  3.500000e+000  8.133975e+000  4.600000e+001
      vertex  3.707107e+000  8.292893e+000  4.600000e+001
    endloop
  endfacet
  facet normal  0.000000e+000  0.000000e+000 -1.000000e+000
    outer loop
      vertex  6.000000e+000  4.500000e+000  4.600000e+001
      vertex  3.707107e+000  8.292893e+000  4.600000e+001
      vertex  3.866025e+000  8.500000e+000  4.600000e+001
    endloop
  endfacet
  facet normal  0.000000e+000  0.000000e+000 -1.000000e+000
    outer loop
      vertex  6.000000e+000  4.500000e+000  4.600000e+001
      vertex  3.866025e+000  8.500000e+000  4.600000e+001
      vertex  3.965926e+000  8.741181e+000  4.600000e+001
    endloop
  endfacet
  facet normal  0.000000e+000  0.000000e+000 -1.000000e+000
    outer loop
      vertex  6.000000e+000  4.500000e+000  4.600000e+001
      vertex  3.965926e+000  8.741181e+000  4.600000e+001
      vertex  4.000000e+000  9.000000e+000  4.600000e+001
    endloop
  endfacet
  facet normal  0.000000e+000  0.000000e+000 -9.999999e-001
    outer loop
      vertex  6.000000e+000  4.500000e+000  4.600000e+001
      vertex  4.000000e+000  9.000000e+000  4.600000e+001
      vertex  3.965926e+000  9.258819e+000  4.600000e+001
    endloop
  endfacet
  facet normal  0.000000e+000  0.000000e+000 -9.999999e-001
    outer loop
      vertex  6.000000e+000  1.750000e+001  4.600000e+001
      vertex  6.000000e+000  4.500000e+000  4.600000e+001
      vertex  3.965926e+000  9.258819e+000  4.600000e+001
    endloop
  endfacet
  facet normal  0.000000e+000  0.000000e+000 -1.000000e+000
    outer loop
      vertex  6.000000e+000  1.750000e+001  4.600000e+001
      vertex  3.965926e+000  9.258819e+000  4.600000e+001
      vertex  3.866025e+000  9.500000e+000  4.600000e+001
    endloop
  endfacet
  facet normal  0.000000e+000  0.000000e+000 -1.000000e+000
    outer loop
      vertex  6.000000e+000  1.750000e+001  4.600000e+001
      vertex  3.866025e+000  9.500000e+000  4.600000e+001
      vertex  3.707107e+000  9.707107e+000  4.600000e+001
    endloop
  endfacet
  facet normal  0.000000e+000  0.000000e+000 -1.000000e+000
    outer loop
      vertex  6.000000e+000  1.750000e+001  4.600000e+001
      vertex  3.707107e+000  9.707107e+000  4.600000e+001
      vertex  3.500000e+000  9.866025e+000  4.600000e+001
    endloop
  endfacet
  facet normal  0.000000e+000  0.000000e+000 -1.000000e+000
    outer loop
      vertex  6.000000e+000  1.750000e+001  4.600000e+001
      vertex  3.500000e+000  9.866025e+000  4.600000e+001
      vertex  3.258819e+000  9.965926e+000  4.600000e+001
    endloop
  endfacet
  facet normal  0.000000e+000  0.000000e+000 -1.000000e+000
    outer loop
      vertex  6.000000e+000  1.750000e+001  4.600000e+001
      vertex  3.258819e+000  9.965926e+000  4.600000e+001
      vertex  3.000000e+000  1.000000e+001  4.600000e+001
    endloop
  endfacet
  facet normal  0.000000e+000  0.000000e+000 -1.000000e+000
    outer loop
      vertex  2.300000e+001  4.500000e+000  4.600000e+001
      vertex  2.503407e+001  9.258819e+000  4.600000e+001
      vertex  2.500000e+001  9.000000e+000  4.600000e+001
    endloop
  endfacet
  facet normal  0.000000e+000  -0.000000e+000 -1.000000e+000
    outer loop
      vertex  2.300000e+001  4.500000e+000  4.600000e+001
      vertex  2.500000e+001  9.000000e+000  4.600000e+001
      vertex  2.503407e+001  8.741181e+000  4.600000e+001
    endloop
  endfacet
  facet normal  0.000000e+000  -0.000000e+000 -1.000000e+000
    outer loop
      vertex  2.300000e+001  4.500000e+000  4.600000e+001
      vertex  2.503407e+001  8.741181e+000  4.600000e+001
      vertex  2.513397e+001  8.500000e+000  4.600000e+001
    endloop
  endfacet
  facet normal  0.000000e+000  -0.000000e+000 -1.000000e+000
    outer loop
      vertex  2.300000e+001  4.500000e+000  4.600000e+001
      vertex  2.513397e+001  8.500000e+000  4.600000e+001
      vertex  2.529289e+001  8.292893e+000  4.600000e+001
    endloop
  endfacet
  facet normal  0.000000e+000  -0.000000e+000 -1.000000e+000
    outer loop
      vertex  2.300000e+001  4.500000e+000  4.600000e+001
      vertex  2.529289e+001  8.292893e+000  4.600000e+001
      vertex  2.550000e+001  8.133975e+000  4.600000e+001
    endloop
  endfacet
  facet normal  0.000000e+000  -0.000000e+000 -1.000000e+000
    outer loop
      vertex  2.300000e+001  4.500000e+000  4.600000e+001
      vertex  2.550000e+001  8.133975e+000  4.600000e+001
      vertex  2.574118e+001  8.034074e+000  4.600000e+001
    endloop
  endfacet
  facet normal  0.000000e+000  -0.000000e+000 -1.000000e+000
    outer loop
      vertex  2.300000e+001  4.500000e+000  4.600000e+001
      vertex  2.574118e+001  8.034074e+000  4.600000e+001
      vertex  2.600000e+001  8.000000e+000  4.600000e+001
    endloop
  endfacet
  facet normal  0.000000e+000  -0.000000e+000 -1.000000e+000
    outer loop
      vertex  2.300000e+001  4.500000e+000  4.600000e+001
      vertex  2.600000e+001  8.000000e+000  4.600000e+001
      vertex  2.800000e+001  2.000000e+000  4.600000e+001
    endloop
  endfacet
  facet normal  -0.000000e+000  0.000000e+000 -1.000000e+000
    outer loop
      vertex  2.300000e+001  1.750000e+001  4.600000e+001
      vertex  2.600000e+001  1.000000e+001  4.600000e+001
      vertex  2.574118e+001  9.965926e+000  4.600000e+001
    endloop
  endfacet
  facet normal  -0.000000e+000  0.000000e+000 -1.000000e+000
    outer loop
      vertex  2.300000e+001  1.750000e+001  4.600000e+001
      vertex  2.574118e+001  9.965926e+000  4.600000e+001
      vertex  2.550000e+001  9.866025e+000  4.600000e+001
    endloop
  endfacet
  facet normal  -0.000000e+000  0.000000e+000 -9.999999e-001
    outer loop
      vertex  2.300000e+001  1.750000e+001  4.600000e+001
      vertex  2.550000e+001  9.866025e+000  4.600000e+001
      vertex  2.529289e+001  9.707107e+000  4.600000e+001
    endloop
  endfacet
  facet normal  -0.000000e+000  0.000000e+000 -1.000000e+000
    outer loop
      vertex  2.300000e+001  1.750000e+001  4.600000e+001
      vertex  2.529289e+001  9.707107e+000  4.600000e+001
      vertex  2.513397e+001  9.500000e+000  4.600000e+001
    endloop
  endfacet
  facet normal  -0.000000e+000  0.000000e+000 -1.000000e+000
    outer loop
      vertex  2.300000e+001  1.750000e+001  4.600000e+001
      vertex  2.513397e+001  9.500000e+000  4.600000e+001
      vertex  2.503407e+001  9.258819e+000  4.600000e+001
    endloop
  endfacet
  facet normal  -0.000000e+000  0.000000e+000 -1.000000e+000
    outer loop
      vertex  2.300000e+001  1.750000e+001  4.600000e+001
      vertex  2.503407e+001  9.258819e+000  4.600000e+001
      vertex  2.300000e+001  4.500000e+000  4.600000e+001
    endloop
  endfacet
  facet normal  0.000000e+000  0.000000e+000 -9.999999e-001
    outer loop
      vertex  2.800000e+001  2.000000e+000  4.600000e+001
      vertex  2.600000e+001  8.000000e+000  4.600000e+001
      vertex  2.625882e+001  8.034074e+000  4.600000e+001
    endloop
  endfacet
  facet normal  0.000000e+000  0.000000e+000 -1.000000e+000
    outer loop
      vertex  2.800000e+001  2.000000e+000  4.600000e+001
      vertex  2.625882e+001  8.034074e+000  4.600000e+001
      vertex  2.650000e+001  8.133975e+000  4.600000e+001
    endloop
  endfacet
  facet normal  0.000000e+000  0.000000e+000 -1.000000e+000
    outer loop
      vertex  2.800000e+001  2.000000e+000  4.600000e+001
      vertex  2.650000e+001  8.133975e+000  4.600000e+001
      vertex  2.670711e+001  8.292893e+000  4.600000e+001
    endloop
  endfacet
  facet normal  0.000000e+000  0.000000e+000 -1.000000e+000
    outer loop
      vertex  2.800000e+001  2.000000e+000  4.600000e+001
      vertex  2.670711e+001  8.292893e+000  4.600000e+001
      vertex  2.686603e+001  8.500000e+000  4.600000e+001
    endloop
  endfacet
  facet normal  0.000000e+000  0.000000e+000 -1.000000e+000
    outer loop
      vertex  2.800000e+001  2.000000e+000  4.600000e+001
      vertex  2.686603e+001  8.500000e+000  4.600000e+001
      vertex  2.696593e+001  8.741181e+000  4.600000e+001
    endloop
  endfacet
  facet normal  0.000000e+000  0.000000e+000 -9.999999e-001
    outer loop
      vertex  2.800000e+001  2.000000e+000  4.600000e+001
      vertex  2.696593e+001  8.741181e+000  4.600000e+001
      vertex  2.700000e+001  9.000000e+000  4.600000e+001
    endloop
  endfacet
  facet normal  -0.000000e+000  0.000000e+000  1.000000e+000
    outer loop
      vertex  2.900000e+001  2.200000e+001  4.900000e+001
      vertex  2.486900e-014  2.200000e+001  4.900000e+001
      vertex  2.300000e+001  1.750000e+001  4.900000e+001
    endloop
  endfacet
  facet normal  -0.000000e+000  0.000000e+000  1.000000e+000
    outer loop
      vertex  2.900000e+001  2.200000e+001  4.900000e+001
      vertex  2.300000e+001  1.750000e+001  4.900000e+001
      vertex  2.600000e+001  1.000000e+001  4.900000e+001
    endloop
  endfacet
  facet normal  -0.000000e+000  0.000000e+000  1.000000e+000
    outer loop
      vertex  2.900000e+001  2.200000e+001  4.900000e+001
      vertex  2.600000e+001  1.000000e+001  4.900000e+001
      vertex  2.625882e+001  9.965926e+000  4.900000e+001
    endloop
  endfacet
  facet normal  -0.000000e+000  0.000000e+000  1.000000e+000
    outer loop
      vertex  2.900000e+001  2.200000e+001  4.900000e+001
      vertex  2.625882e+001  9.965926e+000  4.900000e+001
      vertex  2.650000e+001  9.866025e+000  4.900000e+001
    endloop
  endfacet
  facet normal  -0.000000e+000  0.000000e+000  1.000000e+000
    outer loop
      vertex  2.900000e+001  2.200000e+001  4.900000e+001
      vertex  2.650000e+001  9.866025e+000  4.900000e+001
      vertex  2.670711e+001  9.707107e+000  4.900000e+001
    endloop
  endfacet
  facet normal  -0.000000e+000  0.000000e+000  1.000000e+000
    outer loop
      vertex  2.900000e+001  2.200000e+001  4.900000e+001
      vertex  2.670711e+001  9.707107e+000  4.900000e+001
      vertex  2.686603e+001  9.500000e+000  4.900000e+001
    endloop
  endfacet
  facet normal  -0.000000e+000  0.000000e+000  1.000000e+000
    outer loop
      vertex  2.900000e+001  2.200000e+001  4.900000e+001
      vertex  2.686603e+001  9.500000e+000  4.900000e+001
      vertex  2.696593e+001  9.258819e+000  4.900000e+001
    endloop
  endfacet
  facet normal  -0.000000e+000  0.000000e+000  9.999999e-001
    outer loop
      vertex  2.900000e+001  2.200000e+001  4.900000e+001
      vertex  2.696593e+001  9.258819e+000  4.900000e+001
      vertex  2.900000e+001  0.000000e+000  4.900000e+001
    endloop
  endfacet
  facet normal  0.000000e+000  0.000000e+000  1.000000e+000
    outer loop
      vertex  2.900000e+001  0.000000e+000  4.900000e+001
      vertex  2.696593e+001  9.258819e+000  4.900000e+001
      vertex  2.700000e+001  9.000000e+000  4.900000e+001
    endloop
  endfacet
  facet normal  0.000000e+000  0.000000e+000  1.000000e+000
    outer loop
      vertex  2.900000e+001  0.000000e+000  4.900000e+001
      vertex  2.700000e+001  9.000000e+000  4.900000e+001
      vertex  2.696593e+001  8.741181e+000  4.900000e+001
    endloop
  endfacet
  facet normal  0.000000e+000  0.000000e+000  1.000000e+000
    outer loop
      vertex  2.900000e+001  0.000000e+000  4.900000e+001
      vertex  2.696593e+001  8.741181e+000  4.900000e+001
      vertex  2.686603e+001  8.500000e+000  4.900000e+001
    endloop
  endfacet
  facet normal  0.000000e+000  0.000000e+000  1.000000e+000
    outer loop
      vertex  2.900000e+001  0.000000e+000  4.900000e+001
      vertex  2.686603e+001  8.500000e+000  4.900000e+001
      vertex  2.670711e+001  8.292893e+000  4.900000e+001
    endloop
  endfacet
  facet normal  0.000000e+000  0.000000e+000  1.000000e+000
    outer loop
      vertex  2.900000e+001  0.000000e+000  4.900000e+001
      vertex  2.670711e+001  8.292893e+000  4.900000e+001
      vertex  2.650000e+001  8.133975e+000  4.900000e+001
    endloop
  endfacet
  facet normal  0.000000e+000  0.000000e+000  1.000000e+000
    outer loop
      vertex  2.900000e+001  0.000000e+000  4.900000e+001
      vertex  2.650000e+001  8.133975e+000  4.900000e+001
      vertex  2.625882e+001  8.034074e+000  4.900000e+001
    endloop
  endfacet
  facet normal  0.000000e+000  0.000000e+000  1.000000e+000
    outer loop
      vertex  2.900000e+001  0.000000e+000  4.900000e+001
      vertex  2.625882e+001  8.034074e+000  4.900000e+001
      vertex  2.600000e+001  8.000000e+000  4.900000e+001
    endloop
  endfacet
  facet normal  0.000000e+000  0.000000e+000  1.000000e+000
    outer loop
      vertex  2.900000e+001  0.000000e+000  4.900000e+001
      vertex  2.600000e+001  8.000000e+000  4.900000e+001
      vertex  2.300000e+001  4.500000e+000  4.900000e+001
    endloop
  endfacet
  facet normal  0.000000e+000  0.000000e+000  1.000000e+000
    outer loop
      vertex  2.900000e+001  0.000000e+000  4.900000e+001
      vertex  2.300000e+001  4.500000e+000  4.900000e+001
      vertex  0.000000e+000  0.000000e+000  4.900000e+001
    endloop
  endfacet
  facet normal  0.000000e+000  0.000000e+000  1.000000e+000
    outer loop
      vertex  0.000000e+000  0.000000e+000  4.900000e+001
      vertex  2.300000e+001  4.500000e+000  4.900000e+001
      vertex  6.000000e+000  4.500000e+000  4.900000e+001
    endloop
  endfacet
  facet normal  0.000000e+000  0.000000e+000  1.000000e+000
    outer loop
      vertex  0.000000e+000  0.000000e+000  4.900000e+001
      vertex  6.000000e+000  4.500000e+000  4.900000e+001
      vertex  3.000000e+000  8.000000e+000  4.900000e+001
    endloop
  endfacet
  facet normal  0.000000e+000  0.000000e+000  1.000000e+000
    outer loop
      vertex  0.000000e+000  0.000000e+000  4.900000e+001
      vertex  3.000000e+000  8.000000e+000  4.900000e+001
      vertex  2.741181e+000  8.034074e+000  4.900000e+001
    endloop
  endfacet
  facet normal  0.000000e+000  0.000000e+000  1.000000e+000
    outer loop
      vertex  0.000000e+000  0.000000e+000  4.900000e+001
      vertex  2.741181e+000  8.034074e+000  4.900000e+001
      vertex  2.500000e+000  8.133975e+000  4.900000e+001
    endloop
  endfacet
  facet normal  0.000000e+000  0.000000e+000  1.000000e+000
    outer loop
      vertex  0.000000e+000  0.000000e+000  4.900000e+001
      vertex  2.500000e+000  8.133975e+000  4.900000e+001
      vertex  2.292893e+000  8.292893e+000  4.900000e+001
    endloop
  endfacet
  facet normal  0.000000e+000  0.000000e+000  1.000000e+000
    outer loop
      vertex  0.000000e+000  0.000000e+000  4.900000e+001
      vertex  2.292893e+000  8.292893e+000  4.900000e+001
      vertex  2.133975e+000  8.500000e+000  4.900000e+001
    endloop
  endfacet
  facet normal  0.000000e+000  0.000000e+000  1.000000e+000
    outer loop
      vertex  0.000000e+000  0.000000e+000  4.900000e+001
      vertex  2.133975e+000  8.500000e+000  4.900000e+001
      vertex  2.034074e+000  8.741181e+000  4.900000e+001
    endloop
  endfacet
  facet normal  0.000000e+000  0.000000e+000  1.000000e+000
    outer loop
      vertex  0.000000e+000  0.000000e+000  4.900000e+001
      vertex  2.034074e+000  8.741181e+000  4.900000e+001
      vertex  2.000000e+000  9.000000e+000  4.900000e+001
    endloop
  endfacet
  facet normal  0.000000e+000  -0.000000e+000  1.000000e+000
    outer loop
      vertex  0.000000e+000  0.000000e+000  4.900000e+001
      vertex  2.000000e+000  9.000000e+000  4.900000e+001
      vertex  2.034074e+000  9.258819e+000  4.900000e+001
    endloop
  endfacet
  facet normal  0.000000e+000  0.000000e+000  1.000000e+000
    outer loop
      vertex  0.000000e+000  0.000000e+000  4.900000e+001
      vertex  2.034074e+000  9.258819e+000  4.900000e+001
      vertex  2.486900e-014  2.200000e+001  4.900000e+001
    endloop
  endfacet
  facet normal  0.000000e+000  -0.000000e+000  1.000000e+000
    outer loop
      vertex  2.486900e-014  2.200000e+001  4.900000e+001
      vertex  2.034074e+000  9.258819e+000  4.900000e+001
      vertex  2.133975e+000  9.500000e+000  4.900000e+001
    endloop
  endfacet
  facet normal  0.000000e+000  -0.000000e+000  1.000000e+000
    outer loop
      vertex  2.486900e-014  2.200000e+001  4.900000e+001
      vertex  2.133975e+000  9.500000e+000  4.900000e+001
      vertex  2.292893e+000  9.707107e+000  4.900000e+001
    endloop
  endfacet
  facet normal  0.000000e+000  -0.000000e+000  1.000000e+000
    outer loop
      vertex  2.486900e-014  2.200000e+001  4.900000e+001
      vertex  2.292893e+000  9.707107e+000  4.900000e+001
      vertex  2.500000e+000  9.866025e+000  4.900000e+001
    endloop
  endfacet
  facet normal  0.000000e+000  -0.000000e+000  1.000000e+000
    outer loop
      vertex  2.486900e-014  2.200000e+001  4.900000e+001
      vertex  2.500000e+000  9.866025e+000  4.900000e+001
      vertex  2.741181e+000  9.965926e+000  4.900000e+001
    endloop
  endfacet
  facet normal  0.000000e+000  -0.000000e+000  1.000000e+000
    outer loop
      vertex  2.486900e-014  2.200000e+001  4.900000e+001
      vertex  2.741181e+000  9.965926e+000  4.900000e+001
      vertex  3.000000e+000  1.000000e+001  4.900000e+001
    endloop
  endfacet
  facet normal  0.000000e+000  -0.000000e+000  1.000000e+000
    outer loop
      vertex  2.486900e-014  2.200000e+001  4.900000e+001
      vertex  3.000000e+000  1.000000e+001  4.900000e+001
      vertex  6.000000e+000  1.750000e+001  4.900000e+001
    endloop
  endfacet
  facet normal  0.000000e+000  -0.000000e+000  1.000000e+000
    outer loop
      vertex  2.486900e-014  2.200000e+001  4.900000e+001
      vertex  6.000000e+000  1.750000e+001  4.900000e+001
      vertex  2.300000e+001  1.750000e+001  4.900000e+001
    endloop
  endfacet
  facet normal  0.000000e+000  0.000000e+000  9.999999e-001
    outer loop
      vertex  6.000000e+000  4.500000e+000  4.900000e+001
      vertex  3.965926e+000  9.258819e+000  4.900000e+001
      vertex  4.000000e+000  9.000000e+000  4.900000e+001
    endloop
  endfacet
  facet normal  0.000000e+000  0.000000e+000  1.000000e+000
    outer loop
      vertex  6.000000e+000  4.500000e+000  4.900000e+001
      vertex  4.000000e+000  9.000000e+000  4.900000e+001
      vertex  3.965926e+000  8.741181e+000  4.900000e+001
    endloop
  endfacet
  facet normal  0.000000e+000  0.000000e+000  1.000000e+000
    outer loop
      vertex  6.000000e+000  4.500000e+000  4.900000e+001
      vertex  3.965926e+000  8.741181e+000  4.900000e+001
      vertex  3.866025e+000  8.500000e+000  4.900000e+001
    endloop
  endfacet
  facet normal  0.000000e+000  0.000000e+000  1.000000e+000
    outer loop
      vertex  6.000000e+000  4.500000e+000  4.900000e+001
      vertex  3.866025e+000  8.500000e+000  4.900000e+001
      vertex  3.707107e+000  8.292893e+000  4.900000e+001
    endloop
  endfacet
  facet normal  0.000000e+000  0.000000e+000  1.000000e+000
    outer loop
      vertex  6.000000e+000  4.500000e+000  4.900000e+001
      vertex  3.707107e+000  8.292893e+000  4.900000e+001
      vertex  3.500000e+000  8.133975e+000  4.900000e+001
    endloop
  endfacet
  facet normal  0.000000e+000  0.000000e+000  1.000000e+000
    outer loop
      vertex  6.000000e+000  4.500000e+000  4.900000e+001
      vertex  3.500000e+000  8.133975e+000  4.900000e+001
      vertex  3.258819e+000  8.034074e+000  4.900000e+001
    endloop
  endfacet
  facet normal  0.000000e+000  0.000000e+000  1.000000e+000
    outer loop
      vertex  6.000000e+000  4.500000e+000  4.900000e+001
      vertex  3.258819e+000  8.034074e+000  4.900000e+001
      vertex  3.000000e+000  8.000000e+000  4.900000e+001
    endloop
  endfacet
  facet normal  -0.000000e+000  0.000000e+000  1.000000e+000
    outer loop
      vertex  6.000000e+000  1.750000e+001  4.900000e+001
      vertex  3.000000e+000  1.000000e+001  4.900000e+001
      vertex  3.258819e+000  9.965926e+000  4.900000e+001
    endloop
  endfacet
  facet normal  -0.000000e+000  0.000000e+000  1.000000e+000
    outer loop
      vertex  6.000000e+000  1.750000e+001  4.900000e+001
      vertex  3.258819e+000  9.965926e+000  4.900000e+001
      vertex  3.500000e+000  9.866025e+000  4.900000e+001
    endloop
  endfacet
  facet normal  -0.000000e+000  0.000000e+000  1.000000e+000
    outer loop
      vertex  6.000000e+000  1.750000e+001  4.900000e+001
      vertex  3.500000e+000  9.866025e+000  4.900000e+001
      vertex  3.707107e+000  9.707107e+000  4.900000e+001
    endloop
  endfacet
  facet normal  -0.000000e+000  0.000000e+000  1.000000e+000
    outer loop
      vertex  6.000000e+000  1.750000e+001  4.900000e+001
      vertex  3.707107e+000  9.707107e+000  4.900000e+001
      vertex  3.866025e+000  9.500000e+000  4.900000e+001
    endloop
  endfacet
  facet normal  -0.000000e+000  0.000000e+000  1.000000e+000
    outer loop
      vertex  6.000000e+000  1.750000e+001  4.900000e+001
      vertex  3.866025e+000  9.500000e+000  4.900000e+001
      vertex  3.965926e+000  9.258819e+000  4.900000e+001
    endloop
  endfacet
  facet normal  -0.000000e+000  0.000000e+000  9.999999e-001
    outer loop
      vertex  6.000000e+000  1.750000e+001  4.900000e+001
      vertex  3.965926e+000  9.258819e+000  4.900000e+001
      vertex  6.000000e+000  4.500000e+000  4.900000e+001
    endloop
  endfacet
  facet normal  0.000000e+000  0.000000e+000  1.000000e+000
    outer loop
      vertex  2.300000e+001  4.500000e+000  4.900000e+001
      vertex  2.600000e+001  8.000000e+000  4.900000e+001
      vertex  2.574118e+001  8.034074e+000  4.900000e+001
    endloop
  endfacet
  facet normal  0.000000e+000  0.000000e+000  1.000000e+000
    outer loop
      vertex  2.300000e+001  4.500000e+000  4.900000e+001
      vertex  2.574118e+001  8.034074e+000  4.900000e+001
      vertex  2.550000e+001  8.133975e+000  4.900000e+001
    endloop
  endfacet
  facet normal  0.000000e+000  0.000000e+000  1.000000e+000
    outer loop
      vertex  2.300000e+001  4.500000e+000  4.900000e+001
      vertex  2.550000e+001  8.133975e+000  4.900000e+001
      vertex  2.529289e+001  8.292893e+000  4.900000e+001
    endloop
  endfacet
  facet normal  0.000000e+000  0.000000e+000  1.000000e+000
    outer loop
      vertex  2.300000e+001  4.500000e+000  4.900000e+001
      vertex  2.529289e+001  8.292893e+000  4.900000e+001
      vertex  2.513397e+001  8.500000e+000  4.900000e+001
    endloop
  endfacet
  facet normal  0.000000e+000  0.000000e+000  1.000000e+000
    outer loop
      vertex  2.300000e+001  4.500000e+000  4.900000e+001
      vertex  2.513397e+001  8.500000e+000  4.900000e+001
      vertex  2.503407e+001  8.741181e+000  4.900000e+001
    endloop
  endfacet
  facet normal  0.000000e+000  0.000000e+000  1.000000e+000
    outer loop
      vertex  2.300000e+001  4.500000e+000  4.900000e+001
      vertex  2.503407e+001  8.741181e+000  4.900000e+001
      vertex  2.500000e+001  9.000000e+000  4.900000e+001
    endloop
  endfacet
  facet normal  0.000000e+000  -0.000000e+000  1.000000e+000
    outer loop
      vertex  2.300000e+001  4.500000e+000  4.900000e+001
      vertex  2.500000e+001  9.000000e+000  4.900000e+001
      vertex  2.503407e+001  9.258819e+000  4.900000e+001
    endloop
  endfacet
  facet normal  0.000000e+000  0.000000e+000  1.000000e+000
    outer loop
      vertex  2.300000e+001  1.750000e+001  4.900000e+001
      vertex  2.300000e+001  4.500000e+000  4.900000e+001
      vertex  2.503407e+001  9.258819e+000  4.900000e+001
    endloop
  endfacet
  facet normal  0.000000e+000  -0.000000e+000  1.000000e+000
    outer loop
      vertex  2.300000e+001  1.750000e+001  4.900000e+001
      vertex  2.503407e+001  9.258819e+000  4.900000e+001
      vertex  2.513397e+001  9.500000e+000  4.900000e+001
    endloop
  endfacet
  facet normal  0.000000e+000  -0.000000e+000  1.000000e+000
    outer loop
      vertex  2.300000e+001  1.750000e+001  4.900000e+001
      vertex  2.513397e+001  9.500000e+000  4.900000e+001
      vertex  2.529289e+001  9.707107e+000  4.900000e+001
    endloop
  endfacet
  facet normal  0.000000e+000  -0.000000e+000  9.999999e-001
    outer loop
      vertex  2.300000e+001  1.750000e+001  4.900000e+001
      vertex  2.529289e+001  9.707107e+000  4.900000e+001
      vertex  2.550000e+001  9.866025e+000  4.900000e+001
    endloop
  endfacet
  facet normal  0.000000e+000  -0.000000e+000  1.000000e+000
    outer loop
      vertex  2.300000e+001  1.750000e+001  4.900000e+001
      vertex  2.550000e+001  9.866025e+000  4.900000e+001
      vertex  2.574118e+001  9.965926e+000  4.900000e+001
    endloop
  endfacet
  facet normal  0.000000e+000  -0.000000e+000  1.000000e+000
    outer loop
      vertex  2.300000e+001  1.750000e+001  4.900000e+001
      vertex  2.574118e+001  9.965926e+000  4.900000e+001
      vertex  2.600000e+001  1.000000e+001  4.900000e+001
    endloop
  endfacet
  facet normal  0.000000e+000 -1.000000e+000  0.000000e+000
    outer loop
      vertex  6.000000e+000  1.750000e+001  4.600000e+001
      vertex  2.300000e+001  1.750000e+001  4.600000e+001
      vertex  6.000000e+000  1.750000e+001  4.900000e+001
    endloop
  endfacet
  facet normal  0.000000e+000 -1.000000e+000  0.000000e+000
    outer loop
      vertex  6.000000e+000  1.750000e+001  4.900000e+001
      vertex  2.300000e+001  1.750000e+001  4.600000e+001
      vertex  2.300000e+001  1.750000e+001  4.900000e+001
    endloop
  endfacet
  facet normal  1.000000e+000  0.000000e+000  0.000000e+000
    outer loop
      vertex  6.000000e+000  4.500000e+000  4.600000e+001
      vertex  6.000000e+000  1.750000e+001  4.600000e+001
      vertex  6.000000e+000  4.500000e+000  4.900000e+001
    endloop
  endfacet
  facet normal  1.000000e+000  -0.000000e+000  0.000000e+000
    outer loop
      vertex  6.000000e+000  4.500000e+000  4.900000e+001
      vertex  6.000000e+000  1.750000e+001  4.600000e+001
      vertex  6.000000e+000  1.750000e+001  4.900000e+001
    endloop
  endfacet
  facet normal  0.000000e+000  1.000000e+000  0.000000e+000
    outer loop
      vertex  2.300000e+001  4.500000e+000  4.600000e+001
      vertex  6.000000e+000  4.500000e+000  4.600000e+001
      vertex  2.300000e+001  4.500000e+000  4.900000e+001
    endloop
  endfacet
  facet normal  0.000000e+000  1.000000e+000  0.000000e+000
    outer loop
      vertex  2.300000e+001  4.500000e+000  4.900000e+001
      vertex  6.000000e+000  4.500000e+000  4.600000e+001
      vertex  6.000000e+000  4.500000e+000  4.900000e+001
    endloop
  endfacet
  facet normal -1.000000e+000  0.000000e+000  0.000000e+000
    outer loop
      vertex  2.300000e+001  1.750000e+001  4.600000e+001
      vertex  2.300000e+001  4.500000e+000  4.600000e+001
      vertex  2.300000e+001  1.750000e+001  4.900000e+001
    endloop
  endfacet
  facet normal -1.000000e+000  -0.000000e+000  0.000000e+000
    outer loop
      vertex  2.300000e+001  1.750000e+001  4.900000e+001
      vertex  2.300000e+001  4.500000e+000  4.600000e+001
      vertex  2.300000e+001  4.500000e+000  4.900000e+001
    endloop
  endfacet
  facet normal  1.305246e-001 -9.914451e-001  0.000000e+000
    outer loop
      vertex  2.600000e+001  1.000000e+001  4.600000e+001
      vertex  2.574118e+001  9.965926e+000  4.900000e+001
      vertex  2.574118e+001  9.965926e+000  4.600000e+001
    endloop
  endfacet
  facet normal  3.826867e-001 -9.238781e-001  0.000000e+000
    outer loop
      vertex  2.574118e+001  9.965926e+000  4.600000e+001
      vertex  2.574118e+001  9.965926e+000  4.900000e+001
      vertex  2.550000e+001  9.866025e+000  4.900000e+001
    endloop
  endfacet
  facet normal  3.826867e-001 -9.238781e-001  0.000000e+000
    outer loop
      vertex  2.574118e+001  9.965926e+000  4.600000e+001
      vertex  2.550000e+001  9.866025e+000  4.900000e+001
      vertex  2.550000e+001  9.866025e+000  4.600000e+001
    endloop
  endfacet
  facet normal  6.087594e-001 -7.933548e-001  0.000000e+000
    outer loop
      vertex  2.550000e+001  9.866025e+000  4.600000e+001
      vertex  2.550000e+001  9.866025e+000  4.900000e+001
      vertex  2.529289e+001  9.707107e+000  4.900000e+001
    endloop
  endfacet
  facet normal  6.087594e-001 -7.933548e-001  0.000000e+000
    outer loop
      vertex  2.550000e+001  9.866025e+000  4.600000e+001
      vertex  2.529289e+001  9.707107e+000  4.900000e+001
      vertex  2.529289e+001  9.707107e+000  4.600000e+001
    endloop
  endfacet
  facet normal  7.933536e-001 -6.087612e-001  0.000000e+000
    outer loop
      vertex  2.529289e+001  9.707107e+000  4.600000e+001
      vertex  2.529289e+001  9.707107e+000  4.900000e+001
      vertex  2.513397e+001  9.500000e+000  4.900000e+001
    endloop
  endfacet
  facet normal  7.933536e-001 -6.087612e-001  0.000000e+000
    outer loop
      vertex  2.529289e+001  9.707107e+000  4.600000e+001
      vertex  2.513397e+001  9.500000e+000  4.900000e+001
      vertex  2.513397e+001  9.500000e+000  4.600000e+001
    endloop
  endfacet
  facet normal  9.238814e-001 -3.826792e-001  0.000000e+000
    outer loop
      vertex  2.513397e+001  9.500000e+000  4.600000e+001
      vertex  2.513397e+001  9.500000e+000  4.900000e+001
      vertex  2.503407e+001  9.258819e+000  4.900000e+001
    endloop
  endfacet
  facet normal  9.238814e-001 -3.826792e-001  0.000000e+000
    outer loop
      vertex  2.513397e+001  9.500000e+000  4.600000e+001
      vertex  2.503407e+001  9.258819e+000  4.900000e+001
      vertex  2.503407e+001  9.258819e+000  4.600000e+001
    endloop
  endfacet
  facet normal  9.914445e-001 -1.305287e-001  0.000000e+000
    outer loop
      vertex  2.503407e+001  9.258819e+000  4.600000e+001
      vertex  2.503407e+001  9.258819e+000  4.900000e+001
      vertex  2.500000e+001  9.000000e+000  4.900000e+001
    endloop
  endfacet
  facet normal  9.914445e-001 -1.305287e-001  0.000000e+000
    outer loop
      vertex  2.503407e+001  9.258819e+000  4.600000e+001
      vertex  2.500000e+001  9.000000e+000  4.900000e+001
      vertex  2.500000e+001  9.000000e+000  4.600000e+001
    endloop
  endfacet
  facet normal  1.305246e-001 -9.914451e-001  0.000000e+000
    outer loop
      vertex  2.574118e+001  9.965926e+000  4.900000e+001
      vertex  2.600000e+001  1.000000e+001  4.600000e+001
      vertex  2.600000e+001  1.000000e+001  4.900000e+001
    endloop
  endfacet
  facet normal -1.305246e-001 -9.914451e-001  -0.000000e+000
    outer loop
      vertex  2.600000e+001  1.000000e+001  4.900000e+001
      vertex  2.600000e+001  1.000000e+001  4.600000e+001
      vertex  2.625882e+001  9.965926e+000  4.600000e+001
    endloop
  endfacet
  facet normal -1.305246e-001 -9.914451e-001  0.000000e+000
    outer loop
      vertex  2.600000e+001  1.000000e+001  4.900000e+001
      vertex  2.625882e+001  9.965926e+000  4.600000e+001
      vertex  2.625882e+001  9.965926e+000  4.900000e+001
    endloop
  endfacet
  facet normal -3.826867e-001 -9.238781e-001  -0.000000e+000
    outer loop
      vertex  2.625882e+001  9.965926e+000  4.900000e+001
      vertex  2.625882e+001  9.965926e+000  4.600000e+001
      vertex  2.650000e+001  9.866025e+000  4.600000e+001
    endloop
  endfacet
  facet normal -3.826867e-001 -9.238781e-001  0.000000e+000
    outer loop
      vertex  2.625882e+001  9.965926e+000  4.900000e+001
      vertex  2.650000e+001  9.866025e+000  4.600000e+001
      vertex  2.650000e+001  9.866025e+000  4.900000e+001
    endloop
  endfacet
  facet normal -6.087594e-001 -7.933548e-001  -0.000000e+000
    outer loop
      vertex  2.650000e+001  9.866025e+000  4.900000e+001
      vertex  2.650000e+001  9.866025e+000  4.600000e+001
      vertex  2.670711e+001  9.707107e+000  4.600000e+001
    endloop
  endfacet
  facet normal -6.087594e-001 -7.933548e-001  0.000000e+000
    outer loop
      vertex  2.650000e+001  9.866025e+000  4.900000e+001
      vertex  2.670711e+001  9.707107e+000  4.600000e+001
      vertex  2.670711e+001  9.707107e+000  4.900000e+001
    endloop
  endfacet
  facet normal -7.933536e-001 -6.087612e-001  -0.000000e+000
    outer loop
      vertex  2.670711e+001  9.707107e+000  4.900000e+001
      vertex  2.670711e+001  9.707107e+000  4.600000e+001
      vertex  2.686603e+001  9.500000e+000  4.600000e+001
    endloop
  endfacet
  facet normal -7.933536e-001 -6.087612e-001  0.000000e+000
    outer loop
      vertex  2.670711e+001  9.707107e+000  4.900000e+001
      vertex  2.686603e+001  9.500000e+000  4.600000e+001
      vertex  2.686603e+001  9.500000e+000  4.900000e+001
    endloop
  endfacet
  facet normal -9.238814e-001 -3.826792e-001  -0.000000e+000
    outer loop
      vertex  2.686603e+001  9.500000e+000  4.900000e+001
      vertex  2.686603e+001  9.500000e+000  4.600000e+001
      vertex  2.696593e+001  9.258819e+000  4.600000e+001
    endloop
  endfacet
  facet normal -9.238814e-001 -3.826792e-001  0.000000e+000
    outer loop
      vertex  2.686603e+001  9.500000e+000  4.900000e+001
      vertex  2.696593e+001  9.258819e+000  4.600000e+001
      vertex  2.696593e+001  9.258819e+000  4.900000e+001
    endloop
  endfacet
  facet normal -9.914445e-001 -1.305287e-001  -0.000000e+000
    outer loop
      vertex  2.696593e+001  9.258819e+000  4.900000e+001
      vertex  2.696593e+001  9.258819e+000  4.600000e+001
      vertex  2.700000e+001  9.000000e+000  4.600000e+001
    endloop
  endfacet
  facet normal -9.914445e-001 -1.305287e-001  0.000000e+000
    outer loop
      vertex  2.696593e+001  9.258819e+000  4.900000e+001
      vertex  2.700000e+001  9.000000e+000  4.600000e+001
      vertex  2.700000e+001  9.000000e+000  4.900000e+001
    endloop
  endfacet
  facet normal -1.305246e-001  9.914451e-001  0.000000e+000
    outer loop
      vertex  2.600000e+001  8.000000e+000  4.600000e+001
      vertex  2.625882e+001  8.034074e+000  4.900000e+001
      vertex  2.625882e+001  8.034074e+000  4.600000e+001
    endloop
  endfacet
  facet normal -3.826867e-001  9.238781e-001  0.000000e+000
    outer loop
      vertex  2.625882e+001  8.034074e+000  4.600000e+001
      vertex  2.625882e+001  8.034074e+000  4.900000e+001
      vertex  2.650000e+001  8.133975e+000  4.900000e+001
    endloop
  endfacet
  facet normal -3.826867e-001  9.238781e-001  0.000000e+000
    outer loop
      vertex  2.625882e+001  8.034074e+000  4.600000e+001
      vertex  2.650000e+001  8.133975e+000  4.900000e+001
      vertex  2.650000e+001  8.133975e+000  4.600000e+001
    endloop
  endfacet
  facet normal -6.087594e-001  7.933548e-001  0.000000e+000
    outer loop
      vertex  2.650000e+001  8.133975e+000  4.600000e+001
      vertex  2.650000e+001  8.133975e+000  4.900000e+001
      vertex  2.670711e+001  8.292893e+000  4.900000e+001
    endloop
  endfacet
  facet normal -6.087594e-001  7.933548e-001  0.000000e+000
    outer loop
      vertex  2.650000e+001  8.133975e+000  4.600000e+001
      vertex  2.670711e+001  8.292893e+000  4.900000e+001
      vertex  2.670711e+001  8.292893e+000  4.600000e+001
    endloop
  endfacet
  facet normal -7.933536e-001  6.087612e-001  0.000000e+000
    outer loop
      vertex  2.670711e+001  8.292893e+000  4.600000e+001
      vertex  2.670711e+001  8.292893e+000  4.900000e+001
      vertex  2.686603e+001  8.500000e+000  4.900000e+001
    endloop
  endfacet
  facet normal -7.933536e-001  6.087612e-001  0.000000e+000
    outer loop
      vertex  2.670711e+001  8.292893e+000  4.600000e+001
      vertex  2.686603e+001  8.500000e+000  4.900000e+001
      vertex  2.686603e+001  8.500000e+000  4.600000e+001
    endloop
  endfacet
  facet normal -9.238814e-001  3.826792e-001  0.000000e+000
    outer loop
      vertex  2.686603e+001  8.500000e+000  4.600000e+001
      vertex  2.686603e+001  8.500000e+000  4.900000e+001
      vertex  2.696593e+001  8.741181e+000  4.900000e+001
    endloop
  endfacet
  facet normal -9.238814e-001  3.826792e-001  0.000000e+000
    outer loop
      vertex  2.686603e+001  8.500000e+000  4.600000e+001
      vertex  2.696593e+001  8.741181e+000  4.900000e+001
      vertex  2.696593e+001  8.741181e+000  4.600000e+001
    endloop
  endfacet
  facet normal -9.914445e-001  1.305287e-001  0.000000e+000
    outer loop
      vertex  2.696593e+001  8.741181e+000  4.600000e+001
      vertex  2.696593e+001  8.741181e+000  4.900000e+001
      vertex  2.700000e+001  9.000000e+000  4.900000e+001
    endloop
  endfacet
  facet normal -9.914445e-001  1.305287e-001  0.000000e+000
    outer loop
      vertex  2.696593e+001  8.741181e+000  4.600000e+001
      vertex  2.700000e+001  9.000000e+000  4.900000e+001
      vertex  2.700000e+001  9.000000e+000  4.600000e+001
    endloop
  endfacet
  facet normal -1.305246e-001  9.914451e-001  0.000000e+000
    outer loop
      vertex  2.625882e+001  8.034074e+000  4.900000e+001
      vertex  2.600000e+001  8.000000e+000  4.600000e+001
      vertex  2.600000e+001  8.000000e+000  4.900000e+001
    endloop
  endfacet
  facet normal  1.305246e-001  9.914451e-001  0.000000e+000
    outer loop
      vertex  2.600000e+001  8.000000e+000  4.900000e+001
      vertex  2.600000e+001  8.000000e+000  4.600000e+001
      vertex  2.574118e+001  8.034074e+000  4.600000e+001
    endloop
  endfacet
  facet normal  1.305246e-001  9.914451e-001  -0.000000e+000
    outer loop
      vertex  2.600000e+001  8.000000e+000  4.900000e+001
      vertex  2.574118e+001  8.034074e+000  4.600000e+001
      vertex  2.574118e+001  8.034074e+000  4.900000e+001
    endloop
  endfacet
  facet normal  3.826867e-001  9.238781e-001  0.000000e+000
    outer loop
      vertex  2.574118e+001  8.034074e+000  4.900000e+001
      vertex  2.574118e+001  8.034074e+000  4.600000e+001
      vertex  2.550000e+001  8.133975e+000  4.600000e+001
    endloop
  endfacet
  facet normal  3.826867e-001  9.238781e-001  -0.000000e+000
    outer loop
      vertex  2.574118e+001  8.034074e+000  4.900000e+001
      vertex  2.550000e+001  8.133975e+000  4.600000e+001
      vertex  2.550000e+001  8.133975e+000  4.900000e+001
    endloop
  endfacet
  facet normal  6.087594e-001  7.933548e-001  0.000000e+000
    outer loop
      vertex  2.550000e+001  8.133975e+000  4.900000e+001
      vertex  2.550000e+001  8.133975e+000  4.600000e+001
      vertex  2.529289e+001  8.292893e+000  4.600000e+001
    endloop
  endfacet
  facet normal  6.087594e-001  7.933548e-001  -0.000000e+000
    outer loop
      vertex  2.550000e+001  8.133975e+000  4.900000e+001
      vertex  2.529289e+001  8.292893e+000  4.600000e+001
      vertex  2.529289e+001  8.292893e+000  4.900000e+001
    endloop
  endfacet
  facet normal  7.933536e-001  6.087612e-001  0.000000e+000
    outer loop
      vertex  2.529289e+001  8.292893e+000  4.900000e+001
      vertex  2.529289e+001  8.292893e+000  4.600000e+001
      vertex  2.513397e+001  8.500000e+000  4.600000e+001
    endloop
  endfacet
  facet normal  7.933536e-001  6.087612e-001  -0.000000e+000
    outer loop
      vertex  2.529289e+001  8.292893e+000  4.900000e+001
      vertex  2.513397e+001  8.500000e+000  4.600000e+001
      vertex  2.513397e+001  8.500000e+000  4.900000e+001
    endloop
  endfacet
  facet normal  9.238814e-001  3.826792e-001  0.000000e+000
    outer loop
      vertex  2.513397e+001  8.500000e+000  4.900000e+001
      vertex  2.513397e+001  8.500000e+000  4.600000e+001
      vertex  2.503407e+001  8.741181e+000  4.600000e+001
    endloop
  endfacet
  facet normal  9.238814e-001  3.826792e-001  -0.000000e+000
    outer loop
      vertex  2.513397e+001  8.500000e+000  4.900000e+001
      vertex  2.503407e+001  8.741181e+000  4.600000e+001
      vertex  2.503407e+001  8.741181e+000  4.900000e+001
    endloop
  endfacet
  facet normal  9.914445e-001  1.305287e-001  0.000000e+000
    outer loop
      vertex  2.503407e+001  8.741181e+000  4.900000e+001
      vertex  2.503407e+001  8.741181e+000  4.600000e+001
      vertex  2.500000e+001  9.000000e+000  4.600000e+001
    endloop
  endfacet
  facet normal  9.914445e-001  1.305287e-001  -0.000000e+000
    outer loop
      vertex  2.503407e+001  8.741181e+000  4.900000e+001
      vertex  2.500000e+001  9.000000e+000  4.600000e+001
      vertex  2.500000e+001  9.000000e+000  4.900000e+001
    endloop
  endfacet
  facet normal  1.305249e-001 -9.914451e-001  0.000000e+000
    outer loop
      vertex  3.000000e+000  1.000000e+001  4.600000e+001
      vertex  2.741181e+000  9.965926e+000  4.900000e+001
      vertex  2.741181e+000  9.965926e+000  4.600000e+001
    endloop
  endfacet
  facet normal  3.826860e-001 -9.238784e-001  0.000000e+000
    outer loop
      vertex  2.741181e+000  9.965926e+000  4.600000e+001
      vertex  2.741181e+000  9.965926e+000  4.900000e+001
      vertex  2.500000e+000  9.866025e+000  4.900000e+001
    endloop
  endfacet
  facet normal  3.826860e-001 -9.238784e-001  0.000000e+000
    outer loop
      vertex  2.741181e+000  9.965926e+000  4.600000e+001
      vertex  2.500000e+000  9.866025e+000  4.900000e+001
      vertex  2.500000e+000  9.866025e+000  4.600000e+001
    endloop
  endfacet
  facet normal  6.087608e-001 -7.933539e-001  0.000000e+000
    outer loop
      vertex  2.500000e+000  9.866025e+000  4.600000e+001
      vertex  2.500000e+000  9.866025e+000  4.900000e+001
      vertex  2.292893e+000  9.707107e+000  4.900000e+001
    endloop
  endfacet
  facet normal  6.087608e-001 -7.933539e-001  0.000000e+000
    outer loop
      vertex  2.500000e+000  9.866025e+000  4.600000e+001
      vertex  2.292893e+000  9.707107e+000  4.900000e+001
      vertex  2.292893e+000  9.707107e+000  4.600000e+001
    endloop
  endfacet
  facet normal  7.933531e-001 -6.087618e-001  0.000000e+000
    outer loop
      vertex  2.292893e+000  9.707107e+000  4.600000e+001
      vertex  2.292893e+000  9.707107e+000  4.900000e+001
      vertex  2.133975e+000  9.500000e+000  4.900000e+001
    endloop
  endfacet
  facet normal  7.933531e-001 -6.087618e-001  0.000000e+000
    outer loop
      vertex  2.292893e+000  9.707107e+000  4.600000e+001
      vertex  2.133975e+000  9.500000e+000  4.900000e+001
      vertex  2.133975e+000  9.500000e+000  4.600000e+001
    endloop
  endfacet
  facet normal  9.238797e-001 -3.826831e-001  0.000000e+000
    outer loop
      vertex  2.133975e+000  9.500000e+000  4.600000e+001
      vertex  2.133975e+000  9.500000e+000  4.900000e+001
      vertex  2.034074e+000  9.258819e+000  4.900000e+001
    endloop
  endfacet
  facet normal  9.238797e-001 -3.826831e-001  0.000000e+000
    outer loop
      vertex  2.133975e+000  9.500000e+000  4.600000e+001
      vertex  2.034074e+000  9.258819e+000  4.900000e+001
      vertex  2.034074e+000  9.258819e+000  4.600000e+001
    endloop
  endfacet
  facet normal  9.914449e-001 -1.305260e-001  0.000000e+000
    outer loop
      vertex  2.034074e+000  9.258819e+000  4.600000e+001
      vertex  2.034074e+000  9.258819e+000  4.900000e+001
      vertex  2.000000e+000  9.000000e+000  4.900000e+001
    endloop
  endfacet
  facet normal  9.914449e-001 -1.305260e-001  0.000000e+000
    outer loop
      vertex  2.034074e+000  9.258819e+000  4.600000e+001
      vertex  2.000000e+000  9.000000e+000  4.900000e+001
      vertex  2.000000e+000  9.000000e+000  4.600000e+001
    endloop
  endfacet
  facet normal  1.305249e-001 -9.914451e-001  0.000000e+000
    outer loop
      vertex  2.741181e+000  9.965926e+000  4.900000e+001
      vertex  3.000000e+000  1.000000e+001  4.600000e+001
      vertex  3.000000e+000  1.000000e+001  4.900000e+001
    endloop
  endfacet
  facet normal -1.305249e-001 -9.914451e-001  -0.000000e+000
    outer loop
      vertex  3.000000e+000  1.000000e+001  4.900000e+001
      vertex  3.000000e+000  1.000000e+001  4.600000e+001
      vertex  3.258819e+000  9.965926e+000  4.600000e+001
    endloop
  endfacet
  facet normal -1.305249e-001 -9.914451e-001  0.000000e+000
    outer loop
      vertex  3.000000e+000  1.000000e+001  4.900000e+001
      vertex  3.258819e+000  9.965926e+000  4.600000e+001
      vertex  3.258819e+000  9.965926e+000  4.900000e+001
    endloop
  endfacet
  facet normal -3.826860e-001 -9.238784e-001  -0.000000e+000
    outer loop
      vertex  3.258819e+000  9.965926e+000  4.900000e+001
      vertex  3.258819e+000  9.965926e+000  4.600000e+001
      vertex  3.500000e+000  9.866025e+000  4.600000e+001
    endloop
  endfacet
  facet normal -3.826860e-001 -9.238784e-001  0.000000e+000
    outer loop
      vertex  3.258819e+000  9.965926e+000  4.900000e+001
      vertex  3.500000e+000  9.866025e+000  4.600000e+001
      vertex  3.500000e+000  9.866025e+000  4.900000e+001
    endloop
  endfacet
  facet normal -6.087608e-001 -7.933539e-001  -0.000000e+000
    outer loop
      vertex  3.500000e+000  9.866025e+000  4.900000e+001
      vertex  3.500000e+000  9.866025e+000  4.600000e+001
      vertex  3.707107e+000  9.707107e+000  4.600000e+001
    endloop
  endfacet
  facet normal -6.087608e-001 -7.933539e-001  0.000000e+000
    outer loop
      vertex  3.500000e+000  9.866025e+000  4.900000e+001
      vertex  3.707107e+000  9.707107e+000  4.600000e+001
      vertex  3.707107e+000  9.707107e+000  4.900000e+001
    endloop
  endfacet
  facet normal -7.933531e-001 -6.087618e-001  -0.000000e+000
    outer loop
      vertex  3.707107e+000  9.707107e+000  4.900000e+001
      vertex  3.707107e+000  9.707107e+000  4.600000e+001
      vertex  3.866025e+000  9.500000e+000  4.600000e+001
    endloop
  endfacet
  facet normal -7.933531e-001 -6.087618e-001  0.000000e+000
    outer loop
      vertex  3.707107e+000  9.707107e+000  4.900000e+001
      vertex  3.866025e+000  9.500000e+000  4.600000e+001
      vertex  3.866025e+000  9.500000e+000  4.900000e+001
    endloop
  endfacet
  facet normal -9.238797e-001 -3.826831e-001  -0.000000e+000
    outer loop
      vertex  3.866025e+000  9.500000e+000  4.900000e+001
      vertex  3.866025e+000  9.500000e+000  4.600000e+001
      vertex  3.965926e+000  9.258819e+000  4.600000e+001
    endloop
  endfacet
  facet normal -9.238797e-001 -3.826831e-001  0.000000e+000
    outer loop
      vertex  3.866025e+000  9.500000e+000  4.900000e+001
      vertex  3.965926e+000  9.258819e+000  4.600000e+001
      vertex  3.965926e+000  9.258819e+000  4.900000e+001
    endloop
  endfacet
  facet normal -9.914449e-001 -1.305260e-001  -0.000000e+000
    outer loop
      vertex  3.965926e+000  9.258819e+000  4.900000e+001
      vertex  3.965926e+000  9.258819e+000  4.600000e+001
      vertex  4.000000e+000  9.000000e+000  4.600000e+001
    endloop
  endfacet
  facet normal -9.914449e-001 -1.305260e-001  0.000000e+000
    outer loop
      vertex  3.965926e+000  9.258819e+000  4.900000e+001
      vertex  4.000000e+000  9.000000e+000  4.600000e+001
      vertex  4.000000e+000  9.000000e+000  4.900000e+001
    endloop
  endfacet
  facet normal -1.305249e-001  9.914451e-001  0.000000e+000
    outer loop
      vertex  3.000000e+000  8.000000e+000  4.600000e+001
      vertex  3.258819e+000  8.034074e+000  4.900000e+001
      vertex  3.258819e+000  8.034074e+000  4.600000e+001
    endloop
  endfacet
  facet normal -3.826860e-001  9.238784e-001  0.000000e+000
    outer loop
      vertex  3.258819e+000  8.034074e+000  4.600000e+001
      vertex  3.258819e+000  8.034074e+000  4.900000e+001
      vertex  3.500000e+000  8.133975e+000  4.900000e+001
    endloop
  endfacet
  facet normal -3.826860e-001  9.238784e-001  0.000000e+000
    outer loop
      vertex  3.258819e+000  8.034074e+000  4.600000e+001
      vertex  3.500000e+000  8.133975e+000  4.900000e+001
      vertex  3.500000e+000  8.133975e+000  4.600000e+001
    endloop
  endfacet
  facet normal -6.087608e-001  7.933539e-001  0.000000e+000
    outer loop
      vertex  3.500000e+000  8.133975e+000  4.600000e+001
      vertex  3.500000e+000  8.133975e+000  4.900000e+001
      vertex  3.707107e+000  8.292893e+000  4.900000e+001
    endloop
  endfacet
  facet normal -6.087608e-001  7.933539e-001  0.000000e+000
    outer loop
      vertex  3.500000e+000  8.133975e+000  4.600000e+001
      vertex  3.707107e+000  8.292893e+000  4.900000e+001
      vertex  3.707107e+000  8.292893e+000  4.600000e+001
    endloop
  endfacet
  facet normal -7.933531e-001  6.087618e-001  0.000000e+000
    outer loop
      vertex  3.707107e+000  8.292893e+000  4.600000e+001
      vertex  3.707107e+000  8.292893e+000  4.900000e+001
      vertex  3.866025e+000  8.500000e+000  4.900000e+001
    endloop
  endfacet
  facet normal -7.933531e-001  6.087618e-001  0.000000e+000
    outer loop
      vertex  3.707107e+000  8.292893e+000  4.600000e+001
      vertex  3.866025e+000  8.500000e+000  4.900000e+001
      vertex  3.866025e+000  8.500000e+000  4.600000e+001
    endloop
  endfacet
  facet normal -9.238797e-001  3.826831e-001  0.000000e+000
    outer loop
      vertex  3.866025e+000  8.500000e+000  4.600000e+001
      vertex  3.866025e+000  8.500000e+000  4.900000e+001
      vertex  3.965926e+000  8.741181e+000  4.900000e+001
    endloop
  endfacet
  facet normal -9.238797e-001  3.826831e-001  0.000000e+000
    outer loop
      vertex  3.866025e+000  8.500000e+000  4.600000e+001
      vertex  3.965926e+000  8.741181e+000  4.900000e+001
      vertex  3.965926e+000  8.741181e+000  4.600000e+001
    endloop
  endfacet
  facet normal -9.914449e-001  1.305260e-001  0.000000e+000
    outer loop
      vertex  3.965926e+000  8.741181e+000  4.600000e+001
      vertex  3.965926e+000  8.741181e+000  4.900000e+001
      vertex  4.000000e+000  9.000000e+000  4.900000e+001
    endloop
  endfacet
  facet normal -9.914449e-001  1.305260e-001  0.000000e+000
    outer loop
      vertex  3.965926e+000  8.741181e+000  4.600000e+001
      vertex  4.000000e+000  9.000000e+000  4.900000e+001
      vertex  4.000000e+000  9.000000e+000  4.600000e+001
    endloop
  endfacet
  facet normal -1.305249e-001  9.914451e-001  0.000000e+000
    outer loop
      vertex  3.258819e+000  8.034074e+000  4.900000e+001
      vertex  3.000000e+000  8.000000e+000  4.600000e+001
      vertex  3.000000e+000  8.000000e+000  4.900000e+001
    endloop
  endfacet
  facet normal  1.305249e-001  9.914451e-001  0.000000e+000
    outer loop
      vertex  3.000000e+000  8.000000e+000  4.900000e+001
      vertex  3.000000e+000  8.000000e+000  4.600000e+001
      vertex  2.741181e+000  8.034074e+000  4.600000e+001
    endloop
  endfacet
  facet normal  1.305249e-001  9.914451e-001  -0.000000e+000
    outer loop
      vertex  3.000000e+000  8.000000e+000  4.900000e+001
      vertex  2.741181e+000  8.034074e+000  4.600000e+001
      vertex  2.741181e+000  8.034074e+000  4.900000e+001
    endloop
  endfacet
  facet normal  3.826860e-001  9.238784e-001  0.000000e+000
    outer loop
      vertex  2.741181e+000  8.034074e+000  4.900000e+001
      vertex  2.741181e+000  8.034074e+000  4.600000e+001
      vertex  2.500000e+000  8.133975e+000  4.600000e+001
    endloop
  endfacet
  facet normal  3.826860e-001  9.238784e-001  -0.000000e+000
    outer loop
      vertex  2.741181e+000  8.034074e+000  4.900000e+001
      vertex  2.500000e+000  8.133975e+000  4.600000e+001
      vertex  2.500000e+000  8.133975e+000  4.900000e+001
    endloop
  endfacet
  facet normal  6.087608e-001  7.933539e-001  0.000000e+000
    outer loop
      vertex  2.500000e+000  8.133975e+000  4.900000e+001
      vertex  2.500000e+000  8.133975e+000  4.600000e+001
      vertex  2.292893e+000  8.292893e+000  4.600000e+001
    endloop
  endfacet
  facet normal  6.087608e-001  7.933539e-001  -0.000000e+000
    outer loop
      vertex  2.500000e+000  8.133975e+000  4.900000e+001
      vertex  2.292893e+000  8.292893e+000  4.600000e+001
      vertex  2.292893e+000  8.292893e+000  4.900000e+001
    endloop
  endfacet
  facet normal  7.933531e-001  6.087618e-001  0.000000e+000
    outer loop
      vertex  2.292893e+000  8.292893e+000  4.900000e+001
      vertex  2.292893e+000  8.292893e+000  4.600000e+001
      vertex  2.133975e+000  8.500000e+000  4.600000e+001
    endloop
  endfacet
  facet normal  7.933531e-001  6.087618e-001  -0.000000e+000
    outer loop
      vertex  2.292893e+000  8.292893e+000  4.900000e+001
      vertex  2.133975e+000  8.500000e+000  4.600000e+001
      vertex  2.133975e+000  8.500000e+000  4.900000e+001
    endloop
  endfacet
  facet normal  9.238797e-001  3.826831e-001  0.000000e+000
    outer loop
      vertex  2.133975e+000  8.500000e+000  4.900000e+001
      vertex  2.133975e+000  8.500000e+000  4.600000e+001
      vertex  2.034074e+000  8.741181e+000  4.600000e+001
    endloop
  endfacet
  facet normal  9.238797e-001  3.826831e-001  -0.000000e+000
    outer loop
      vertex  2.133975e+000  8.500000e+000  4.900000e+001
      vertex  2.034074e+000  8.741181e+000  4.600000e+001
      vertex  2.034074e+000  8.741181e+000  4.900000e+001
    endloop
  endfacet
  facet normal  9.914449e-001  1.305260e-001  0.000000e+000
    outer loop
      vertex  2.034074e+000  8.741181e+000  4.900000e+001
      vertex  2.034074e+000  8.741181e+000  4.600000e+001
      vertex  2.000000e+000  9.000000e+000  4.600000e+001
    endloop
  endfacet
  facet normal  9.914449e-001  1.305260e-001  -0.000000e+000
    outer loop
      vertex  2.034074e+000  8.741181e+000  4.900000e+001
      vertex  2.000000e+000  9.000000e+000  4.600000e+001
      vertex  2.000000e+000  9.000000e+000  4.900000e+001
    endloop
  endfacet
  facet normal  -0.000000e+000  0.000000e+000 -1.000000e+000
    outer loop
      vertex  2.486900e-014  2.200000e+001  0.000000e+000
      vertex  1.000000e+000  2.000000e+000  0.000000e+000
      vertex  0.000000e+000  0.000000e+000  0.000000e+000
    endloop
  endfacet
  facet normal  0.000000e+000  0.000000e+000 -1.000000e+000
    outer loop
      vertex  0.000000e+000  0.000000e+000  0.000000e+000
      vertex  1.000000e+000  2.000000e+000  0.000000e+000
      vertex  2.800000e+001  2.000000e+000  0.000000e+000
    endloop
  endfacet
  facet normal  0.000000e+000  -0.000000e+000 -1.000000e+000
    outer loop
      vertex  0.000000e+000  0.000000e+000  0.000000e+000
      vertex  2.800000e+001  2.000000e+000  0.000000e+000
      vertex  2.900000e+001  0.000000e+000  0.000000e+000
    endloop
  endfacet
  facet normal  0.000000e+000  0.000000e+000 -1.000000e+000
    outer loop
      vertex  1.000000e+000  2.000000e+000  0.000000e+000
      vertex  2.486900e-014  2.200000e+001  0.000000e+000
      vertex  1.000000e+000  2.000000e+001  0.000000e+000
    endloop
  endfacet
  facet normal  0.000000e+000  0.000000e+000 -1.000000e+000
    outer loop
      vertex  1.000000e+000  2.000000e+001  0.000000e+000
      vertex  2.486900e-014  2.200000e+001  0.000000e+000
      vertex  2.900000e+001  2.200000e+001  0.000000e+000
    endloop
  endfacet
  facet normal  0.000000e+000  0.000000e+000 -1.000000e+000
    outer loop
      vertex  1.000000e+000  2.000000e+001  0.000000e+000
      vertex  2.900000e+001  2.200000e+001  0.000000e+000
      vertex  2.800000e+001  2.000000e+001  0.000000e+000
    endloop
  endfacet
  facet normal  0.000000e+000  0.000000e+000 -1.000000e+000
    outer loop
      vertex  2.800000e+001  2.000000e+001  0.000000e+000
      vertex  2.900000e+001  2.200000e+001  0.000000e+000
      vertex  2.900000e+001  0.000000e+000  0.000000e+000
    endloop
  endfacet
  facet normal  0.000000e+000  0.000000e+000 -1.000000e+000
    outer loop
      vertex  2.800000e+001  2.000000e+001  0.000000e+000
      vertex  2.900000e+001  0.000000e+000  0.000000e+000
      vertex  2.800000e+001  2.000000e+000  0.000000e+000
    endloop
  endfacet
  facet normal  0.000000e+000 -1.000000e+000  0.000000e+000
    outer loop
      vertex  1.000000e+000  2.000000e+001  0.000000e+000
      vertex  2.800000e+001  2.000000e+001  0.000000e+000
      vertex  1.000000e+000  2.000000e+001  4.600000e+001
    endloop
  endfacet
  facet normal  0.000000e+000 -1.000000e+000  0.000000e+000
    outer loop
      vertex  1.000000e+000  2.000000e+001  4.600000e+001
      vertex  2.800000e+001  2.000000e+001  0.000000e+000
      vertex  2.800000e+001  2.000000e+001  4.600000e+001
    endloop
  endfacet
  facet normal -1.000000e+000  0.000000e+000  0.000000e+000
    outer loop
      vertex  2.800000e+001  2.000000e+000  0.000000e+000
      vertex  2.800000e+001  2.000000e+000  4.600000e+001
      vertex  2.800000e+001  2.000000e+001  0.000000e+000
    endloop
  endfacet
  facet normal -1.000000e+000  0.000000e+000  0.000000e+000
    outer loop
      vertex  2.800000e+001  2.000000e+001  0.000000e+000
      vertex  2.800000e+001  2.000000e+000  4.600000e+001
      vertex  2.800000e+001  2.000000e+001  4.600000e+001
    endloop
  endfacet
  facet normal  0.000000e+000  1.000000e+000  0.000000e+000
    outer loop
      vertex  2.800000e+001  2.000000e+000  0.000000e+000
      vertex  1.000000e+000  2.000000e+000  0.000000e+000
      vertex  2.800000e+001  2.000000e+000  4.600000e+001
    endloop
  endfacet
  facet normal  0.000000e+000  1.000000e+000  0.000000e+000
    outer loop
      vertex  2.800000e+001  2.000000e+000  4.600000e+001
      vertex  1.000000e+000  2.000000e+000  0.000000e+000
      vertex  1.000000e+000  2.000000e+000  4.600000e+001
    endloop
  endfacet
  facet normal  1.000000e+000  0.000000e+000  0.000000e+000
    outer loop
      vertex  1.000000e+000  2.000000e+001  0.000000e+000
      vertex  1.000000e+000  2.000000e+001  4.600000e+001
      vertex  1.000000e+000  2.000000e+000  0.000000e+000
    endloop
  endfacet
  facet normal  1.000000e+000  0.000000e+000  0.000000e+000
    outer loop
      vertex  1.000000e+000  2.000000e+000  0.000000e+000
      vertex  1.000000e+000  2.000000e+001  4.600000e+001
      vertex  1.000000e+000  2.000000e+000  4.600000e+001
    endloop
  endfacet
  facet normal -1.000000e+000  1.130409e-015  0.000000e+000
    outer loop
      vertex  2.486900e-014  2.200000e+001  0.000000e+000
      vertex  0.000000e+000  0.000000e+000  0.000000e+000
      vertex  2.486900e-014  2.200000e+001  4.900000e+001
    endloop
  endfacet
  facet normal -1.000000e+000  1.130409e-015  0.000000e+000
    outer loop
      vertex  2.486900e-014  2.200000e+001  4.900000e+001
      vertex  0.000000e+000  0.000000e+000  0.000000e+000
      vertex  0.000000e+000  0.000000e+000  4.900000e+001
    endloop
  endfacet
  facet normal  0.000000e+000  1.000000e+000  0.000000e+000
    outer loop
      vertex  2.900000e+001  2.200000e+001  0.000000e+000
      vertex  2.486900e-014  2.200000e+001  0.000000e+000
      vertex  2.900000e+001  2.200000e+001  4.900000e+001
    endloop
  endfacet
  facet normal  0.000000e+000  1.000000e+000  0.000000e+000
    outer loop
      vertex  2.900000e+001  2.200000e+001  4.900000e+001
      vertex  2.486900e-014  2.200000e+001  0.000000e+000
      vertex  2.486900e-014  2.200000e+001  4.900000e+001
    endloop
  endfacet
  facet normal  1.000000e+000  0.000000e+000  0.000000e+000
    outer loop
      vertex  2.900000e+001  0.000000e+000  0.000000e+000
      vertex  2.900000e+001  2.200000e+001  0.000000e+000
      vertex  2.900000e+001  0.000000e+000  4.900000e+001
    endloop
  endfacet
  facet normal  1.000000e+000  -0.000000e+000  0.000000e+000
    outer loop
      vertex  2.900000e+001  0.000000e+000  4.900000e+001
      vertex  2.900000e+001  2.200000e+001  0.000000e+000
      vertex  2.900000e+001  2.200000e+001  4.900000e+001
    endloop
  endfacet
  facet normal  0.000000e+000 -1.000000e+000  0.000000e+000
    outer loop
      vertex  0.000000e+000  0.000000e+000  0.000000e+000
      vertex  2.900000e+001  0.000000e+000  0.000000e+000
      vertex  0.000000e+000  0.000000e+000  4.900000e+001
    endloop
  endfacet
  facet normal  0.000000e+000 -1.000000e+000  0.000000e+000
    outer loop
      vertex  0.000000e+000  0.000000e+000  4.900000e+001
      vertex  2.900000e+001  0.000000e+000  0.000000e+000
      vertex  2.900000e+001  0.000000e+000  4.900000e+001
    endloop
  endfacet
endsolid CATIA STL
