solid CATIA STL
  facet normal  0.000000e+000  0.000000e+000 -1.000000e+000
    outer loop
      vertex  1.500000e+001  8.500000e+000  4.600000e+001
      vertex  1.779289e+001  8.707107e+000  4.600000e+001
      vertex  1.763397e+001  8.500000e+000  4.600000e+001
    endloop
  endfacet
  facet normal  -0.000000e+000  0.000000e+000 -1.000000e+000
    outer loop
      vertex  1.500000e+001  8.500000e+000  4.600000e+001
      vertex  1.763397e+001  8.500000e+000  4.600000e+001
      vertex  1.753407e+001  8.258819e+000  4.600000e+001
    endloop
  endfacet
  facet normal  -0.000000e+000  0.000000e+000 -1.000000e+000
    outer loop
      vertex  1.500000e+001  8.500000e+000  4.600000e+001
      vertex  1.753407e+001  8.258819e+000  4.600000e+001
      vertex  1.500000e+001  1.500000e+000  4.600000e+001
    endloop
  endfacet
  facet normal  0.000000e+000  0.000000e+000 -1.000000e+000
    outer loop
      vertex -1.000000e+000  8.500000e+000  4.600000e+001
      vertex -1.000000e+000  1.500000e+000  4.600000e+001
      vertex -3.534074e+000  8.258819e+000  4.600000e+001
    endloop
  endfacet
  facet normal  0.000000e+000  0.000000e+000 -1.000000e+000
    outer loop
      vertex -1.000000e+000  8.500000e+000  4.600000e+001
      vertex -3.534074e+000  8.258819e+000  4.600000e+001
      vertex -3.633975e+000  8.500000e+000  4.600000e+001
    endloop
  endfacet
  facet normal  0.000000e+000  0.000000e+000 -1.000000e+000
    outer loop
      vertex -1.000000e+000  8.500000e+000  4.600000e+001
      vertex -3.633975e+000  8.500000e+000  4.600000e+001
      vertex -3.792893e+000  8.707107e+000  4.600000e+001
    endloop
  endfacet
  facet normal  0.000000e+000  0.000000e+000 -9.999999e-001
    outer loop
      vertex -1.000000e+000  8.500000e+000  4.600000e+001
      vertex -3.792893e+000  8.707107e+000  4.600000e+001
      vertex -4.000000e+000  8.866025e+000  4.600000e+001
    endloop
  endfacet
  facet normal  -0.000000e+000  0.000000e+000 -1.000000e+000
    outer loop
      vertex -6.000000e+000  1.000000e+001  4.600000e+001
      vertex  2.000000e+001  1.000000e+001  4.600000e+001
      vertex  1.850000e+001  9.000000e+000  4.600000e+001
    endloop
  endfacet
  facet normal  -0.000000e+000  0.000000e+000 -1.000000e+000
    outer loop
      vertex -6.000000e+000  1.000000e+001  4.600000e+001
      vertex  1.850000e+001  9.000000e+000  4.600000e+001
      vertex  1.824118e+001  8.965926e+000  4.600000e+001
    endloop
  endfacet
  facet normal  -0.000000e+000  0.000000e+000 -1.000000e+000
    outer loop
      vertex -6.000000e+000  1.000000e+001  4.600000e+001
      vertex  1.824118e+001  8.965926e+000  4.600000e+001
      vertex  1.800000e+001  8.866025e+000  4.600000e+001
    endloop
  endfacet
  facet normal  -0.000000e+000  0.000000e+000 -1.000000e+000
    outer loop
      vertex -6.000000e+000  1.000000e+001  4.600000e+001
      vertex  1.800000e+001  8.866025e+000  4.600000e+001
      vertex  1.779289e+001  8.707107e+000  4.600000e+001
    endloop
  endfacet
  facet normal  -0.000000e+000  0.000000e+000 -1.000000e+000
    outer loop
      vertex -6.000000e+000  1.000000e+001  4.600000e+001
      vertex  1.779289e+001  8.707107e+000  4.600000e+001
      vertex  1.500000e+001  8.500000e+000  4.600000e+001
    endloop
  endfacet
  facet normal  0.000000e+000  0.000000e+000 -1.000000e+000
    outer loop
      vertex -6.000000e+000  1.000000e+001  4.600000e+001
      vertex  1.500000e+001  8.500000e+000  4.600000e+001
      vertex -1.000000e+000  8.500000e+000  4.600000e+001
    endloop
  endfacet
  facet normal  0.000000e+000  0.000000e+000 -1.000000e+000
    outer loop
      vertex -6.000000e+000  1.000000e+001  4.600000e+001
      vertex -1.000000e+000  8.500000e+000  4.600000e+001
      vertex -4.000000e+000  8.866025e+000  4.600000e+001
    endloop
  endfacet
  facet normal  0.000000e+000  0.000000e+000 -1.000000e+000
    outer loop
      vertex -6.000000e+000  1.000000e+001  4.600000e+001
      vertex -4.000000e+000  8.866025e+000  4.600000e+001
      vertex -4.241181e+000  8.965926e+000  4.600000e+001
    endloop
  endfacet
  facet normal  0.000000e+000  0.000000e+000 -1.000000e+000
    outer loop
      vertex -6.000000e+000  1.000000e+001  4.600000e+001
      vertex -4.241181e+000  8.965926e+000  4.600000e+001
      vertex -4.500000e+000  9.000000e+000  4.600000e+001
    endloop
  endfacet
  facet normal  -0.000000e+000  0.000000e+000 -9.999999e-001
    outer loop
      vertex -6.000000e+000  1.000000e+001  4.600000e+001
      vertex -4.500000e+000  9.000000e+000  4.600000e+001
      vertex -4.758819e+000  8.965926e+000  4.600000e+001
    endloop
  endfacet
  facet normal  -0.000000e+000  0.000000e+000 -1.000000e+000
    outer loop
      vertex -6.000000e+000  1.000000e+001  4.600000e+001
      vertex -4.758819e+000  8.965926e+000  4.600000e+001
      vertex -5.000000e+000  8.866025e+000  4.600000e+001
    endloop
  endfacet
  facet normal  -0.000000e+000  0.000000e+000 -1.000000e+000
    outer loop
      vertex -6.000000e+000  1.000000e+001  4.600000e+001
      vertex -5.000000e+000  8.866025e+000  4.600000e+001
      vertex -5.207107e+000  8.707107e+000  4.600000e+001
    endloop
  endfacet
  facet normal  -0.000000e+000  0.000000e+000 -1.000000e+000
    outer loop
      vertex -6.000000e+000  1.000000e+001  4.600000e+001
      vertex -5.207107e+000  8.707107e+000  4.600000e+001
      vertex -5.366025e+000  8.500000e+000  4.600000e+001
    endloop
  endfacet
  facet normal  -0.000000e+000  0.000000e+000 -1.000000e+000
    outer loop
      vertex -6.000000e+000  1.000000e+001  4.600000e+001
      vertex -5.366025e+000  8.500000e+000  4.600000e+001
      vertex -5.465926e+000  8.258819e+000  4.600000e+001
    endloop
  endfacet
  facet normal  -0.000000e+000  0.000000e+000 -1.000000e+000
    outer loop
      vertex -6.000000e+000  1.000000e+001  4.600000e+001
      vertex -5.465926e+000  8.258819e+000  4.600000e+001
      vertex -5.500000e+000  8.000000e+000  4.600000e+001
    endloop
  endfacet
  facet normal  -0.000000e+000  0.000000e+000 -1.000000e+000
    outer loop
      vertex -6.000000e+000  1.000000e+001  4.600000e+001
      vertex -5.500000e+000  8.000000e+000  4.600000e+001
      vertex -6.000000e+000 -3.552714e-015  4.600000e+001
    endloop
  endfacet
  facet normal  0.000000e+000  -0.000000e+000 -1.000000e+000
    outer loop
      vertex -6.000000e+000 -3.552714e-015  4.600000e+001
      vertex -5.500000e+000  8.000000e+000  4.600000e+001
      vertex -5.465926e+000  7.741181e+000  4.600000e+001
    endloop
  endfacet
  facet normal  0.000000e+000  -0.000000e+000 -9.999999e-001
    outer loop
      vertex -6.000000e+000 -3.552714e-015  4.600000e+001
      vertex -5.465926e+000  7.741181e+000  4.600000e+001
      vertex -5.366025e+000  7.500000e+000  4.600000e+001
    endloop
  endfacet
  facet normal  0.000000e+000  -0.000000e+000 -9.999999e-001
    outer loop
      vertex -6.000000e+000 -3.552714e-015  4.600000e+001
      vertex -5.366025e+000  7.500000e+000  4.600000e+001
      vertex -5.207107e+000  7.292893e+000  4.600000e+001
    endloop
  endfacet
  facet normal  0.000000e+000  -0.000000e+000 -1.000000e+000
    outer loop
      vertex -6.000000e+000 -3.552714e-015  4.600000e+001
      vertex -5.207107e+000  7.292893e+000  4.600000e+001
      vertex -5.000000e+000  7.133975e+000  4.600000e+001
    endloop
  endfacet
  facet normal  0.000000e+000  -0.000000e+000 -1.000000e+000
    outer loop
      vertex -6.000000e+000 -3.552714e-015  4.600000e+001
      vertex -5.000000e+000  7.133975e+000  4.600000e+001
      vertex -4.758819e+000  7.034074e+000  4.600000e+001
    endloop
  endfacet
  facet normal  0.000000e+000  -0.000000e+000 -1.000000e+000
    outer loop
      vertex -6.000000e+000 -3.552714e-015  4.600000e+001
      vertex -4.758819e+000  7.034074e+000  4.600000e+001
      vertex -4.500000e+000  7.000000e+000  4.600000e+001
    endloop
  endfacet
  facet normal  0.000000e+000  -0.000000e+000 -1.000000e+000
    outer loop
      vertex -6.000000e+000 -3.552714e-015  4.600000e+001
      vertex -4.500000e+000  7.000000e+000  4.600000e+001
      vertex -1.000000e+000  1.500000e+000  4.600000e+001
    endloop
  endfacet
  facet normal  0.000000e+000  -0.000000e+000 -1.000000e+000
    outer loop
      vertex -6.000000e+000 -3.552714e-015  4.600000e+001
      vertex -1.000000e+000  1.500000e+000  4.600000e+001
      vertex  1.500000e+001  1.500000e+000  4.600000e+001
    endloop
  endfacet
  facet normal  0.000000e+000  -0.000000e+000 -1.000000e+000
    outer loop
      vertex -6.000000e+000 -3.552714e-015  4.600000e+001
      vertex  1.500000e+001  1.500000e+000  4.600000e+001
      vertex  2.000000e+001 -2.265597e-015  4.600000e+001
    endloop
  endfacet
  facet normal  0.000000e+000  0.000000e+000 -1.000000e+000
    outer loop
      vertex -1.000000e+000  1.500000e+000  4.600000e+001
      vertex -4.500000e+000  7.000000e+000  4.600000e+001
      vertex -4.241181e+000  7.034074e+000  4.600000e+001
    endloop
  endfacet
  facet normal  0.000000e+000  0.000000e+000 -1.000000e+000
    outer loop
      vertex -1.000000e+000  1.500000e+000  4.600000e+001
      vertex -4.241181e+000  7.034074e+000  4.600000e+001
      vertex -4.000000e+000  7.133975e+000  4.600000e+001
    endloop
  endfacet
  facet normal  0.000000e+000  0.000000e+000 -1.000000e+000
    outer loop
      vertex -1.000000e+000  1.500000e+000  4.600000e+001
      vertex -4.000000e+000  7.133975e+000  4.600000e+001
      vertex -3.792893e+000  7.292893e+000  4.600000e+001
    endloop
  endfacet
  facet normal  0.000000e+000  0.000000e+000 -1.000000e+000
    outer loop
      vertex -1.000000e+000  1.500000e+000  4.600000e+001
      vertex -3.792893e+000  7.292893e+000  4.600000e+001
      vertex -3.633975e+000  7.500000e+000  4.600000e+001
    endloop
  endfacet
  facet normal  0.000000e+000  0.000000e+000 -1.000000e+000
    outer loop
      vertex -1.000000e+000  1.500000e+000  4.600000e+001
      vertex -3.633975e+000  7.500000e+000  4.600000e+001
      vertex -3.534074e+000  7.741181e+000  4.600000e+001
    endloop
  endfacet
  facet normal  0.000000e+000  0.000000e+000 -9.999999e-001
    outer loop
      vertex -1.000000e+000  1.500000e+000  4.600000e+001
      vertex -3.534074e+000  7.741181e+000  4.600000e+001
      vertex -3.500000e+000  8.000000e+000  4.600000e+001
    endloop
  endfacet
  facet normal  0.000000e+000  0.000000e+000 -1.000000e+000
    outer loop
      vertex -1.000000e+000  1.500000e+000  4.600000e+001
      vertex -3.500000e+000  8.000000e+000  4.600000e+001
      vertex -3.534074e+000  8.258819e+000  4.600000e+001
    endloop
  endfacet
  facet normal  0.000000e+000  0.000000e+000 -1.000000e+000
    outer loop
      vertex  1.500000e+001  1.500000e+000  4.600000e+001
      vertex  1.753407e+001  8.258819e+000  4.600000e+001
      vertex  1.750000e+001  8.000000e+000  4.600000e+001
    endloop
  endfacet
  facet normal  0.000000e+000  -0.000000e+000 -1.000000e+000
    outer loop
      vertex  1.500000e+001  1.500000e+000  4.600000e+001
      vertex  1.750000e+001  8.000000e+000  4.600000e+001
      vertex  1.753407e+001  7.741181e+000  4.600000e+001
    endloop
  endfacet
  facet normal  0.000000e+000  -0.000000e+000 -1.000000e+000
    outer loop
      vertex  1.500000e+001  1.500000e+000  4.600000e+001
      vertex  1.753407e+001  7.741181e+000  4.600000e+001
      vertex  1.763397e+001  7.500000e+000  4.600000e+001
    endloop
  endfacet
  facet normal  0.000000e+000  -0.000000e+000 -9.999999e-001
    outer loop
      vertex  1.500000e+001  1.500000e+000  4.600000e+001
      vertex  1.763397e+001  7.500000e+000  4.600000e+001
      vertex  1.779289e+001  7.292893e+000  4.600000e+001
    endloop
  endfacet
  facet normal  0.000000e+000  -0.000000e+000 -1.000000e+000
    outer loop
      vertex  1.500000e+001  1.500000e+000  4.600000e+001
      vertex  1.779289e+001  7.292893e+000  4.600000e+001
      vertex  1.800000e+001  7.133975e+000  4.600000e+001
    endloop
  endfacet
  facet normal  0.000000e+000  -0.000000e+000 -9.999999e-001
    outer loop
      vertex  1.500000e+001  1.500000e+000  4.600000e+001
      vertex  1.800000e+001  7.133975e+000  4.600000e+001
      vertex  1.824118e+001  7.034074e+000  4.600000e+001
    endloop
  endfacet
  facet normal  0.000000e+000  -0.000000e+000 -9.999999e-001
    outer loop
      vertex  1.500000e+001  1.500000e+000  4.600000e+001
      vertex  1.824118e+001  7.034074e+000  4.600000e+001
      vertex  1.850000e+001  7.000000e+000  4.600000e+001
    endloop
  endfacet
  facet normal  0.000000e+000  -0.000000e+000 -1.000000e+000
    outer loop
      vertex  1.500000e+001  1.500000e+000  4.600000e+001
      vertex  1.850000e+001  7.000000e+000  4.600000e+001
      vertex  2.000000e+001 -2.265597e-015  4.600000e+001
    endloop
  endfacet
  facet normal  0.000000e+000  0.000000e+000 -1.000000e+000
    outer loop
      vertex  2.000000e+001 -2.265597e-015  4.600000e+001
      vertex  1.850000e+001  7.000000e+000  4.600000e+001
      vertex  1.875882e+001  7.034074e+000  4.600000e+001
    endloop
  endfacet
  facet normal  0.000000e+000  0.000000e+000 -1.000000e+000
    outer loop
      vertex  2.000000e+001 -2.265597e-015  4.600000e+001
      vertex  1.875882e+001  7.034074e+000  4.600000e+001
      vertex  1.900000e+001  7.133975e+000  4.600000e+001
    endloop
  endfacet
  facet normal  0.000000e+000  0.000000e+000 -9.999999e-001
    outer loop
      vertex  2.000000e+001 -2.265597e-015  4.600000e+001
      vertex  1.900000e+001  7.133975e+000  4.600000e+001
      vertex  1.920711e+001  7.292893e+000  4.600000e+001
    endloop
  endfacet
  facet normal  0.000000e+000  0.000000e+000 -1.000000e+000
    outer loop
      vertex  2.000000e+001 -2.265597e-015  4.600000e+001
      vertex  1.920711e+001  7.292893e+000  4.600000e+001
      vertex  1.936603e+001  7.500000e+000  4.600000e+001
    endloop
  endfacet
  facet normal  0.000000e+000  0.000000e+000 -9.999999e-001
    outer loop
      vertex  2.000000e+001 -2.265597e-015  4.600000e+001
      vertex  1.936603e+001  7.500000e+000  4.600000e+001
      vertex  1.946593e+001  7.741181e+000  4.600000e+001
    endloop
  endfacet
  facet normal  0.000000e+000  0.000000e+000 -1.000000e+000
    outer loop
      vertex  2.000000e+001 -2.265597e-015  4.600000e+001
      vertex  1.946593e+001  7.741181e+000  4.600000e+001
      vertex  1.950000e+001  8.000000e+000  4.600000e+001
    endloop
  endfacet
  facet normal  0.000000e+000  0.000000e+000 -1.000000e+000
    outer loop
      vertex  2.000000e+001  1.000000e+001  4.600000e+001
      vertex  2.000000e+001 -2.265597e-015  4.600000e+001
      vertex  1.950000e+001  8.000000e+000  4.600000e+001
    endloop
  endfacet
  facet normal  0.000000e+000  0.000000e+000 -9.999999e-001
    outer loop
      vertex  2.000000e+001  1.000000e+001  4.600000e+001
      vertex  1.950000e+001  8.000000e+000  4.600000e+001
      vertex  1.946593e+001  8.258819e+000  4.600000e+001
    endloop
  endfacet
  facet normal  0.000000e+000  0.000000e+000 -1.000000e+000
    outer loop
      vertex  2.000000e+001  1.000000e+001  4.600000e+001
      vertex  1.946593e+001  8.258819e+000  4.600000e+001
      vertex  1.936603e+001  8.500000e+000  4.600000e+001
    endloop
  endfacet
  facet normal  0.000000e+000  0.000000e+000 -9.999999e-001
    outer loop
      vertex  2.000000e+001  1.000000e+001  4.600000e+001
      vertex  1.936603e+001  8.500000e+000  4.600000e+001
      vertex  1.920711e+001  8.707107e+000  4.600000e+001
    endloop
  endfacet
  facet normal  0.000000e+000  0.000000e+000 -1.000000e+000
    outer loop
      vertex  2.000000e+001  1.000000e+001  4.600000e+001
      vertex  1.920711e+001  8.707107e+000  4.600000e+001
      vertex  1.900000e+001  8.866025e+000  4.600000e+001
    endloop
  endfacet
  facet normal  0.000000e+000  0.000000e+000 -1.000000e+000
    outer loop
      vertex  2.000000e+001  1.000000e+001  4.600000e+001
      vertex  1.900000e+001  8.866025e+000  4.600000e+001
      vertex  1.875882e+001  8.965926e+000  4.600000e+001
    endloop
  endfacet
  facet normal  0.000000e+000  0.000000e+000 -1.000000e+000
    outer loop
      vertex  2.000000e+001  1.000000e+001  4.600000e+001
      vertex  1.875882e+001  8.965926e+000  4.600000e+001
      vertex  1.850000e+001  9.000000e+000  4.600000e+001
    endloop
  endfacet
  facet normal  0.000000e+000  0.000000e+000  1.000000e+000
    outer loop
      vertex  1.500000e+001  8.500000e+000  4.900000e+001
      vertex  1.500000e+001  1.500000e+000  4.900000e+001
      vertex  1.753407e+001  8.258819e+000  4.900000e+001
    endloop
  endfacet
  facet normal  0.000000e+000  -0.000000e+000  1.000000e+000
    outer loop
      vertex  1.500000e+001  8.500000e+000  4.900000e+001
      vertex  1.753407e+001  8.258819e+000  4.900000e+001
      vertex  1.763397e+001  8.500000e+000  4.900000e+001
    endloop
  endfacet
  facet normal  0.000000e+000  -0.000000e+000  1.000000e+000
    outer loop
      vertex  1.500000e+001  8.500000e+000  4.900000e+001
      vertex  1.763397e+001  8.500000e+000  4.900000e+001
      vertex  1.779289e+001  8.707107e+000  4.900000e+001
    endloop
  endfacet
  facet normal  0.000000e+000  0.000000e+000  1.000000e+000
    outer loop
      vertex -1.000000e+000  8.500000e+000  4.900000e+001
      vertex -3.792893e+000  8.707107e+000  4.900000e+001
      vertex -3.633975e+000  8.500000e+000  4.900000e+001
    endloop
  endfacet
  facet normal  -0.000000e+000  0.000000e+000  1.000000e+000
    outer loop
      vertex -1.000000e+000  8.500000e+000  4.900000e+001
      vertex -3.633975e+000  8.500000e+000  4.900000e+001
      vertex -3.534074e+000  8.258819e+000  4.900000e+001
    endloop
  endfacet
  facet normal  -0.000000e+000  0.000000e+000  1.000000e+000
    outer loop
      vertex -1.000000e+000  8.500000e+000  4.900000e+001
      vertex -3.534074e+000  8.258819e+000  4.900000e+001
      vertex -1.000000e+000  1.500000e+000  4.900000e+001
    endloop
  endfacet
  facet normal  0.000000e+000  0.000000e+000  1.000000e+000
    outer loop
      vertex -7.500000e+000 -3.000000e+000  4.900000e+001
      vertex  2.150000e+001 -3.000000e+000  4.900000e+001
      vertex  1.500000e+001  1.500000e+000  4.900000e+001
    endloop
  endfacet
  facet normal  0.000000e+000  0.000000e+000  1.000000e+000
    outer loop
      vertex -7.500000e+000 -3.000000e+000  4.900000e+001
      vertex  1.500000e+001  1.500000e+000  4.900000e+001
      vertex -1.000000e+000  1.500000e+000  4.900000e+001
    endloop
  endfacet
  facet normal  0.000000e+000  0.000000e+000  1.000000e+000
    outer loop
      vertex -7.500000e+000 -3.000000e+000  4.900000e+001
      vertex -1.000000e+000  1.500000e+000  4.900000e+001
      vertex -4.500000e+000  7.000000e+000  4.900000e+001
    endloop
  endfacet
  facet normal  0.000000e+000  0.000000e+000  1.000000e+000
    outer loop
      vertex -7.500000e+000 -3.000000e+000  4.900000e+001
      vertex -4.500000e+000  7.000000e+000  4.900000e+001
      vertex -4.758819e+000  7.034074e+000  4.900000e+001
    endloop
  endfacet
  facet normal  0.000000e+000  0.000000e+000  1.000000e+000
    outer loop
      vertex -7.500000e+000 -3.000000e+000  4.900000e+001
      vertex -4.758819e+000  7.034074e+000  4.900000e+001
      vertex -5.000000e+000  7.133975e+000  4.900000e+001
    endloop
  endfacet
  facet normal  0.000000e+000  0.000000e+000  1.000000e+000
    outer loop
      vertex -7.500000e+000 -3.000000e+000  4.900000e+001
      vertex -5.000000e+000  7.133975e+000  4.900000e+001
      vertex -5.207107e+000  7.292893e+000  4.900000e+001
    endloop
  endfacet
  facet normal  0.000000e+000  0.000000e+000  1.000000e+000
    outer loop
      vertex -7.500000e+000 -3.000000e+000  4.900000e+001
      vertex -5.207107e+000  7.292893e+000  4.900000e+001
      vertex -5.366025e+000  7.500000e+000  4.900000e+001
    endloop
  endfacet
  facet normal  0.000000e+000  0.000000e+000  9.999999e-001
    outer loop
      vertex -7.500000e+000 -3.000000e+000  4.900000e+001
      vertex -5.366025e+000  7.500000e+000  4.900000e+001
      vertex -5.465926e+000  7.741181e+000  4.900000e+001
    endloop
  endfacet
  facet normal  0.000000e+000  0.000000e+000  9.999999e-001
    outer loop
      vertex -7.500000e+000 -3.000000e+000  4.900000e+001
      vertex -5.465926e+000  7.741181e+000  4.900000e+001
      vertex -5.500000e+000  8.000000e+000  4.900000e+001
    endloop
  endfacet
  facet normal  0.000000e+000  -0.000000e+000  1.000000e+000
    outer loop
      vertex -7.500000e+000 -3.000000e+000  4.900000e+001
      vertex -5.500000e+000  8.000000e+000  4.900000e+001
      vertex -5.465926e+000  8.258819e+000  4.900000e+001
    endloop
  endfacet
  facet normal  0.000000e+000  0.000000e+000  1.000000e+000
    outer loop
      vertex -7.500000e+000  1.300000e+001  4.900000e+001
      vertex -7.500000e+000 -3.000000e+000  4.900000e+001
      vertex -5.465926e+000  8.258819e+000  4.900000e+001
    endloop
  endfacet
  facet normal  0.000000e+000  -0.000000e+000  1.000000e+000
    outer loop
      vertex -7.500000e+000  1.300000e+001  4.900000e+001
      vertex -5.465926e+000  8.258819e+000  4.900000e+001
      vertex -5.366025e+000  8.500000e+000  4.900000e+001
    endloop
  endfacet
  facet normal  0.000000e+000  -0.000000e+000  1.000000e+000
    outer loop
      vertex -7.500000e+000  1.300000e+001  4.900000e+001
      vertex -5.366025e+000  8.500000e+000  4.900000e+001
      vertex -5.207107e+000  8.707107e+000  4.900000e+001
    endloop
  endfacet
  facet normal  0.000000e+000  -0.000000e+000  1.000000e+000
    outer loop
      vertex -7.500000e+000  1.300000e+001  4.900000e+001
      vertex -5.207107e+000  8.707107e+000  4.900000e+001
      vertex -5.000000e+000  8.866025e+000  4.900000e+001
    endloop
  endfacet
  facet normal  0.000000e+000  -0.000000e+000  1.000000e+000
    outer loop
      vertex -7.500000e+000  1.300000e+001  4.900000e+001
      vertex -5.000000e+000  8.866025e+000  4.900000e+001
      vertex -4.758819e+000  8.965926e+000  4.900000e+001
    endloop
  endfacet
  facet normal  0.000000e+000  -0.000000e+000  1.000000e+000
    outer loop
      vertex -7.500000e+000  1.300000e+001  4.900000e+001
      vertex -4.758819e+000  8.965926e+000  4.900000e+001
      vertex -4.500000e+000  9.000000e+000  4.900000e+001
    endloop
  endfacet
  facet normal  -0.000000e+000  -0.000000e+000  1.000000e+000
    outer loop
      vertex -7.500000e+000  1.300000e+001  4.900000e+001
      vertex -4.500000e+000  9.000000e+000  4.900000e+001
      vertex -4.241181e+000  8.965926e+000  4.900000e+001
    endloop
  endfacet
  facet normal  -0.000000e+000  -0.000000e+000  9.999999e-001
    outer loop
      vertex -7.500000e+000  1.300000e+001  4.900000e+001
      vertex -4.241181e+000  8.965926e+000  4.900000e+001
      vertex -4.000000e+000  8.866025e+000  4.900000e+001
    endloop
  endfacet
  facet normal  -0.000000e+000  -0.000000e+000  1.000000e+000
    outer loop
      vertex -7.500000e+000  1.300000e+001  4.900000e+001
      vertex -4.000000e+000  8.866025e+000  4.900000e+001
      vertex -3.792893e+000  8.707107e+000  4.900000e+001
    endloop
  endfacet
  facet normal  -0.000000e+000  -0.000000e+000  1.000000e+000
    outer loop
      vertex -7.500000e+000  1.300000e+001  4.900000e+001
      vertex -3.792893e+000  8.707107e+000  4.900000e+001
      vertex -1.000000e+000  8.500000e+000  4.900000e+001
    endloop
  endfacet
  facet normal  0.000000e+000  -0.000000e+000  1.000000e+000
    outer loop
      vertex -7.500000e+000  1.300000e+001  4.900000e+001
      vertex -1.000000e+000  8.500000e+000  4.900000e+001
      vertex  1.500000e+001  8.500000e+000  4.900000e+001
    endloop
  endfacet
  facet normal  0.000000e+000  -0.000000e+000  1.000000e+000
    outer loop
      vertex -7.500000e+000  1.300000e+001  4.900000e+001
      vertex  1.500000e+001  8.500000e+000  4.900000e+001
      vertex  1.779289e+001  8.707107e+000  4.900000e+001
    endloop
  endfacet
  facet normal  0.000000e+000  -0.000000e+000  1.000000e+000
    outer loop
      vertex -7.500000e+000  1.300000e+001  4.900000e+001
      vertex  1.779289e+001  8.707107e+000  4.900000e+001
      vertex  1.800000e+001  8.866025e+000  4.900000e+001
    endloop
  endfacet
  facet normal  0.000000e+000  -0.000000e+000  1.000000e+000
    outer loop
      vertex -7.500000e+000  1.300000e+001  4.900000e+001
      vertex  1.800000e+001  8.866025e+000  4.900000e+001
      vertex  1.824118e+001  8.965926e+000  4.900000e+001
    endloop
  endfacet
  facet normal  0.000000e+000  -0.000000e+000  1.000000e+000
    outer loop
      vertex -7.500000e+000  1.300000e+001  4.900000e+001
      vertex  1.824118e+001  8.965926e+000  4.900000e+001
      vertex  1.850000e+001  9.000000e+000  4.900000e+001
    endloop
  endfacet
  facet normal  0.000000e+000  -0.000000e+000  1.000000e+000
    outer loop
      vertex -7.500000e+000  1.300000e+001  4.900000e+001
      vertex  1.850000e+001  9.000000e+000  4.900000e+001
      vertex  2.150000e+001  1.300000e+001  4.900000e+001
    endloop
  endfacet
  facet normal  0.000000e+000  0.000000e+000  1.000000e+000
    outer loop
      vertex -1.000000e+000  1.500000e+000  4.900000e+001
      vertex -3.534074e+000  8.258819e+000  4.900000e+001
      vertex -3.500000e+000  8.000000e+000  4.900000e+001
    endloop
  endfacet
  facet normal  0.000000e+000  0.000000e+000  9.999999e-001
    outer loop
      vertex -1.000000e+000  1.500000e+000  4.900000e+001
      vertex -3.500000e+000  8.000000e+000  4.900000e+001
      vertex -3.534074e+000  7.741181e+000  4.900000e+001
    endloop
  endfacet
  facet normal  0.000000e+000  0.000000e+000  1.000000e+000
    outer loop
      vertex -1.000000e+000  1.500000e+000  4.900000e+001
      vertex -3.534074e+000  7.741181e+000  4.900000e+001
      vertex -3.633975e+000  7.500000e+000  4.900000e+001
    endloop
  endfacet
  facet normal  0.000000e+000  0.000000e+000  1.000000e+000
    outer loop
      vertex -1.000000e+000  1.500000e+000  4.900000e+001
      vertex -3.633975e+000  7.500000e+000  4.900000e+001
      vertex -3.792893e+000  7.292893e+000  4.900000e+001
    endloop
  endfacet
  facet normal  0.000000e+000  0.000000e+000  1.000000e+000
    outer loop
      vertex -1.000000e+000  1.500000e+000  4.900000e+001
      vertex -3.792893e+000  7.292893e+000  4.900000e+001
      vertex -4.000000e+000  7.133975e+000  4.900000e+001
    endloop
  endfacet
  facet normal  0.000000e+000  0.000000e+000  1.000000e+000
    outer loop
      vertex -1.000000e+000  1.500000e+000  4.900000e+001
      vertex -4.000000e+000  7.133975e+000  4.900000e+001
      vertex -4.241181e+000  7.034074e+000  4.900000e+001
    endloop
  endfacet
  facet normal  0.000000e+000  0.000000e+000  1.000000e+000
    outer loop
      vertex -1.000000e+000  1.500000e+000  4.900000e+001
      vertex -4.241181e+000  7.034074e+000  4.900000e+001
      vertex -4.500000e+000  7.000000e+000  4.900000e+001
    endloop
  endfacet
  facet normal  0.000000e+000  0.000000e+000  1.000000e+000
    outer loop
      vertex  1.500000e+001  1.500000e+000  4.900000e+001
      vertex  2.150000e+001 -3.000000e+000  4.900000e+001
      vertex  1.850000e+001  7.000000e+000  4.900000e+001
    endloop
  endfacet
  facet normal  0.000000e+000  0.000000e+000  9.999999e-001
    outer loop
      vertex  1.500000e+001  1.500000e+000  4.900000e+001
      vertex  1.850000e+001  7.000000e+000  4.900000e+001
      vertex  1.824118e+001  7.034074e+000  4.900000e+001
    endloop
  endfacet
  facet normal  0.000000e+000  0.000000e+000  9.999999e-001
    outer loop
      vertex  1.500000e+001  1.500000e+000  4.900000e+001
      vertex  1.824118e+001  7.034074e+000  4.900000e+001
      vertex  1.800000e+001  7.133975e+000  4.900000e+001
    endloop
  endfacet
  facet normal  0.000000e+000  0.000000e+000  1.000000e+000
    outer loop
      vertex  1.500000e+001  1.500000e+000  4.900000e+001
      vertex  1.800000e+001  7.133975e+000  4.900000e+001
      vertex  1.779289e+001  7.292893e+000  4.900000e+001
    endloop
  endfacet
  facet normal  0.000000e+000  0.000000e+000  9.999999e-001
    outer loop
      vertex  1.500000e+001  1.500000e+000  4.900000e+001
      vertex  1.779289e+001  7.292893e+000  4.900000e+001
      vertex  1.763397e+001  7.500000e+000  4.900000e+001
    endloop
  endfacet
  facet normal  0.000000e+000  0.000000e+000  1.000000e+000
    outer loop
      vertex  1.500000e+001  1.500000e+000  4.900000e+001
      vertex  1.763397e+001  7.500000e+000  4.900000e+001
      vertex  1.753407e+001  7.741181e+000  4.900000e+001
    endloop
  endfacet
  facet normal  0.000000e+000  0.000000e+000  1.000000e+000
    outer loop
      vertex  1.500000e+001  1.500000e+000  4.900000e+001
      vertex  1.753407e+001  7.741181e+000  4.900000e+001
      vertex  1.750000e+001  8.000000e+000  4.900000e+001
    endloop
  endfacet
  facet normal  0.000000e+000  -0.000000e+000  1.000000e+000
    outer loop
      vertex  1.500000e+001  1.500000e+000  4.900000e+001
      vertex  1.750000e+001  8.000000e+000  4.900000e+001
      vertex  1.753407e+001  8.258819e+000  4.900000e+001
    endloop
  endfacet
  facet normal  0.000000e+000  0.000000e+000  1.000000e+000
    outer loop
      vertex  2.150000e+001 -3.000000e+000  4.900000e+001
      vertex  1.946593e+001  8.258819e+000  4.900000e+001
      vertex  1.950000e+001  8.000000e+000  4.900000e+001
    endloop
  endfacet
  facet normal  0.000000e+000  0.000000e+000  1.000000e+000
    outer loop
      vertex  2.150000e+001 -3.000000e+000  4.900000e+001
      vertex  1.950000e+001  8.000000e+000  4.900000e+001
      vertex  1.946593e+001  7.741181e+000  4.900000e+001
    endloop
  endfacet
  facet normal  0.000000e+000  0.000000e+000  1.000000e+000
    outer loop
      vertex  2.150000e+001 -3.000000e+000  4.900000e+001
      vertex  1.946593e+001  7.741181e+000  4.900000e+001
      vertex  1.936603e+001  7.500000e+000  4.900000e+001
    endloop
  endfacet
  facet normal  0.000000e+000  0.000000e+000  1.000000e+000
    outer loop
      vertex  2.150000e+001 -3.000000e+000  4.900000e+001
      vertex  1.936603e+001  7.500000e+000  4.900000e+001
      vertex  1.920711e+001  7.292893e+000  4.900000e+001
    endloop
  endfacet
  facet normal  0.000000e+000  0.000000e+000  1.000000e+000
    outer loop
      vertex  2.150000e+001 -3.000000e+000  4.900000e+001
      vertex  1.920711e+001  7.292893e+000  4.900000e+001
      vertex  1.900000e+001  7.133975e+000  4.900000e+001
    endloop
  endfacet
  facet normal  0.000000e+000  0.000000e+000  1.000000e+000
    outer loop
      vertex  2.150000e+001 -3.000000e+000  4.900000e+001
      vertex  1.900000e+001  7.133975e+000  4.900000e+001
      vertex  1.875882e+001  7.034074e+000  4.900000e+001
    endloop
  endfacet
  facet normal  0.000000e+000  0.000000e+000  1.000000e+000
    outer loop
      vertex  2.150000e+001 -3.000000e+000  4.900000e+001
      vertex  1.875882e+001  7.034074e+000  4.900000e+001
      vertex  1.850000e+001  7.000000e+000  4.900000e+001
    endloop
  endfacet
  facet normal  -0.000000e+000  0.000000e+000  1.000000e+000
    outer loop
      vertex  2.150000e+001  1.300000e+001  4.900000e+001
      vertex  1.850000e+001  9.000000e+000  4.900000e+001
      vertex  1.875882e+001  8.965926e+000  4.900000e+001
    endloop
  endfacet
  facet normal  -0.000000e+000  0.000000e+000  1.000000e+000
    outer loop
      vertex  2.150000e+001  1.300000e+001  4.900000e+001
      vertex  1.875882e+001  8.965926e+000  4.900000e+001
      vertex  1.900000e+001  8.866025e+000  4.900000e+001
    endloop
  endfacet
  facet normal  -0.000000e+000  0.000000e+000  1.000000e+000
    outer loop
      vertex  2.150000e+001  1.300000e+001  4.900000e+001
      vertex  1.900000e+001  8.866025e+000  4.900000e+001
      vertex  1.920711e+001  8.707107e+000  4.900000e+001
    endloop
  endfacet
  facet normal  -0.000000e+000  0.000000e+000  1.000000e+000
    outer loop
      vertex  2.150000e+001  1.300000e+001  4.900000e+001
      vertex  1.920711e+001  8.707107e+000  4.900000e+001
      vertex  1.936603e+001  8.500000e+000  4.900000e+001
    endloop
  endfacet
  facet normal  -0.000000e+000  0.000000e+000  1.000000e+000
    outer loop
      vertex  2.150000e+001  1.300000e+001  4.900000e+001
      vertex  1.936603e+001  8.500000e+000  4.900000e+001
      vertex  1.946593e+001  8.258819e+000  4.900000e+001
    endloop
  endfacet
  facet normal  -0.000000e+000  0.000000e+000  1.000000e+000
    outer loop
      vertex  2.150000e+001  1.300000e+001  4.900000e+001
      vertex  1.946593e+001  8.258819e+000  4.900000e+001
      vertex  2.150000e+001 -3.000000e+000  4.900000e+001
    endloop
  endfacet
  facet normal  1.000000e+000  0.000000e+000  0.000000e+000
    outer loop
      vertex -1.000000e+000  8.500000e+000  4.600000e+001
      vertex -1.000000e+000  8.500000e+000  4.900000e+001
      vertex -1.000000e+000  1.500000e+000  4.600000e+001
    endloop
  endfacet
  facet normal  1.000000e+000  0.000000e+000  0.000000e+000
    outer loop
      vertex -1.000000e+000  1.500000e+000  4.600000e+001
      vertex -1.000000e+000  8.500000e+000  4.900000e+001
      vertex -1.000000e+000  1.500000e+000  4.900000e+001
    endloop
  endfacet
  facet normal  0.000000e+000  1.000000e+000  0.000000e+000
    outer loop
      vertex  1.500000e+001  1.500000e+000  4.600000e+001
      vertex -1.000000e+000  1.500000e+000  4.600000e+001
      vertex  1.500000e+001  1.500000e+000  4.900000e+001
    endloop
  endfacet
  facet normal  0.000000e+000  1.000000e+000  0.000000e+000
    outer loop
      vertex  1.500000e+001  1.500000e+000  4.900000e+001
      vertex -1.000000e+000  1.500000e+000  4.600000e+001
      vertex -1.000000e+000  1.500000e+000  4.900000e+001
    endloop
  endfacet
  facet normal -1.000000e+000  0.000000e+000  0.000000e+000
    outer loop
      vertex  1.500000e+001  1.500000e+000  4.600000e+001
      vertex  1.500000e+001  1.500000e+000  4.900000e+001
      vertex  1.500000e+001  8.500000e+000  4.600000e+001
    endloop
  endfacet
  facet normal -1.000000e+000  0.000000e+000  0.000000e+000
    outer loop
      vertex  1.500000e+001  8.500000e+000  4.600000e+001
      vertex  1.500000e+001  1.500000e+000  4.900000e+001
      vertex  1.500000e+001  8.500000e+000  4.900000e+001
    endloop
  endfacet
  facet normal  0.000000e+000 -1.000000e+000  0.000000e+000
    outer loop
      vertex -1.000000e+000  8.500000e+000  4.600000e+001
      vertex  1.500000e+001  8.500000e+000  4.600000e+001
      vertex -1.000000e+000  8.500000e+000  4.900000e+001
    endloop
  endfacet
  facet normal  0.000000e+000 -1.000000e+000  0.000000e+000
    outer loop
      vertex -1.000000e+000  8.500000e+000  4.900000e+001
      vertex  1.500000e+001  8.500000e+000  4.600000e+001
      vertex  1.500000e+001  8.500000e+000  4.900000e+001
    endloop
  endfacet
  facet normal  1.305246e-001 -9.914451e-001  0.000000e+000
    outer loop
      vertex  1.850000e+001  9.000000e+000  4.600000e+001
      vertex  1.824118e+001  8.965926e+000  4.900000e+001
      vertex  1.824118e+001  8.965926e+000  4.600000e+001
    endloop
  endfacet
  facet normal  3.826867e-001 -9.238781e-001  0.000000e+000
    outer loop
      vertex  1.824118e+001  8.965926e+000  4.600000e+001
      vertex  1.824118e+001  8.965926e+000  4.900000e+001
      vertex  1.800000e+001  8.866025e+000  4.900000e+001
    endloop
  endfacet
  facet normal  3.826867e-001 -9.238781e-001  0.000000e+000
    outer loop
      vertex  1.824118e+001  8.965926e+000  4.600000e+001
      vertex  1.800000e+001  8.866025e+000  4.900000e+001
      vertex  1.800000e+001  8.866025e+000  4.600000e+001
    endloop
  endfacet
  facet normal  6.087594e-001 -7.933548e-001  0.000000e+000
    outer loop
      vertex  1.800000e+001  8.866025e+000  4.600000e+001
      vertex  1.800000e+001  8.866025e+000  4.900000e+001
      vertex  1.779289e+001  8.707107e+000  4.900000e+001
    endloop
  endfacet
  facet normal  6.087594e-001 -7.933548e-001  0.000000e+000
    outer loop
      vertex  1.800000e+001  8.866025e+000  4.600000e+001
      vertex  1.779289e+001  8.707107e+000  4.900000e+001
      vertex  1.779289e+001  8.707107e+000  4.600000e+001
    endloop
  endfacet
  facet normal  7.933536e-001 -6.087612e-001  0.000000e+000
    outer loop
      vertex  1.779289e+001  8.707107e+000  4.600000e+001
      vertex  1.779289e+001  8.707107e+000  4.900000e+001
      vertex  1.763397e+001  8.500000e+000  4.900000e+001
    endloop
  endfacet
  facet normal  7.933536e-001 -6.087612e-001  0.000000e+000
    outer loop
      vertex  1.779289e+001  8.707107e+000  4.600000e+001
      vertex  1.763397e+001  8.500000e+000  4.900000e+001
      vertex  1.763397e+001  8.500000e+000  4.600000e+001
    endloop
  endfacet
  facet normal  9.238814e-001 -3.826792e-001  0.000000e+000
    outer loop
      vertex  1.763397e+001  8.500000e+000  4.600000e+001
      vertex  1.763397e+001  8.500000e+000  4.900000e+001
      vertex  1.753407e+001  8.258819e+000  4.900000e+001
    endloop
  endfacet
  facet normal  9.238814e-001 -3.826792e-001  0.000000e+000
    outer loop
      vertex  1.763397e+001  8.500000e+000  4.600000e+001
      vertex  1.753407e+001  8.258819e+000  4.900000e+001
      vertex  1.753407e+001  8.258819e+000  4.600000e+001
    endloop
  endfacet
  facet normal  9.914445e-001 -1.305287e-001  0.000000e+000
    outer loop
      vertex  1.753407e+001  8.258819e+000  4.600000e+001
      vertex  1.753407e+001  8.258819e+000  4.900000e+001
      vertex  1.750000e+001  8.000000e+000  4.900000e+001
    endloop
  endfacet
  facet normal  9.914445e-001 -1.305287e-001  0.000000e+000
    outer loop
      vertex  1.753407e+001  8.258819e+000  4.600000e+001
      vertex  1.750000e+001  8.000000e+000  4.900000e+001
      vertex  1.750000e+001  8.000000e+000  4.600000e+001
    endloop
  endfacet
  facet normal  1.305246e-001 -9.914451e-001  0.000000e+000
    outer loop
      vertex  1.824118e+001  8.965926e+000  4.900000e+001
      vertex  1.850000e+001  9.000000e+000  4.600000e+001
      vertex  1.850000e+001  9.000000e+000  4.900000e+001
    endloop
  endfacet
  facet normal -1.305246e-001 -9.914451e-001  -0.000000e+000
    outer loop
      vertex  1.850000e+001  9.000000e+000  4.900000e+001
      vertex  1.850000e+001  9.000000e+000  4.600000e+001
      vertex  1.875882e+001  8.965926e+000  4.600000e+001
    endloop
  endfacet
  facet normal -1.305246e-001 -9.914451e-001  0.000000e+000
    outer loop
      vertex  1.850000e+001  9.000000e+000  4.900000e+001
      vertex  1.875882e+001  8.965926e+000  4.600000e+001
      vertex  1.875882e+001  8.965926e+000  4.900000e+001
    endloop
  endfacet
  facet normal -3.826867e-001 -9.238781e-001  -0.000000e+000
    outer loop
      vertex  1.875882e+001  8.965926e+000  4.900000e+001
      vertex  1.875882e+001  8.965926e+000  4.600000e+001
      vertex  1.900000e+001  8.866025e+000  4.600000e+001
    endloop
  endfacet
  facet normal -3.826867e-001 -9.238781e-001  0.000000e+000
    outer loop
      vertex  1.875882e+001  8.965926e+000  4.900000e+001
      vertex  1.900000e+001  8.866025e+000  4.600000e+001
      vertex  1.900000e+001  8.866025e+000  4.900000e+001
    endloop
  endfacet
  facet normal -6.087594e-001 -7.933548e-001  -0.000000e+000
    outer loop
      vertex  1.900000e+001  8.866025e+000  4.900000e+001
      vertex  1.900000e+001  8.866025e+000  4.600000e+001
      vertex  1.920711e+001  8.707107e+000  4.600000e+001
    endloop
  endfacet
  facet normal -6.087594e-001 -7.933548e-001  0.000000e+000
    outer loop
      vertex  1.900000e+001  8.866025e+000  4.900000e+001
      vertex  1.920711e+001  8.707107e+000  4.600000e+001
      vertex  1.920711e+001  8.707107e+000  4.900000e+001
    endloop
  endfacet
  facet normal -7.933536e-001 -6.087612e-001  -0.000000e+000
    outer loop
      vertex  1.920711e+001  8.707107e+000  4.900000e+001
      vertex  1.920711e+001  8.707107e+000  4.600000e+001
      vertex  1.936603e+001  8.500000e+000  4.600000e+001
    endloop
  endfacet
  facet normal -7.933536e-001 -6.087612e-001  0.000000e+000
    outer loop
      vertex  1.920711e+001  8.707107e+000  4.900000e+001
      vertex  1.936603e+001  8.500000e+000  4.600000e+001
      vertex  1.936603e+001  8.500000e+000  4.900000e+001
    endloop
  endfacet
  facet normal -9.238814e-001 -3.826792e-001  -0.000000e+000
    outer loop
      vertex  1.936603e+001  8.500000e+000  4.900000e+001
      vertex  1.936603e+001  8.500000e+000  4.600000e+001
      vertex  1.946593e+001  8.258819e+000  4.600000e+001
    endloop
  endfacet
  facet normal -9.238814e-001 -3.826792e-001  0.000000e+000
    outer loop
      vertex  1.936603e+001  8.500000e+000  4.900000e+001
      vertex  1.946593e+001  8.258819e+000  4.600000e+001
      vertex  1.946593e+001  8.258819e+000  4.900000e+001
    endloop
  endfacet
  facet normal -9.914445e-001 -1.305287e-001  -0.000000e+000
    outer loop
      vertex  1.946593e+001  8.258819e+000  4.900000e+001
      vertex  1.946593e+001  8.258819e+000  4.600000e+001
      vertex  1.950000e+001  8.000000e+000  4.600000e+001
    endloop
  endfacet
  facet normal -9.914445e-001 -1.305287e-001  0.000000e+000
    outer loop
      vertex  1.946593e+001  8.258819e+000  4.900000e+001
      vertex  1.950000e+001  8.000000e+000  4.600000e+001
      vertex  1.950000e+001  8.000000e+000  4.900000e+001
    endloop
  endfacet
  facet normal -1.305264e-001  9.914448e-001  0.000000e+000
    outer loop
      vertex  1.850000e+001  7.000000e+000  4.600000e+001
      vertex  1.875882e+001  7.034074e+000  4.900000e+001
      vertex  1.875882e+001  7.034074e+000  4.600000e+001
    endloop
  endfacet
  facet normal -3.826836e-001  9.238794e-001  0.000000e+000
    outer loop
      vertex  1.875882e+001  7.034074e+000  4.600000e+001
      vertex  1.875882e+001  7.034074e+000  4.900000e+001
      vertex  1.900000e+001  7.133975e+000  4.900000e+001
    endloop
  endfacet
  facet normal -3.826836e-001  9.238794e-001  0.000000e+000
    outer loop
      vertex  1.875882e+001  7.034074e+000  4.600000e+001
      vertex  1.900000e+001  7.133975e+000  4.900000e+001
      vertex  1.900000e+001  7.133975e+000  4.600000e+001
    endloop
  endfacet
  facet normal -6.087606e-001  7.933540e-001  0.000000e+000
    outer loop
      vertex  1.900000e+001  7.133975e+000  4.600000e+001
      vertex  1.900000e+001  7.133975e+000  4.900000e+001
      vertex  1.920711e+001  7.292893e+000  4.900000e+001
    endloop
  endfacet
  facet normal -6.087606e-001  7.933540e-001  0.000000e+000
    outer loop
      vertex  1.900000e+001  7.133975e+000  4.600000e+001
      vertex  1.920711e+001  7.292893e+000  4.900000e+001
      vertex  1.920711e+001  7.292893e+000  4.600000e+001
    endloop
  endfacet
  facet normal -7.933536e-001  6.087612e-001  0.000000e+000
    outer loop
      vertex  1.920711e+001  7.292893e+000  4.600000e+001
      vertex  1.920711e+001  7.292893e+000  4.900000e+001
      vertex  1.936603e+001  7.500000e+000  4.900000e+001
    endloop
  endfacet
  facet normal -7.933536e-001  6.087612e-001  0.000000e+000
    outer loop
      vertex  1.920711e+001  7.292893e+000  4.600000e+001
      vertex  1.936603e+001  7.500000e+000  4.900000e+001
      vertex  1.936603e+001  7.500000e+000  4.600000e+001
    endloop
  endfacet
  facet normal -9.238810e-001  3.826798e-001  0.000000e+000
    outer loop
      vertex  1.936603e+001  7.500000e+000  4.600000e+001
      vertex  1.936603e+001  7.500000e+000  4.900000e+001
      vertex  1.946593e+001  7.741181e+000  4.900000e+001
    endloop
  endfacet
  facet normal -9.238810e-001  3.826798e-001  0.000000e+000
    outer loop
      vertex  1.936603e+001  7.500000e+000  4.600000e+001
      vertex  1.946593e+001  7.741181e+000  4.900000e+001
      vertex  1.946593e+001  7.741181e+000  4.600000e+001
    endloop
  endfacet
  facet normal -9.914445e-001  1.305285e-001  0.000000e+000
    outer loop
      vertex  1.946593e+001  7.741181e+000  4.600000e+001
      vertex  1.946593e+001  7.741181e+000  4.900000e+001
      vertex  1.950000e+001  8.000000e+000  4.900000e+001
    endloop
  endfacet
  facet normal -9.914445e-001  1.305285e-001  0.000000e+000
    outer loop
      vertex  1.946593e+001  7.741181e+000  4.600000e+001
      vertex  1.950000e+001  8.000000e+000  4.900000e+001
      vertex  1.950000e+001  8.000000e+000  4.600000e+001
    endloop
  endfacet
  facet normal -1.305264e-001  9.914448e-001  0.000000e+000
    outer loop
      vertex  1.875882e+001  7.034074e+000  4.900000e+001
      vertex  1.850000e+001  7.000000e+000  4.600000e+001
      vertex  1.850000e+001  7.000000e+000  4.900000e+001
    endloop
  endfacet
  facet normal  1.305264e-001  9.914448e-001  0.000000e+000
    outer loop
      vertex  1.850000e+001  7.000000e+000  4.900000e+001
      vertex  1.850000e+001  7.000000e+000  4.600000e+001
      vertex  1.824118e+001  7.034074e+000  4.600000e+001
    endloop
  endfacet
  facet normal  1.305264e-001  9.914448e-001  -0.000000e+000
    outer loop
      vertex  1.850000e+001  7.000000e+000  4.900000e+001
      vertex  1.824118e+001  7.034074e+000  4.600000e+001
      vertex  1.824118e+001  7.034074e+000  4.900000e+001
    endloop
  endfacet
  facet normal  3.826836e-001  9.238794e-001  0.000000e+000
    outer loop
      vertex  1.824118e+001  7.034074e+000  4.900000e+001
      vertex  1.824118e+001  7.034074e+000  4.600000e+001
      vertex  1.800000e+001  7.133975e+000  4.600000e+001
    endloop
  endfacet
  facet normal  3.826836e-001  9.238794e-001  -0.000000e+000
    outer loop
      vertex  1.824118e+001  7.034074e+000  4.900000e+001
      vertex  1.800000e+001  7.133975e+000  4.600000e+001
      vertex  1.800000e+001  7.133975e+000  4.900000e+001
    endloop
  endfacet
  facet normal  6.087606e-001  7.933540e-001  0.000000e+000
    outer loop
      vertex  1.800000e+001  7.133975e+000  4.900000e+001
      vertex  1.800000e+001  7.133975e+000  4.600000e+001
      vertex  1.779289e+001  7.292893e+000  4.600000e+001
    endloop
  endfacet
  facet normal  6.087606e-001  7.933540e-001  -0.000000e+000
    outer loop
      vertex  1.800000e+001  7.133975e+000  4.900000e+001
      vertex  1.779289e+001  7.292893e+000  4.600000e+001
      vertex  1.779289e+001  7.292893e+000  4.900000e+001
    endloop
  endfacet
  facet normal  7.933536e-001  6.087612e-001  0.000000e+000
    outer loop
      vertex  1.779289e+001  7.292893e+000  4.900000e+001
      vertex  1.779289e+001  7.292893e+000  4.600000e+001
      vertex  1.763397e+001  7.500000e+000  4.600000e+001
    endloop
  endfacet
  facet normal  7.933536e-001  6.087612e-001  -0.000000e+000
    outer loop
      vertex  1.779289e+001  7.292893e+000  4.900000e+001
      vertex  1.763397e+001  7.500000e+000  4.600000e+001
      vertex  1.763397e+001  7.500000e+000  4.900000e+001
    endloop
  endfacet
  facet normal  9.238810e-001  3.826798e-001  0.000000e+000
    outer loop
      vertex  1.763397e+001  7.500000e+000  4.900000e+001
      vertex  1.763397e+001  7.500000e+000  4.600000e+001
      vertex  1.753407e+001  7.741181e+000  4.600000e+001
    endloop
  endfacet
  facet normal  9.238810e-001  3.826798e-001  -0.000000e+000
    outer loop
      vertex  1.763397e+001  7.500000e+000  4.900000e+001
      vertex  1.753407e+001  7.741181e+000  4.600000e+001
      vertex  1.753407e+001  7.741181e+000  4.900000e+001
    endloop
  endfacet
  facet normal  9.914445e-001  1.305285e-001  0.000000e+000
    outer loop
      vertex  1.753407e+001  7.741181e+000  4.900000e+001
      vertex  1.753407e+001  7.741181e+000  4.600000e+001
      vertex  1.750000e+001  8.000000e+000  4.600000e+001
    endloop
  endfacet
  facet normal  9.914445e-001  1.305285e-001  -0.000000e+000
    outer loop
      vertex  1.753407e+001  7.741181e+000  4.900000e+001
      vertex  1.750000e+001  8.000000e+000  4.600000e+001
      vertex  1.750000e+001  8.000000e+000  4.900000e+001
    endloop
  endfacet
  facet normal  1.305249e-001 -9.914451e-001  0.000000e+000
    outer loop
      vertex -4.500000e+000  9.000000e+000  4.600000e+001
      vertex -4.758819e+000  8.965926e+000  4.900000e+001
      vertex -4.758819e+000  8.965926e+000  4.600000e+001
    endloop
  endfacet
  facet normal  3.826860e-001 -9.238784e-001  0.000000e+000
    outer loop
      vertex -4.758819e+000  8.965926e+000  4.600000e+001
      vertex -4.758819e+000  8.965926e+000  4.900000e+001
      vertex -5.000000e+000  8.866025e+000  4.900000e+001
    endloop
  endfacet
  facet normal  3.826860e-001 -9.238784e-001  0.000000e+000
    outer loop
      vertex -4.758819e+000  8.965926e+000  4.600000e+001
      vertex -5.000000e+000  8.866025e+000  4.900000e+001
      vertex -5.000000e+000  8.866025e+000  4.600000e+001
    endloop
  endfacet
  facet normal  6.087612e-001 -7.933536e-001  0.000000e+000
    outer loop
      vertex -5.000000e+000  8.866025e+000  4.600000e+001
      vertex -5.000000e+000  8.866025e+000  4.900000e+001
      vertex -5.207107e+000  8.707107e+000  4.900000e+001
    endloop
  endfacet
  facet normal  6.087612e-001 -7.933536e-001  0.000000e+000
    outer loop
      vertex -5.000000e+000  8.866025e+000  4.600000e+001
      vertex -5.207107e+000  8.707107e+000  4.900000e+001
      vertex -5.207107e+000  8.707107e+000  4.600000e+001
    endloop
  endfacet
  facet normal  7.933527e-001 -6.087624e-001  0.000000e+000
    outer loop
      vertex -5.207107e+000  8.707107e+000  4.600000e+001
      vertex -5.207107e+000  8.707107e+000  4.900000e+001
      vertex -5.366025e+000  8.500000e+000  4.900000e+001
    endloop
  endfacet
  facet normal  7.933527e-001 -6.087624e-001  0.000000e+000
    outer loop
      vertex -5.207107e+000  8.707107e+000  4.600000e+001
      vertex -5.366025e+000  8.500000e+000  4.900000e+001
      vertex -5.366025e+000  8.500000e+000  4.600000e+001
    endloop
  endfacet
  facet normal  9.238800e-001 -3.826823e-001  0.000000e+000
    outer loop
      vertex -5.366025e+000  8.500000e+000  4.600000e+001
      vertex -5.366025e+000  8.500000e+000  4.900000e+001
      vertex -5.465926e+000  8.258819e+000  4.900000e+001
    endloop
  endfacet
  facet normal  9.238800e-001 -3.826823e-001  0.000000e+000
    outer loop
      vertex -5.366025e+000  8.500000e+000  4.600000e+001
      vertex -5.465926e+000  8.258819e+000  4.900000e+001
      vertex -5.465926e+000  8.258819e+000  4.600000e+001
    endloop
  endfacet
  facet normal  9.914447e-001 -1.305269e-001  0.000000e+000
    outer loop
      vertex -5.465926e+000  8.258819e+000  4.600000e+001
      vertex -5.465926e+000  8.258819e+000  4.900000e+001
      vertex -5.500000e+000  8.000000e+000  4.900000e+001
    endloop
  endfacet
  facet normal  9.914447e-001 -1.305269e-001  0.000000e+000
    outer loop
      vertex -5.465926e+000  8.258819e+000  4.600000e+001
      vertex -5.500000e+000  8.000000e+000  4.900000e+001
      vertex -5.500000e+000  8.000000e+000  4.600000e+001
    endloop
  endfacet
  facet normal  1.305249e-001 -9.914451e-001  0.000000e+000
    outer loop
      vertex -4.758819e+000  8.965926e+000  4.900000e+001
      vertex -4.500000e+000  9.000000e+000  4.600000e+001
      vertex -4.500000e+000  9.000000e+000  4.900000e+001
    endloop
  endfacet
  facet normal -1.305249e-001 -9.914451e-001  -0.000000e+000
    outer loop
      vertex -4.500000e+000  9.000000e+000  4.900000e+001
      vertex -4.500000e+000  9.000000e+000  4.600000e+001
      vertex -4.241181e+000  8.965926e+000  4.600000e+001
    endloop
  endfacet
  facet normal -1.305249e-001 -9.914451e-001  0.000000e+000
    outer loop
      vertex -4.500000e+000  9.000000e+000  4.900000e+001
      vertex -4.241181e+000  8.965926e+000  4.600000e+001
      vertex -4.241181e+000  8.965926e+000  4.900000e+001
    endloop
  endfacet
  facet normal -3.826860e-001 -9.238784e-001  -0.000000e+000
    outer loop
      vertex -4.241181e+000  8.965926e+000  4.900000e+001
      vertex -4.241181e+000  8.965926e+000  4.600000e+001
      vertex -4.000000e+000  8.866025e+000  4.600000e+001
    endloop
  endfacet
  facet normal -3.826860e-001 -9.238784e-001  0.000000e+000
    outer loop
      vertex -4.241181e+000  8.965926e+000  4.900000e+001
      vertex -4.000000e+000  8.866025e+000  4.600000e+001
      vertex -4.000000e+000  8.866025e+000  4.900000e+001
    endloop
  endfacet
  facet normal -6.087608e-001 -7.933539e-001  -0.000000e+000
    outer loop
      vertex -4.000000e+000  8.866025e+000  4.900000e+001
      vertex -4.000000e+000  8.866025e+000  4.600000e+001
      vertex -3.792893e+000  8.707107e+000  4.600000e+001
    endloop
  endfacet
  facet normal -6.087608e-001 -7.933539e-001  0.000000e+000
    outer loop
      vertex -4.000000e+000  8.866025e+000  4.900000e+001
      vertex -3.792893e+000  8.707107e+000  4.600000e+001
      vertex -3.792893e+000  8.707107e+000  4.900000e+001
    endloop
  endfacet
  facet normal -7.933531e-001 -6.087618e-001  -0.000000e+000
    outer loop
      vertex -3.792893e+000  8.707107e+000  4.900000e+001
      vertex -3.792893e+000  8.707107e+000  4.600000e+001
      vertex -3.633975e+000  8.500000e+000  4.600000e+001
    endloop
  endfacet
  facet normal -7.933531e-001 -6.087618e-001  0.000000e+000
    outer loop
      vertex -3.792893e+000  8.707107e+000  4.900000e+001
      vertex -3.633975e+000  8.500000e+000  4.600000e+001
      vertex -3.633975e+000  8.500000e+000  4.900000e+001
    endloop
  endfacet
  facet normal -9.238797e-001 -3.826831e-001  -0.000000e+000
    outer loop
      vertex -3.633975e+000  8.500000e+000  4.900000e+001
      vertex -3.633975e+000  8.500000e+000  4.600000e+001
      vertex -3.534074e+000  8.258819e+000  4.600000e+001
    endloop
  endfacet
  facet normal -9.238797e-001 -3.826831e-001  0.000000e+000
    outer loop
      vertex -3.633975e+000  8.500000e+000  4.900000e+001
      vertex -3.534074e+000  8.258819e+000  4.600000e+001
      vertex -3.534074e+000  8.258819e+000  4.900000e+001
    endloop
  endfacet
  facet normal -9.914449e-001 -1.305260e-001  -0.000000e+000
    outer loop
      vertex -3.534074e+000  8.258819e+000  4.900000e+001
      vertex -3.534074e+000  8.258819e+000  4.600000e+001
      vertex -3.500000e+000  8.000000e+000  4.600000e+001
    endloop
  endfacet
  facet normal -9.914449e-001 -1.305260e-001  0.000000e+000
    outer loop
      vertex -3.534074e+000  8.258819e+000  4.900000e+001
      vertex -3.500000e+000  8.000000e+000  4.600000e+001
      vertex -3.500000e+000  8.000000e+000  4.900000e+001
    endloop
  endfacet
  facet normal -1.305267e-001  9.914448e-001  0.000000e+000
    outer loop
      vertex -4.500000e+000  7.000000e+000  4.600000e+001
      vertex -4.241181e+000  7.034074e+000  4.900000e+001
      vertex -4.241181e+000  7.034074e+000  4.600000e+001
    endloop
  endfacet
  facet normal -3.826829e-001  9.238798e-001  0.000000e+000
    outer loop
      vertex -4.241181e+000  7.034074e+000  4.600000e+001
      vertex -4.241181e+000  7.034074e+000  4.900000e+001
      vertex -4.000000e+000  7.133975e+000  4.900000e+001
    endloop
  endfacet
  facet normal -3.826829e-001  9.238798e-001  0.000000e+000
    outer loop
      vertex -4.241181e+000  7.034074e+000  4.600000e+001
      vertex -4.000000e+000  7.133975e+000  4.900000e+001
      vertex -4.000000e+000  7.133975e+000  4.600000e+001
    endloop
  endfacet
  facet normal -6.087619e-001  7.933530e-001  0.000000e+000
    outer loop
      vertex -4.000000e+000  7.133975e+000  4.600000e+001
      vertex -4.000000e+000  7.133975e+000  4.900000e+001
      vertex -3.792893e+000  7.292893e+000  4.900000e+001
    endloop
  endfacet
  facet normal -6.087619e-001  7.933530e-001  0.000000e+000
    outer loop
      vertex -4.000000e+000  7.133975e+000  4.600000e+001
      vertex -3.792893e+000  7.292893e+000  4.900000e+001
      vertex -3.792893e+000  7.292893e+000  4.600000e+001
    endloop
  endfacet
  facet normal -7.933531e-001  6.087618e-001  0.000000e+000
    outer loop
      vertex -3.792893e+000  7.292893e+000  4.600000e+001
      vertex -3.792893e+000  7.292893e+000  4.900000e+001
      vertex -3.633975e+000  7.500000e+000  4.900000e+001
    endloop
  endfacet
  facet normal -7.933531e-001  6.087618e-001  0.000000e+000
    outer loop
      vertex -3.792893e+000  7.292893e+000  4.600000e+001
      vertex -3.633975e+000  7.500000e+000  4.900000e+001
      vertex -3.633975e+000  7.500000e+000  4.600000e+001
    endloop
  endfacet
  facet normal -9.238794e-001  3.826837e-001  0.000000e+000
    outer loop
      vertex -3.633975e+000  7.500000e+000  4.600000e+001
      vertex -3.633975e+000  7.500000e+000  4.900000e+001
      vertex -3.534074e+000  7.741181e+000  4.900000e+001
    endloop
  endfacet
  facet normal -9.238794e-001  3.826837e-001  0.000000e+000
    outer loop
      vertex -3.633975e+000  7.500000e+000  4.600000e+001
      vertex -3.534074e+000  7.741181e+000  4.900000e+001
      vertex -3.534074e+000  7.741181e+000  4.600000e+001
    endloop
  endfacet
  facet normal -9.914449e-001  1.305258e-001  0.000000e+000
    outer loop
      vertex -3.534074e+000  7.741181e+000  4.600000e+001
      vertex -3.534074e+000  7.741181e+000  4.900000e+001
      vertex -3.500000e+000  8.000000e+000  4.900000e+001
    endloop
  endfacet
  facet normal -9.914449e-001  1.305258e-001  0.000000e+000
    outer loop
      vertex -3.534074e+000  7.741181e+000  4.600000e+001
      vertex -3.500000e+000  8.000000e+000  4.900000e+001
      vertex -3.500000e+000  8.000000e+000  4.600000e+001
    endloop
  endfacet
  facet normal -1.305267e-001  9.914448e-001  0.000000e+000
    outer loop
      vertex -4.241181e+000  7.034074e+000  4.900000e+001
      vertex -4.500000e+000  7.000000e+000  4.600000e+001
      vertex -4.500000e+000  7.000000e+000  4.900000e+001
    endloop
  endfacet
  facet normal  1.305267e-001  9.914448e-001  0.000000e+000
    outer loop
      vertex -4.500000e+000  7.000000e+000  4.900000e+001
      vertex -4.500000e+000  7.000000e+000  4.600000e+001
      vertex -4.758819e+000  7.034074e+000  4.600000e+001
    endloop
  endfacet
  facet normal  1.305267e-001  9.914448e-001  -0.000000e+000
    outer loop
      vertex -4.500000e+000  7.000000e+000  4.900000e+001
      vertex -4.758819e+000  7.034074e+000  4.600000e+001
      vertex -4.758819e+000  7.034074e+000  4.900000e+001
    endloop
  endfacet
  facet normal  3.826829e-001  9.238798e-001  0.000000e+000
    outer loop
      vertex -4.758819e+000  7.034074e+000  4.900000e+001
      vertex -4.758819e+000  7.034074e+000  4.600000e+001
      vertex -5.000000e+000  7.133975e+000  4.600000e+001
    endloop
  endfacet
  facet normal  3.826829e-001  9.238798e-001  -0.000000e+000
    outer loop
      vertex -4.758819e+000  7.034074e+000  4.900000e+001
      vertex -5.000000e+000  7.133975e+000  4.600000e+001
      vertex -5.000000e+000  7.133975e+000  4.900000e+001
    endloop
  endfacet
  facet normal  6.087624e-001  7.933527e-001  0.000000e+000
    outer loop
      vertex -5.000000e+000  7.133975e+000  4.900000e+001
      vertex -5.000000e+000  7.133975e+000  4.600000e+001
      vertex -5.207107e+000  7.292893e+000  4.600000e+001
    endloop
  endfacet
  facet normal  6.087624e-001  7.933527e-001  -0.000000e+000
    outer loop
      vertex -5.000000e+000  7.133975e+000  4.900000e+001
      vertex -5.207107e+000  7.292893e+000  4.600000e+001
      vertex -5.207107e+000  7.292893e+000  4.900000e+001
    endloop
  endfacet
  facet normal  7.933527e-001  6.087624e-001  0.000000e+000
    outer loop
      vertex -5.207107e+000  7.292893e+000  4.900000e+001
      vertex -5.207107e+000  7.292893e+000  4.600000e+001
      vertex -5.366025e+000  7.500000e+000  4.600000e+001
    endloop
  endfacet
  facet normal  7.933527e-001  6.087624e-001  -0.000000e+000
    outer loop
      vertex -5.207107e+000  7.292893e+000  4.900000e+001
      vertex -5.366025e+000  7.500000e+000  4.600000e+001
      vertex -5.366025e+000  7.500000e+000  4.900000e+001
    endloop
  endfacet
  facet normal  9.238798e-001  3.826829e-001  0.000000e+000
    outer loop
      vertex -5.366025e+000  7.500000e+000  4.900000e+001
      vertex -5.366025e+000  7.500000e+000  4.600000e+001
      vertex -5.465926e+000  7.741181e+000  4.600000e+001
    endloop
  endfacet
  facet normal  9.238798e-001  3.826829e-001  -0.000000e+000
    outer loop
      vertex -5.366025e+000  7.500000e+000  4.900000e+001
      vertex -5.465926e+000  7.741181e+000  4.600000e+001
      vertex -5.465926e+000  7.741181e+000  4.900000e+001
    endloop
  endfacet
  facet normal  9.914448e-001  1.305267e-001  0.000000e+000
    outer loop
      vertex -5.465926e+000  7.741181e+000  4.900000e+001
      vertex -5.465926e+000  7.741181e+000  4.600000e+001
      vertex -5.500000e+000  8.000000e+000  4.600000e+001
    endloop
  endfacet
  facet normal  9.914448e-001  1.305267e-001  -0.000000e+000
    outer loop
      vertex -5.465926e+000  7.741181e+000  4.900000e+001
      vertex -5.500000e+000  8.000000e+000  4.600000e+001
      vertex -5.500000e+000  8.000000e+000  4.900000e+001
    endloop
  endfacet
  facet normal  -0.000000e+000  0.000000e+000 -1.000000e+000
    outer loop
      vertex -7.500000e+000  1.300000e+001  0.000000e+000
      vertex -6.000000e+000 -2.265597e-015  0.000000e+000
      vertex -7.500000e+000 -3.000000e+000  0.000000e+000
    endloop
  endfacet
  facet normal  0.000000e+000  0.000000e+000 -1.000000e+000
    outer loop
      vertex -7.500000e+000 -3.000000e+000  0.000000e+000
      vertex -6.000000e+000 -2.265597e-015  0.000000e+000
      vertex  2.000000e+001 -3.552714e-015  0.000000e+000
    endloop
  endfacet
  facet normal  0.000000e+000  -0.000000e+000 -1.000000e+000
    outer loop
      vertex -7.500000e+000 -3.000000e+000  0.000000e+000
      vertex  2.000000e+001 -3.552714e-015  0.000000e+000
      vertex  2.150000e+001 -3.000000e+000  0.000000e+000
    endloop
  endfacet
  facet normal  0.000000e+000  0.000000e+000 -1.000000e+000
    outer loop
      vertex -6.000000e+000 -2.265597e-015  0.000000e+000
      vertex -7.500000e+000  1.300000e+001  0.000000e+000
      vertex -6.000000e+000  1.000000e+001  0.000000e+000
    endloop
  endfacet
  facet normal  0.000000e+000  0.000000e+000 -1.000000e+000
    outer loop
      vertex -6.000000e+000  1.000000e+001  0.000000e+000
      vertex -7.500000e+000  1.300000e+001  0.000000e+000
      vertex  2.150000e+001  1.300000e+001  0.000000e+000
    endloop
  endfacet
  facet normal  0.000000e+000  0.000000e+000 -1.000000e+000
    outer loop
      vertex -6.000000e+000  1.000000e+001  0.000000e+000
      vertex  2.150000e+001  1.300000e+001  0.000000e+000
      vertex  2.000000e+001  1.000000e+001  0.000000e+000
    endloop
  endfacet
  facet normal  0.000000e+000  0.000000e+000 -1.000000e+000
    outer loop
      vertex  2.000000e+001  1.000000e+001  0.000000e+000
      vertex  2.150000e+001  1.300000e+001  0.000000e+000
      vertex  2.150000e+001 -3.000000e+000  0.000000e+000
    endloop
  endfacet
  facet normal  0.000000e+000  0.000000e+000 -1.000000e+000
    outer loop
      vertex  2.000000e+001  1.000000e+001  0.000000e+000
      vertex  2.150000e+001 -3.000000e+000  0.000000e+000
      vertex  2.000000e+001 -3.552714e-015  0.000000e+000
    endloop
  endfacet
  facet normal  0.000000e+000 -1.000000e+000  0.000000e+000
    outer loop
      vertex -6.000000e+000  1.000000e+001  0.000000e+000
      vertex  2.000000e+001  1.000000e+001  0.000000e+000
      vertex -6.000000e+000  1.000000e+001  4.600000e+001
    endloop
  endfacet
  facet normal  0.000000e+000 -1.000000e+000  0.000000e+000
    outer loop
      vertex -6.000000e+000  1.000000e+001  4.600000e+001
      vertex  2.000000e+001  1.000000e+001  0.000000e+000
      vertex  2.000000e+001  1.000000e+001  4.600000e+001
    endloop
  endfacet
  facet normal -9.999999e-001  0.000000e+000  -0.000000e+000
    outer loop
      vertex  2.000000e+001 -3.552714e-015  0.000000e+000
      vertex  2.000000e+001 -2.265597e-015  4.600000e+001
      vertex  2.000000e+001  1.000000e+001  0.000000e+000
    endloop
  endfacet
  facet normal -9.999999e-001  0.000000e+000  0.000000e+000
    outer loop
      vertex  2.000000e+001  1.000000e+001  0.000000e+000
      vertex  2.000000e+001 -2.265597e-015  4.600000e+001
      vertex  2.000000e+001  1.000000e+001  4.600000e+001
    endloop
  endfacet
  facet normal  4.950451e-017  1.000000e+000 -2.798081e-017
    outer loop
      vertex  2.000000e+001 -3.552714e-015  0.000000e+000
      vertex -6.000000e+000 -2.265597e-015  0.000000e+000
      vertex  2.000000e+001 -2.265597e-015  4.600000e+001
    endloop
  endfacet
  facet normal -4.950451e-017  1.000000e+000  2.798081e-017
    outer loop
      vertex  2.000000e+001 -2.265597e-015  4.600000e+001
      vertex -6.000000e+000 -2.265597e-015  0.000000e+000
      vertex -6.000000e+000 -3.552714e-015  4.600000e+001
    endloop
  endfacet
  facet normal  9.999999e-001  0.000000e+000  0.000000e+000
    outer loop
      vertex -6.000000e+000  1.000000e+001  0.000000e+000
      vertex -6.000000e+000  1.000000e+001  4.600000e+001
      vertex -6.000000e+000 -2.265597e-015  0.000000e+000
    endloop
  endfacet
  facet normal  9.999999e-001  0.000000e+000  -0.000000e+000
    outer loop
      vertex -6.000000e+000 -2.265597e-015  0.000000e+000
      vertex -6.000000e+000  1.000000e+001  4.600000e+001
      vertex -6.000000e+000 -3.552714e-015  4.600000e+001
    endloop
  endfacet
  facet normal  0.000000e+000 -1.000000e+000  -0.000000e+000
    outer loop
      vertex  2.150000e+001 -3.000000e+000  0.000000e+000
      vertex  2.150000e+001 -3.000000e+000  4.900000e+001
      vertex -7.500000e+000 -3.000000e+000  0.000000e+000
    endloop
  endfacet
  facet normal  0.000000e+000 -1.000000e+000  0.000000e+000
    outer loop
      vertex -7.500000e+000 -3.000000e+000  0.000000e+000
      vertex  2.150000e+001 -3.000000e+000  4.900000e+001
      vertex -7.500000e+000 -3.000000e+000  4.900000e+001
    endloop
  endfacet
  facet normal -1.000000e+000  0.000000e+000  0.000000e+000
    outer loop
      vertex -7.500000e+000 -3.000000e+000  0.000000e+000
      vertex -7.500000e+000 -3.000000e+000  4.900000e+001
      vertex -7.500000e+000  1.300000e+001  0.000000e+000
    endloop
  endfacet
  facet normal -1.000000e+000  0.000000e+000  0.000000e+000
    outer loop
      vertex -7.500000e+000  1.300000e+001  0.000000e+000
      vertex -7.500000e+000 -3.000000e+000  4.900000e+001
      vertex -7.500000e+000  1.300000e+001  4.900000e+001
    endloop
  endfacet
  facet normal  0.000000e+000  1.000000e+000  0.000000e+000
    outer loop
      vertex  2.150000e+001  1.300000e+001  0.000000e+000
      vertex -7.500000e+000  1.300000e+001  0.000000e+000
      vertex  2.150000e+001  1.300000e+001  4.900000e+001
    endloop
  endfacet
  facet normal  0.000000e+000  1.000000e+000  0.000000e+000
    outer loop
      vertex  2.150000e+001  1.300000e+001  4.900000e+001
      vertex -7.500000e+000  1.300000e+001  0.000000e+000
      vertex -7.500000e+000  1.300000e+001  4.900000e+001
    endloop
  endfacet
  facet normal  1.000000e+000  0.000000e+000  0.000000e+000
    outer loop
      vertex  2.150000e+001 -3.000000e+000  0.000000e+000
      vertex  2.150000e+001  1.300000e+001  0.000000e+000
      vertex  2.150000e+001 -3.000000e+000  4.900000e+001
    endloop
  endfacet
  facet normal  1.000000e+000  -0.000000e+000  0.000000e+000
    outer loop
      vertex  2.150000e+001 -3.000000e+000  4.900000e+001
      vertex  2.150000e+001  1.300000e+001  0.000000e+000
      vertex  2.150000e+001  1.300000e+001  4.900000e+001
    endloop
  endfacet
endsolid CATIA STL
