solid CATIA STL
  facet normal  0.000000e+000  -0.000000e+000  1.000000e+000
    outer loop
      vertex -6.909362e+000  1.122818e+000  6.500000e+000
      vertex -5.164004e+000  9.463390e-001  6.500000e+000
      vertex -5.012285e+000  1.561891e+000  6.500000e+000
    endloop
  endfacet
  facet normal  0.000000e+000  0.000000e+000  1.000000e+000
    outer loop
      vertex  6.700000e+000  2.075040e+000  6.500000e+000
      vertex  4.353553e+000  4.353553e+000  6.500000e+000
      vertex  3.353553e+000  4.353553e+000  6.500000e+000
    endloop
  endfacet
  facet normal  0.000000e+000  0.000000e+000  1.000000e+000
    outer loop
      vertex  6.700000e+000  2.075040e+000  6.500000e+000
      vertex  3.353553e+000  4.353553e+000  6.500000e+000
      vertex  3.712311e+000  3.712311e+000  6.500000e+000
    endloop
  endfacet
  facet normal  0.000000e+000  0.000000e+000  1.000000e+000
    outer loop
      vertex  6.700000e+000  2.075040e+000  6.500000e+000
      vertex  3.712311e+000  3.712311e+000  6.500000e+000
      vertex  4.132713e+000  3.237774e+000  6.500000e+000
    endloop
  endfacet
  facet normal  0.000000e+000  0.000000e+000  1.000000e+000
    outer loop
      vertex  6.700000e+000  2.075040e+000  6.500000e+000
      vertex  4.132713e+000  3.237774e+000  6.500000e+000
      vertex  4.492852e+000  2.716023e+000  6.500000e+000
    endloop
  endfacet
  facet normal  0.000000e+000  0.000000e+000  1.000000e+000
    outer loop
      vertex  6.700000e+000  2.075040e+000  6.500000e+000
      vertex  4.492852e+000  2.716023e+000  6.500000e+000
      vertex  4.787474e+000  2.154667e+000  6.500000e+000
    endloop
  endfacet
  facet normal  0.000000e+000  0.000000e+000  1.000000e+000
    outer loop
      vertex  6.700000e+000  2.075040e+000  6.500000e+000
      vertex  4.787474e+000  2.154667e+000  6.500000e+000
      vertex  5.012285e+000  1.561891e+000  6.500000e+000
    endloop
  endfacet
  facet normal  0.000000e+000  0.000000e+000  9.999999e-001
    outer loop
      vertex  6.700000e+000  2.075040e+000  6.500000e+000
      vertex  5.012285e+000  1.561891e+000  6.500000e+000
      vertex  6.803981e+000  1.644944e+000  6.500000e+000
    endloop
  endfacet
  facet normal  0.000000e+000  0.000000e+000  1.000000e+000
    outer loop
      vertex -6.711527e+000  2.017928e+000  6.500000e+000
      vertex -6.909362e+000  1.122818e+000  6.500000e+000
      vertex -5.012285e+000  1.561891e+000  6.500000e+000
    endloop
  endfacet
  facet normal  0.000000e+000  -0.000000e+000  1.000000e+000
    outer loop
      vertex -6.711527e+000  2.017928e+000  6.500000e+000
      vertex -5.012285e+000  1.561891e+000  6.500000e+000
      vertex -4.787474e+000  2.154667e+000  6.500000e+000
    endloop
  endfacet
  facet normal  0.000000e+000  -0.000000e+000  1.000000e+000
    outer loop
      vertex -6.711527e+000  2.017928e+000  6.500000e+000
      vertex -4.787474e+000  2.154667e+000  6.500000e+000
      vertex -4.492852e+000  2.716023e+000  6.500000e+000
    endloop
  endfacet
  facet normal  0.000000e+000  -0.000000e+000  1.000000e+000
    outer loop
      vertex -6.711527e+000  2.017928e+000  6.500000e+000
      vertex -4.492852e+000  2.716023e+000  6.500000e+000
      vertex -4.132713e+000  3.237774e+000  6.500000e+000
    endloop
  endfacet
  facet normal  0.000000e+000  -0.000000e+000  1.000000e+000
    outer loop
      vertex -6.711527e+000  2.017928e+000  6.500000e+000
      vertex -4.132713e+000  3.237774e+000  6.500000e+000
      vertex -3.712311e+000  3.712311e+000  6.500000e+000
    endloop
  endfacet
  facet normal  0.000000e+000  0.000000e+000  1.000000e+000
    outer loop
      vertex -6.711527e+000  2.017928e+000  6.500000e+000
      vertex -3.712311e+000  3.712311e+000  6.500000e+000
      vertex -3.755769e+000  4.122818e+000  6.500000e+000
    endloop
  endfacet
  facet normal  0.000000e+000  0.000000e+000  1.000000e+000
    outer loop
      vertex -6.711527e+000  2.017928e+000  6.500000e+000
      vertex -3.755769e+000  4.122818e+000  6.500000e+000
      vertex -4.755769e+000  4.122818e+000  6.500000e+000
    endloop
  endfacet
  facet normal  0.000000e+000  0.000000e+000  1.000000e+000
    outer loop
      vertex -4.672046e+000 -5.212676e+000  6.500000e+000
      vertex -3.169871e-001 -5.240422e+000  6.500000e+000
      vertex -9.463390e-001 -5.164004e+000  6.500000e+000
    endloop
  endfacet
  facet normal  0.000000e+000  0.000000e+000  1.000000e+000
    outer loop
      vertex -4.672046e+000 -5.212676e+000  6.500000e+000
      vertex -9.463390e-001 -5.164004e+000  6.500000e+000
      vertex -1.561891e+000 -5.012285e+000  6.500000e+000
    endloop
  endfacet
  facet normal  0.000000e+000  0.000000e+000  9.999999e-001
    outer loop
      vertex -4.672046e+000 -5.212676e+000  6.500000e+000
      vertex -1.561891e+000 -5.012285e+000  6.500000e+000
      vertex -2.154667e+000 -4.787474e+000  6.500000e+000
    endloop
  endfacet
  facet normal  0.000000e+000  0.000000e+000  1.000000e+000
    outer loop
      vertex -4.672046e+000 -5.212676e+000  6.500000e+000
      vertex -2.154667e+000 -4.787474e+000  6.500000e+000
      vertex -5.169641e+000 -4.719620e+000  6.500000e+000
    endloop
  endfacet
  facet normal  0.000000e+000  -0.000000e+000  1.000000e+000
    outer loop
      vertex -4.127664e+000 -5.653529e+000  6.500000e+000
      vertex -3.541946e+000 -6.037766e+000  6.500000e+000
      vertex  3.607385e+000 -5.998898e+000  6.500000e+000
    endloop
  endfacet
  facet normal  0.000000e+000  -0.000000e+000  9.999999e-001
    outer loop
      vertex -4.127664e+000 -5.653529e+000  6.500000e+000
      vertex  3.607385e+000 -5.998898e+000  6.500000e+000
      vertex  4.219318e+000 -5.585459e+000  6.500000e+000
    endloop
  endfacet
  facet normal  0.000000e+000  0.000000e+000  1.000000e+000
    outer loop
      vertex -4.127664e+000 -5.653529e+000  6.500000e+000
      vertex  4.219318e+000 -5.585459e+000  6.500000e+000
      vertex  3.169871e-001 -5.240422e+000  6.500000e+000
    endloop
  endfacet
  facet normal  0.000000e+000  0.000000e+000  1.000000e+000
    outer loop
      vertex -4.127664e+000 -5.653529e+000  6.500000e+000
      vertex  3.169871e-001 -5.240422e+000  6.500000e+000
      vertex -3.169871e-001 -5.240422e+000  6.500000e+000
    endloop
  endfacet
  facet normal  0.000000e+000  0.000000e+000  1.000000e+000
    outer loop
      vertex -4.127664e+000 -5.653529e+000  6.500000e+000
      vertex -3.169871e-001 -5.240422e+000  6.500000e+000
      vertex -4.672046e+000 -5.212676e+000  6.500000e+000
    endloop
  endfacet
  facet normal  -0.000000e+000  0.000000e+000  1.000000e+000
    outer loop
      vertex  6.803981e+000  1.644944e+000  6.500000e+000
      vertex  5.012285e+000  1.561891e+000  6.500000e+000
      vertex  6.939417e+000  9.189608e-001  6.500000e+000
    endloop
  endfacet
  facet normal  0.000000e+000  0.000000e+000  1.000000e+000
    outer loop
      vertex  6.939417e+000  9.189608e-001  6.500000e+000
      vertex  5.012285e+000  1.561891e+000  6.500000e+000
      vertex  5.164004e+000  9.463390e-001  6.500000e+000
    endloop
  endfacet
  facet normal  0.000000e+000  0.000000e+000  1.000000e+000
    outer loop
      vertex  6.939417e+000  9.189608e-001  6.500000e+000
      vertex  5.164004e+000  9.463390e-001  6.500000e+000
      vertex  6.997614e+000  1.827495e-001  6.500000e+000
    endloop
  endfacet
  facet normal  0.000000e+000  0.000000e+000  1.000000e+000
    outer loop
      vertex  6.997614e+000  1.827495e-001  6.500000e+000
      vertex  5.164004e+000  9.463390e-001  6.500000e+000
      vertex  5.240422e+000  3.169871e-001  6.500000e+000
    endloop
  endfacet
  facet normal  0.000000e+000  0.000000e+000  1.000000e+000
    outer loop
      vertex  6.997614e+000  1.827495e-001  6.500000e+000
      vertex  5.240422e+000  3.169871e-001  6.500000e+000
      vertex  6.977924e+000 -5.554959e-001  6.500000e+000
    endloop
  endfacet
  facet normal  0.000000e+000  0.000000e+000  1.000000e+000
    outer loop
      vertex  6.977924e+000 -5.554959e-001  6.500000e+000
      vertex  5.240422e+000  3.169871e-001  6.500000e+000
      vertex  5.240422e+000 -3.169871e-001  6.500000e+000
    endloop
  endfacet
  facet normal  0.000000e+000  0.000000e+000  1.000000e+000
    outer loop
      vertex  6.977924e+000 -5.554959e-001  6.500000e+000
      vertex  5.240422e+000 -3.169871e-001  6.500000e+000
      vertex  6.880567e+000 -1.287558e+000  6.500000e+000
    endloop
  endfacet
  facet normal  0.000000e+000  0.000000e+000  1.000000e+000
    outer loop
      vertex  6.880567e+000 -1.287558e+000  6.500000e+000
      vertex  5.240422e+000 -3.169871e-001  6.500000e+000
      vertex  5.164004e+000 -9.463390e-001  6.500000e+000
    endloop
  endfacet
  facet normal  0.000000e+000  0.000000e+000  1.000000e+000
    outer loop
      vertex  6.880567e+000 -1.287558e+000  6.500000e+000
      vertex  5.164004e+000 -9.463390e-001  6.500000e+000
      vertex  5.012285e+000 -1.561891e+000  6.500000e+000
    endloop
  endfacet
  facet normal  -0.000000e+000  0.000000e+000  1.000000e+000
    outer loop
      vertex  6.880567e+000 -1.287558e+000  6.500000e+000
      vertex  5.012285e+000 -1.561891e+000  6.500000e+000
      vertex  6.706625e+000 -2.005290e+000  6.500000e+000
    endloop
  endfacet
  facet normal  0.000000e+000  0.000000e+000  1.000000e+000
    outer loop
      vertex  6.706625e+000 -2.005290e+000  6.500000e+000
      vertex  5.012285e+000 -1.561891e+000  6.500000e+000
      vertex  4.787474e+000 -2.154667e+000  6.500000e+000
    endloop
  endfacet
  facet normal  -0.000000e+000  0.000000e+000  1.000000e+000
    outer loop
      vertex  6.706625e+000 -2.005290e+000  6.500000e+000
      vertex  4.787474e+000 -2.154667e+000  6.500000e+000
      vertex  6.458035e+000 -2.700701e+000  6.500000e+000
    endloop
  endfacet
  facet normal  0.000000e+000  0.000000e+000  1.000000e+000
    outer loop
      vertex  6.458035e+000 -2.700701e+000  6.500000e+000
      vertex  4.787474e+000 -2.154667e+000  6.500000e+000
      vertex  4.492852e+000 -2.716023e+000  6.500000e+000
    endloop
  endfacet
  facet normal  -0.000000e+000  0.000000e+000  1.000000e+000
    outer loop
      vertex  6.458035e+000 -2.700701e+000  6.500000e+000
      vertex  4.492852e+000 -2.716023e+000  6.500000e+000
      vertex  6.137564e+000 -3.366052e+000  6.500000e+000
    endloop
  endfacet
  facet normal  0.000000e+000  0.000000e+000  1.000000e+000
    outer loop
      vertex  6.137564e+000 -3.366052e+000  6.500000e+000
      vertex  4.492852e+000 -2.716023e+000  6.500000e+000
      vertex  4.132713e+000 -3.237774e+000  6.500000e+000
    endloop
  endfacet
  facet normal  0.000000e+000  0.000000e+000  1.000000e+000
    outer loop
      vertex  6.137564e+000 -3.366052e+000  6.500000e+000
      vertex  4.132713e+000 -3.237774e+000  6.500000e+000
      vertex  5.748779e+000 -3.993938e+000  6.500000e+000
    endloop
  endfacet
  facet normal  0.000000e+000  0.000000e+000  1.000000e+000
    outer loop
      vertex  5.748779e+000 -3.993938e+000  6.500000e+000
      vertex  4.132713e+000 -3.237774e+000  6.500000e+000
      vertex  3.712311e+000 -3.712311e+000  6.500000e+000
    endloop
  endfacet
  facet normal  0.000000e+000  0.000000e+000  9.999999e-001
    outer loop
      vertex  5.748779e+000 -3.993938e+000  6.500000e+000
      vertex  3.712311e+000 -3.712311e+000  6.500000e+000
      vertex  3.237774e+000 -4.132713e+000  6.500000e+000
    endloop
  endfacet
  facet normal  -0.000000e+000  0.000000e+000  1.000000e+000
    outer loop
      vertex  5.748779e+000 -3.993938e+000  6.500000e+000
      vertex  3.237774e+000 -4.132713e+000  6.500000e+000
      vertex  5.296008e+000 -4.577369e+000  6.500000e+000
    endloop
  endfacet
  facet normal  0.000000e+000  0.000000e+000  9.999999e-001
    outer loop
      vertex  5.296008e+000 -4.577369e+000  6.500000e+000
      vertex  3.237774e+000 -4.132713e+000  6.500000e+000
      vertex  2.716023e+000 -4.492852e+000  6.500000e+000
    endloop
  endfacet
  facet normal  0.000000e+000  0.000000e+000  1.000000e+000
    outer loop
      vertex  5.296008e+000 -4.577369e+000  6.500000e+000
      vertex  2.716023e+000 -4.492852e+000  6.500000e+000
      vertex  4.784288e+000 -5.109851e+000  6.500000e+000
    endloop
  endfacet
  facet normal  0.000000e+000  0.000000e+000  1.000000e+000
    outer loop
      vertex  4.784288e+000 -5.109851e+000  6.500000e+000
      vertex  2.716023e+000 -4.492852e+000  6.500000e+000
      vertex  2.154667e+000 -4.787474e+000  6.500000e+000
    endloop
  endfacet
  facet normal  0.000000e+000  0.000000e+000  1.000000e+000
    outer loop
      vertex  4.784288e+000 -5.109851e+000  6.500000e+000
      vertex  2.154667e+000 -4.787474e+000  6.500000e+000
      vertex  1.561891e+000 -5.012285e+000  6.500000e+000
    endloop
  endfacet
  facet normal  0.000000e+000  0.000000e+000  1.000000e+000
    outer loop
      vertex  3.169871e-001 -5.240422e+000  6.500000e+000
      vertex  4.219318e+000 -5.585459e+000  6.500000e+000
      vertex  9.463390e-001 -5.164004e+000  6.500000e+000
    endloop
  endfacet
  facet normal  -0.000000e+000  0.000000e+000  1.000000e+000
    outer loop
      vertex  9.463390e-001 -5.164004e+000  6.500000e+000
      vertex  4.219318e+000 -5.585459e+000  6.500000e+000
      vertex  4.784288e+000 -5.109851e+000  6.500000e+000
    endloop
  endfacet
  facet normal  0.000000e+000  0.000000e+000  1.000000e+000
    outer loop
      vertex  9.463390e-001 -5.164004e+000  6.500000e+000
      vertex  4.784288e+000 -5.109851e+000  6.500000e+000
      vertex  1.561891e+000 -5.012285e+000  6.500000e+000
    endloop
  endfacet
  facet normal  0.000000e+000  0.000000e+000  1.000000e+000
    outer loop
      vertex -5.164004e+000  9.463390e-001  6.500000e+000
      vertex -6.909362e+000  1.122818e+000  6.500000e+000
      vertex -5.240422e+000  3.169871e-001  6.500000e+000
    endloop
  endfacet
  facet normal  0.000000e+000  0.000000e+000  9.999999e-001
    outer loop
      vertex -5.240422e+000  3.169871e-001  6.500000e+000
      vertex -6.909362e+000  1.122818e+000  6.500000e+000
      vertex -6.986987e+000  4.266295e-001  6.500000e+000
    endloop
  endfacet
  facet normal  0.000000e+000  0.000000e+000  1.000000e+000
    outer loop
      vertex -5.240422e+000  3.169871e-001  6.500000e+000
      vertex -6.986987e+000  4.266295e-001  6.500000e+000
      vertex -5.240422e+000 -3.169871e-001  6.500000e+000
    endloop
  endfacet
  facet normal  0.000000e+000  0.000000e+000  1.000000e+000
    outer loop
      vertex -5.240422e+000 -3.169871e-001  6.500000e+000
      vertex -6.986987e+000  4.266295e-001  6.500000e+000
      vertex -6.994642e+000 -2.738310e-001  6.500000e+000
    endloop
  endfacet
  facet normal  0.000000e+000  0.000000e+000  1.000000e+000
    outer loop
      vertex -5.240422e+000 -3.169871e-001  6.500000e+000
      vertex -6.994642e+000 -2.738310e-001  6.500000e+000
      vertex -5.164004e+000 -9.463390e-001  6.500000e+000
    endloop
  endfacet
  facet normal  0.000000e+000  0.000000e+000  1.000000e+000
    outer loop
      vertex -5.164004e+000 -9.463390e-001  6.500000e+000
      vertex -6.994642e+000 -2.738310e-001  6.500000e+000
      vertex -6.932250e+000 -9.715492e-001  6.500000e+000
    endloop
  endfacet
  facet normal  -0.000000e+000  0.000000e+000  1.000000e+000
    outer loop
      vertex -5.164004e+000 -9.463390e-001  6.500000e+000
      vertex -6.932250e+000 -9.715492e-001  6.500000e+000
      vertex -5.012285e+000 -1.561891e+000  6.500000e+000
    endloop
  endfacet
  facet normal  0.000000e+000  0.000000e+000  9.999999e-001
    outer loop
      vertex -5.012285e+000 -1.561891e+000  6.500000e+000
      vertex -6.932250e+000 -9.715492e-001  6.500000e+000
      vertex -6.800436e+000 -1.659538e+000  6.500000e+000
    endloop
  endfacet
  facet normal  -0.000000e+000  0.000000e+000  1.000000e+000
    outer loop
      vertex -5.012285e+000 -1.561891e+000  6.500000e+000
      vertex -6.800436e+000 -1.659538e+000  6.500000e+000
      vertex -4.787474e+000 -2.154667e+000  6.500000e+000
    endloop
  endfacet
  facet normal  0.000000e+000  0.000000e+000  1.000000e+000
    outer loop
      vertex -4.787474e+000 -2.154667e+000  6.500000e+000
      vertex -6.800436e+000 -1.659538e+000  6.500000e+000
      vertex -6.600521e+000 -2.330908e+000  6.500000e+000
    endloop
  endfacet
  facet normal  -0.000000e+000  0.000000e+000  1.000000e+000
    outer loop
      vertex -4.787474e+000 -2.154667e+000  6.500000e+000
      vertex -6.600521e+000 -2.330908e+000  6.500000e+000
      vertex -4.492852e+000 -2.716023e+000  6.500000e+000
    endloop
  endfacet
  facet normal  0.000000e+000  0.000000e+000  1.000000e+000
    outer loop
      vertex -4.492852e+000 -2.716023e+000  6.500000e+000
      vertex -6.600521e+000 -2.330908e+000  6.500000e+000
      vertex -6.334505e+000 -2.978935e+000  6.500000e+000
    endloop
  endfacet
  facet normal  -0.000000e+000  0.000000e+000  1.000000e+000
    outer loop
      vertex -4.492852e+000 -2.716023e+000  6.500000e+000
      vertex -6.334505e+000 -2.978935e+000  6.500000e+000
      vertex -4.132713e+000 -3.237774e+000  6.500000e+000
    endloop
  endfacet
  facet normal  0.000000e+000  0.000000e+000  1.000000e+000
    outer loop
      vertex -4.132713e+000 -3.237774e+000  6.500000e+000
      vertex -6.334505e+000 -2.978935e+000  6.500000e+000
      vertex -3.712311e+000 -3.712311e+000  6.500000e+000
    endloop
  endfacet
  facet normal  0.000000e+000  0.000000e+000  1.000000e+000
    outer loop
      vertex -3.712311e+000 -3.712311e+000  6.500000e+000
      vertex -6.334505e+000 -2.978935e+000  6.500000e+000
      vertex -6.005053e+000 -3.597130e+000  6.500000e+000
    endloop
  endfacet
  facet normal  0.000000e+000  0.000000e+000  1.000000e+000
    outer loop
      vertex -3.712311e+000 -3.712311e+000  6.500000e+000
      vertex -6.005053e+000 -3.597130e+000  6.500000e+000
      vertex -3.237774e+000 -4.132713e+000  6.500000e+000
    endloop
  endfacet
  facet normal  0.000000e+000  0.000000e+000  1.000000e+000
    outer loop
      vertex -3.237774e+000 -4.132713e+000  6.500000e+000
      vertex -6.005053e+000 -3.597130e+000  6.500000e+000
      vertex -5.615464e+000 -4.179301e+000  6.500000e+000
    endloop
  endfacet
  facet normal  -0.000000e+000  0.000000e+000  1.000000e+000
    outer loop
      vertex -3.237774e+000 -4.132713e+000  6.500000e+000
      vertex -5.615464e+000 -4.179301e+000  6.500000e+000
      vertex -2.716023e+000 -4.492852e+000  6.500000e+000
    endloop
  endfacet
  facet normal  0.000000e+000  0.000000e+000  1.000000e+000
    outer loop
      vertex -2.716023e+000 -4.492852e+000  6.500000e+000
      vertex -5.615464e+000 -4.179301e+000  6.500000e+000
      vertex -5.169641e+000 -4.719620e+000  6.500000e+000
    endloop
  endfacet
  facet normal  -0.000000e+000  0.000000e+000  1.000000e+000
    outer loop
      vertex -2.716023e+000 -4.492852e+000  6.500000e+000
      vertex -5.169641e+000 -4.719620e+000  6.500000e+000
      vertex -2.154667e+000 -4.787474e+000  6.500000e+000
    endloop
  endfacet
  facet normal  -0.000000e+000  0.000000e+000  1.000000e+000
    outer loop
      vertex  3.607385e+000 -5.998898e+000  6.500000e+000
      vertex -3.541946e+000 -6.037766e+000  6.500000e+000
      vertex  2.955300e+000 -6.345566e+000  6.500000e+000
    endloop
  endfacet
  facet normal  0.000000e+000  0.000000e+000  9.999999e-001
    outer loop
      vertex  2.955300e+000 -6.345566e+000  6.500000e+000
      vertex -3.541946e+000 -6.037766e+000  6.500000e+000
      vertex -2.920758e+000 -6.361538e+000  6.500000e+000
    endloop
  endfacet
  facet normal  -0.000000e+000  0.000000e+000  1.000000e+000
    outer loop
      vertex  2.955300e+000 -6.345566e+000  6.500000e+000
      vertex -2.920758e+000 -6.361538e+000  6.500000e+000
      vertex  2.270320e+000 -6.621604e+000  6.500000e+000
    endloop
  endfacet
  facet normal  0.000000e+000  0.000000e+000  1.000000e+000
    outer loop
      vertex  2.270320e+000 -6.621604e+000  6.500000e+000
      vertex -2.920758e+000 -6.361538e+000  6.500000e+000
      vertex -2.270320e+000 -6.621604e+000  6.500000e+000
    endloop
  endfacet
  facet normal  0.000000e+000  0.000000e+000 -1.000000e+000
    outer loop
      vertex -5.012285e+000  1.561891e+000  0.000000e+000
      vertex -5.164004e+000  9.463390e-001  0.000000e+000
      vertex -6.909362e+000  1.122818e+000  0.000000e+000
    endloop
  endfacet
  facet normal  -0.000000e+000  0.000000e+000 -9.999999e-001
    outer loop
      vertex  6.700000e+000  2.075040e+000  0.000000e+000
      vertex  6.803981e+000  1.644944e+000  0.000000e+000
      vertex  5.012285e+000  1.561891e+000  0.000000e+000
    endloop
  endfacet
  facet normal  0.000000e+000  0.000000e+000 -1.000000e+000
    outer loop
      vertex  6.700000e+000  2.075040e+000  0.000000e+000
      vertex  5.012285e+000  1.561891e+000  0.000000e+000
      vertex  4.787474e+000  2.154667e+000  0.000000e+000
    endloop
  endfacet
  facet normal  0.000000e+000  0.000000e+000 -1.000000e+000
    outer loop
      vertex  6.700000e+000  2.075040e+000  0.000000e+000
      vertex  4.787474e+000  2.154667e+000  0.000000e+000
      vertex  4.492852e+000  2.716023e+000  0.000000e+000
    endloop
  endfacet
  facet normal  0.000000e+000  0.000000e+000 -1.000000e+000
    outer loop
      vertex  6.700000e+000  2.075040e+000  0.000000e+000
      vertex  4.492852e+000  2.716023e+000  0.000000e+000
      vertex  4.132713e+000  3.237774e+000  0.000000e+000
    endloop
  endfacet
  facet normal  0.000000e+000  0.000000e+000 -1.000000e+000
    outer loop
      vertex  6.700000e+000  2.075040e+000  0.000000e+000
      vertex  4.132713e+000  3.237774e+000  0.000000e+000
      vertex  3.712311e+000  3.712311e+000  0.000000e+000
    endloop
  endfacet
  facet normal  0.000000e+000  0.000000e+000 -1.000000e+000
    outer loop
      vertex  6.700000e+000  2.075040e+000  0.000000e+000
      vertex  3.712311e+000  3.712311e+000  0.000000e+000
      vertex  3.353553e+000  4.353553e+000  0.000000e+000
    endloop
  endfacet
  facet normal  0.000000e+000  0.000000e+000 -1.000000e+000
    outer loop
      vertex  6.700000e+000  2.075040e+000  0.000000e+000
      vertex  3.353553e+000  4.353553e+000  0.000000e+000
      vertex  4.353553e+000  4.353553e+000  0.000000e+000
    endloop
  endfacet
  facet normal  0.000000e+000  -0.000000e+000 -1.000000e+000
    outer loop
      vertex -6.711527e+000  2.017928e+000  0.000000e+000
      vertex -4.755769e+000  4.122818e+000  0.000000e+000
      vertex -3.755769e+000  4.122818e+000  0.000000e+000
    endloop
  endfacet
  facet normal  0.000000e+000  -0.000000e+000 -1.000000e+000
    outer loop
      vertex -6.711527e+000  2.017928e+000  0.000000e+000
      vertex -3.755769e+000  4.122818e+000  0.000000e+000
      vertex -3.712311e+000  3.712311e+000  0.000000e+000
    endloop
  endfacet
  facet normal  0.000000e+000  0.000000e+000 -1.000000e+000
    outer loop
      vertex -6.711527e+000  2.017928e+000  0.000000e+000
      vertex -3.712311e+000  3.712311e+000  0.000000e+000
      vertex -4.132713e+000  3.237774e+000  0.000000e+000
    endloop
  endfacet
  facet normal  0.000000e+000  0.000000e+000 -1.000000e+000
    outer loop
      vertex -6.711527e+000  2.017928e+000  0.000000e+000
      vertex -4.132713e+000  3.237774e+000  0.000000e+000
      vertex -4.492852e+000  2.716023e+000  0.000000e+000
    endloop
  endfacet
  facet normal  0.000000e+000  0.000000e+000 -1.000000e+000
    outer loop
      vertex -6.711527e+000  2.017928e+000  0.000000e+000
      vertex -4.492852e+000  2.716023e+000  0.000000e+000
      vertex -4.787474e+000  2.154667e+000  0.000000e+000
    endloop
  endfacet
  facet normal  0.000000e+000  0.000000e+000 -1.000000e+000
    outer loop
      vertex -6.711527e+000  2.017928e+000  0.000000e+000
      vertex -4.787474e+000  2.154667e+000  0.000000e+000
      vertex -5.012285e+000  1.561891e+000  0.000000e+000
    endloop
  endfacet
  facet normal  -0.000000e+000  0.000000e+000 -1.000000e+000
    outer loop
      vertex -6.711527e+000  2.017928e+000  0.000000e+000
      vertex -5.012285e+000  1.561891e+000  0.000000e+000
      vertex -6.909362e+000  1.122818e+000  0.000000e+000
    endloop
  endfacet
  facet normal  0.000000e+000  0.000000e+000 -1.000000e+000
    outer loop
      vertex -4.672046e+000 -5.212676e+000  0.000000e+000
      vertex -5.169641e+000 -4.719620e+000  0.000000e+000
      vertex -2.154667e+000 -4.787474e+000  0.000000e+000
    endloop
  endfacet
  facet normal  0.000000e+000  -0.000000e+000 -9.999999e-001
    outer loop
      vertex -4.672046e+000 -5.212676e+000  0.000000e+000
      vertex -2.154667e+000 -4.787474e+000  0.000000e+000
      vertex -1.561891e+000 -5.012285e+000  0.000000e+000
    endloop
  endfacet
  facet normal  0.000000e+000  -0.000000e+000 -1.000000e+000
    outer loop
      vertex -4.672046e+000 -5.212676e+000  0.000000e+000
      vertex -1.561891e+000 -5.012285e+000  0.000000e+000
      vertex -9.463390e-001 -5.164004e+000  0.000000e+000
    endloop
  endfacet
  facet normal  0.000000e+000  -0.000000e+000 -1.000000e+000
    outer loop
      vertex -4.672046e+000 -5.212676e+000  0.000000e+000
      vertex -9.463390e-001 -5.164004e+000  0.000000e+000
      vertex -3.169871e-001 -5.240422e+000  0.000000e+000
    endloop
  endfacet
  facet normal  0.000000e+000  0.000000e+000 -1.000000e+000
    outer loop
      vertex -4.127664e+000 -5.653529e+000  0.000000e+000
      vertex -4.672046e+000 -5.212676e+000  0.000000e+000
      vertex -3.169871e-001 -5.240422e+000  0.000000e+000
    endloop
  endfacet
  facet normal  0.000000e+000  -0.000000e+000 -1.000000e+000
    outer loop
      vertex -4.127664e+000 -5.653529e+000  0.000000e+000
      vertex -3.169871e-001 -5.240422e+000  0.000000e+000
      vertex  3.169871e-001 -5.240422e+000  0.000000e+000
    endloop
  endfacet
  facet normal  0.000000e+000  -0.000000e+000 -9.999999e-001
    outer loop
      vertex -4.127664e+000 -5.653529e+000  0.000000e+000
      vertex  3.169871e-001 -5.240422e+000  0.000000e+000
      vertex  4.219318e+000 -5.585459e+000  0.000000e+000
    endloop
  endfacet
  facet normal  0.000000e+000  0.000000e+000 -1.000000e+000
    outer loop
      vertex -4.127664e+000 -5.653529e+000  0.000000e+000
      vertex  4.219318e+000 -5.585459e+000  0.000000e+000
      vertex  3.607385e+000 -5.998898e+000  0.000000e+000
    endloop
  endfacet
  facet normal  -0.000000e+000  0.000000e+000 -1.000000e+000
    outer loop
      vertex -4.127664e+000 -5.653529e+000  0.000000e+000
      vertex  3.607385e+000 -5.998898e+000  0.000000e+000
      vertex -3.541946e+000 -6.037766e+000  0.000000e+000
    endloop
  endfacet
  facet normal  0.000000e+000  -0.000000e+000 -1.000000e+000
    outer loop
      vertex  5.012285e+000 -1.561891e+000  0.000000e+000
      vertex  5.164004e+000 -9.463390e-001  0.000000e+000
      vertex  6.880567e+000 -1.287558e+000  0.000000e+000
    endloop
  endfacet
  facet normal  0.000000e+000  0.000000e+000 -1.000000e+000
    outer loop
      vertex  6.880567e+000 -1.287558e+000  0.000000e+000
      vertex  5.164004e+000 -9.463390e-001  0.000000e+000
      vertex  5.240422e+000 -3.169871e-001  0.000000e+000
    endloop
  endfacet
  facet normal  0.000000e+000  0.000000e+000 -1.000000e+000
    outer loop
      vertex  6.880567e+000 -1.287558e+000  0.000000e+000
      vertex  5.240422e+000 -3.169871e-001  0.000000e+000
      vertex  6.977924e+000 -5.554959e-001  0.000000e+000
    endloop
  endfacet
  facet normal  0.000000e+000  0.000000e+000 -1.000000e+000
    outer loop
      vertex  6.977924e+000 -5.554959e-001  0.000000e+000
      vertex  5.240422e+000 -3.169871e-001  0.000000e+000
      vertex  5.240422e+000  3.169871e-001  0.000000e+000
    endloop
  endfacet
  facet normal  0.000000e+000  0.000000e+000 -1.000000e+000
    outer loop
      vertex  6.977924e+000 -5.554959e-001  0.000000e+000
      vertex  5.240422e+000  3.169871e-001  0.000000e+000
      vertex  6.997614e+000  1.827495e-001  0.000000e+000
    endloop
  endfacet
  facet normal  0.000000e+000  0.000000e+000 -1.000000e+000
    outer loop
      vertex  6.997614e+000  1.827495e-001  0.000000e+000
      vertex  5.240422e+000  3.169871e-001  0.000000e+000
      vertex  5.164004e+000  9.463390e-001  0.000000e+000
    endloop
  endfacet
  facet normal  0.000000e+000  0.000000e+000 -1.000000e+000
    outer loop
      vertex  6.997614e+000  1.827495e-001  0.000000e+000
      vertex  5.164004e+000  9.463390e-001  0.000000e+000
      vertex  6.939417e+000  9.189608e-001  0.000000e+000
    endloop
  endfacet
  facet normal  0.000000e+000  0.000000e+000 -1.000000e+000
    outer loop
      vertex  6.939417e+000  9.189608e-001  0.000000e+000
      vertex  5.164004e+000  9.463390e-001  0.000000e+000
      vertex  5.012285e+000  1.561891e+000  0.000000e+000
    endloop
  endfacet
  facet normal  0.000000e+000  0.000000e+000 -1.000000e+000
    outer loop
      vertex  6.939417e+000  9.189608e-001  0.000000e+000
      vertex  5.012285e+000  1.561891e+000  0.000000e+000
      vertex  6.803981e+000  1.644944e+000  0.000000e+000
    endloop
  endfacet
  facet normal  0.000000e+000  -0.000000e+000 -9.999999e-001
    outer loop
      vertex  3.237774e+000 -4.132713e+000  0.000000e+000
      vertex  3.712311e+000 -3.712311e+000  0.000000e+000
      vertex  5.748779e+000 -3.993938e+000  0.000000e+000
    endloop
  endfacet
  facet normal  0.000000e+000  0.000000e+000 -1.000000e+000
    outer loop
      vertex  5.748779e+000 -3.993938e+000  0.000000e+000
      vertex  3.712311e+000 -3.712311e+000  0.000000e+000
      vertex  4.132713e+000 -3.237774e+000  0.000000e+000
    endloop
  endfacet
  facet normal  0.000000e+000  0.000000e+000 -1.000000e+000
    outer loop
      vertex  5.748779e+000 -3.993938e+000  0.000000e+000
      vertex  4.132713e+000 -3.237774e+000  0.000000e+000
      vertex  6.137564e+000 -3.366052e+000  0.000000e+000
    endloop
  endfacet
  facet normal  0.000000e+000  0.000000e+000 -1.000000e+000
    outer loop
      vertex  6.137564e+000 -3.366052e+000  0.000000e+000
      vertex  4.132713e+000 -3.237774e+000  0.000000e+000
      vertex  4.492852e+000 -2.716023e+000  0.000000e+000
    endloop
  endfacet
  facet normal  0.000000e+000  0.000000e+000 -1.000000e+000
    outer loop
      vertex  6.137564e+000 -3.366052e+000  0.000000e+000
      vertex  4.492852e+000 -2.716023e+000  0.000000e+000
      vertex  6.458035e+000 -2.700701e+000  0.000000e+000
    endloop
  endfacet
  facet normal  -0.000000e+000  0.000000e+000 -1.000000e+000
    outer loop
      vertex  6.458035e+000 -2.700701e+000  0.000000e+000
      vertex  4.492852e+000 -2.716023e+000  0.000000e+000
      vertex  4.787474e+000 -2.154667e+000  0.000000e+000
    endloop
  endfacet
  facet normal  0.000000e+000  0.000000e+000 -1.000000e+000
    outer loop
      vertex  6.458035e+000 -2.700701e+000  0.000000e+000
      vertex  4.787474e+000 -2.154667e+000  0.000000e+000
      vertex  6.706625e+000 -2.005290e+000  0.000000e+000
    endloop
  endfacet
  facet normal  -0.000000e+000  0.000000e+000 -1.000000e+000
    outer loop
      vertex  6.706625e+000 -2.005290e+000  0.000000e+000
      vertex  4.787474e+000 -2.154667e+000  0.000000e+000
      vertex  5.012285e+000 -1.561891e+000  0.000000e+000
    endloop
  endfacet
  facet normal  0.000000e+000  0.000000e+000 -1.000000e+000
    outer loop
      vertex  6.706625e+000 -2.005290e+000  0.000000e+000
      vertex  5.012285e+000 -1.561891e+000  0.000000e+000
      vertex  6.880567e+000 -1.287558e+000  0.000000e+000
    endloop
  endfacet
  facet normal  0.000000e+000  -0.000000e+000 -1.000000e+000
    outer loop
      vertex  1.561891e+000 -5.012285e+000  0.000000e+000
      vertex  2.154667e+000 -4.787474e+000  0.000000e+000
      vertex  4.784288e+000 -5.109851e+000  0.000000e+000
    endloop
  endfacet
  facet normal  0.000000e+000  0.000000e+000 -1.000000e+000
    outer loop
      vertex  4.784288e+000 -5.109851e+000  0.000000e+000
      vertex  2.154667e+000 -4.787474e+000  0.000000e+000
      vertex  2.716023e+000 -4.492852e+000  0.000000e+000
    endloop
  endfacet
  facet normal  0.000000e+000  0.000000e+000 -1.000000e+000
    outer loop
      vertex  4.784288e+000 -5.109851e+000  0.000000e+000
      vertex  2.716023e+000 -4.492852e+000  0.000000e+000
      vertex  5.296008e+000 -4.577369e+000  0.000000e+000
    endloop
  endfacet
  facet normal  0.000000e+000  0.000000e+000 -9.999999e-001
    outer loop
      vertex  5.296008e+000 -4.577369e+000  0.000000e+000
      vertex  2.716023e+000 -4.492852e+000  0.000000e+000
      vertex  3.237774e+000 -4.132713e+000  0.000000e+000
    endloop
  endfacet
  facet normal  0.000000e+000  0.000000e+000 -1.000000e+000
    outer loop
      vertex  5.296008e+000 -4.577369e+000  0.000000e+000
      vertex  3.237774e+000 -4.132713e+000  0.000000e+000
      vertex  5.748779e+000 -3.993938e+000  0.000000e+000
    endloop
  endfacet
  facet normal  -0.000000e+000  0.000000e+000 -1.000000e+000
    outer loop
      vertex  1.561891e+000 -5.012285e+000  0.000000e+000
      vertex  4.784288e+000 -5.109851e+000  0.000000e+000
      vertex  9.463390e-001 -5.164004e+000  0.000000e+000
    endloop
  endfacet
  facet normal  0.000000e+000  0.000000e+000 -1.000000e+000
    outer loop
      vertex  9.463390e-001 -5.164004e+000  0.000000e+000
      vertex  4.784288e+000 -5.109851e+000  0.000000e+000
      vertex  4.219318e+000 -5.585459e+000  0.000000e+000
    endloop
  endfacet
  facet normal  0.000000e+000  0.000000e+000 -1.000000e+000
    outer loop
      vertex  9.463390e-001 -5.164004e+000  0.000000e+000
      vertex  4.219318e+000 -5.585459e+000  0.000000e+000
      vertex  3.169871e-001 -5.240422e+000  0.000000e+000
    endloop
  endfacet
  facet normal  0.000000e+000  0.000000e+000 -1.000000e+000
    outer loop
      vertex -4.132713e+000 -3.237774e+000  0.000000e+000
      vertex -6.334505e+000 -2.978935e+000  0.000000e+000
      vertex -4.492852e+000 -2.716023e+000  0.000000e+000
    endloop
  endfacet
  facet normal  -0.000000e+000  0.000000e+000 -1.000000e+000
    outer loop
      vertex -4.492852e+000 -2.716023e+000  0.000000e+000
      vertex -6.334505e+000 -2.978935e+000  0.000000e+000
      vertex -6.600521e+000 -2.330908e+000  0.000000e+000
    endloop
  endfacet
  facet normal  0.000000e+000  0.000000e+000 -1.000000e+000
    outer loop
      vertex -4.492852e+000 -2.716023e+000  0.000000e+000
      vertex -6.600521e+000 -2.330908e+000  0.000000e+000
      vertex -4.787474e+000 -2.154667e+000  0.000000e+000
    endloop
  endfacet
  facet normal  -0.000000e+000  0.000000e+000 -1.000000e+000
    outer loop
      vertex -4.787474e+000 -2.154667e+000  0.000000e+000
      vertex -6.600521e+000 -2.330908e+000  0.000000e+000
      vertex -6.800436e+000 -1.659538e+000  0.000000e+000
    endloop
  endfacet
  facet normal  0.000000e+000  0.000000e+000 -1.000000e+000
    outer loop
      vertex -4.787474e+000 -2.154667e+000  0.000000e+000
      vertex -6.800436e+000 -1.659538e+000  0.000000e+000
      vertex -5.012285e+000 -1.561891e+000  0.000000e+000
    endloop
  endfacet
  facet normal  -0.000000e+000  0.000000e+000 -9.999999e-001
    outer loop
      vertex -5.012285e+000 -1.561891e+000  0.000000e+000
      vertex -6.800436e+000 -1.659538e+000  0.000000e+000
      vertex -6.932250e+000 -9.715492e-001  0.000000e+000
    endloop
  endfacet
  facet normal  0.000000e+000  0.000000e+000 -1.000000e+000
    outer loop
      vertex -5.012285e+000 -1.561891e+000  0.000000e+000
      vertex -6.932250e+000 -9.715492e-001  0.000000e+000
      vertex -5.164004e+000 -9.463390e-001  0.000000e+000
    endloop
  endfacet
  facet normal  -0.000000e+000  0.000000e+000 -1.000000e+000
    outer loop
      vertex -5.164004e+000 -9.463390e-001  0.000000e+000
      vertex -6.932250e+000 -9.715492e-001  0.000000e+000
      vertex -6.994642e+000 -2.738310e-001  0.000000e+000
    endloop
  endfacet
  facet normal  0.000000e+000  0.000000e+000 -1.000000e+000
    outer loop
      vertex -5.164004e+000 -9.463390e-001  0.000000e+000
      vertex -6.994642e+000 -2.738310e-001  0.000000e+000
      vertex -5.240422e+000 -3.169871e-001  0.000000e+000
    endloop
  endfacet
  facet normal  0.000000e+000  0.000000e+000 -1.000000e+000
    outer loop
      vertex -5.240422e+000 -3.169871e-001  0.000000e+000
      vertex -6.994642e+000 -2.738310e-001  0.000000e+000
      vertex -6.986987e+000  4.266295e-001  0.000000e+000
    endloop
  endfacet
  facet normal  0.000000e+000  0.000000e+000 -1.000000e+000
    outer loop
      vertex -5.240422e+000 -3.169871e-001  0.000000e+000
      vertex -6.986987e+000  4.266295e-001  0.000000e+000
      vertex -5.240422e+000  3.169871e-001  0.000000e+000
    endloop
  endfacet
  facet normal  0.000000e+000  0.000000e+000 -9.999999e-001
    outer loop
      vertex -5.240422e+000  3.169871e-001  0.000000e+000
      vertex -6.986987e+000  4.266295e-001  0.000000e+000
      vertex -6.909362e+000  1.122818e+000  0.000000e+000
    endloop
  endfacet
  facet normal  0.000000e+000  0.000000e+000 -1.000000e+000
    outer loop
      vertex -5.240422e+000  3.169871e-001  0.000000e+000
      vertex -6.909362e+000  1.122818e+000  0.000000e+000
      vertex -5.164004e+000  9.463390e-001  0.000000e+000
    endloop
  endfacet
  facet normal  0.000000e+000  0.000000e+000 -1.000000e+000
    outer loop
      vertex -2.154667e+000 -4.787474e+000  0.000000e+000
      vertex -5.169641e+000 -4.719620e+000  0.000000e+000
      vertex -2.716023e+000 -4.492852e+000  0.000000e+000
    endloop
  endfacet
  facet normal  -0.000000e+000  0.000000e+000 -1.000000e+000
    outer loop
      vertex -2.716023e+000 -4.492852e+000  0.000000e+000
      vertex -5.169641e+000 -4.719620e+000  0.000000e+000
      vertex -5.615464e+000 -4.179301e+000  0.000000e+000
    endloop
  endfacet
  facet normal  0.000000e+000  0.000000e+000 -1.000000e+000
    outer loop
      vertex -2.716023e+000 -4.492852e+000  0.000000e+000
      vertex -5.615464e+000 -4.179301e+000  0.000000e+000
      vertex -3.237774e+000 -4.132713e+000  0.000000e+000
    endloop
  endfacet
  facet normal  -0.000000e+000  0.000000e+000 -1.000000e+000
    outer loop
      vertex -3.237774e+000 -4.132713e+000  0.000000e+000
      vertex -5.615464e+000 -4.179301e+000  0.000000e+000
      vertex -6.005053e+000 -3.597130e+000  0.000000e+000
    endloop
  endfacet
  facet normal  0.000000e+000  0.000000e+000 -1.000000e+000
    outer loop
      vertex -3.237774e+000 -4.132713e+000  0.000000e+000
      vertex -6.005053e+000 -3.597130e+000  0.000000e+000
      vertex -3.712311e+000 -3.712311e+000  0.000000e+000
    endloop
  endfacet
  facet normal  0.000000e+000  0.000000e+000 -1.000000e+000
    outer loop
      vertex -3.712311e+000 -3.712311e+000  0.000000e+000
      vertex -6.005053e+000 -3.597130e+000  0.000000e+000
      vertex -6.334505e+000 -2.978935e+000  0.000000e+000
    endloop
  endfacet
  facet normal  0.000000e+000  0.000000e+000 -1.000000e+000
    outer loop
      vertex -3.712311e+000 -3.712311e+000  0.000000e+000
      vertex -6.334505e+000 -2.978935e+000  0.000000e+000
      vertex -4.132713e+000 -3.237774e+000  0.000000e+000
    endloop
  endfacet
  facet normal  0.000000e+000  0.000000e+000 -1.000000e+000
    outer loop
      vertex  3.607385e+000 -5.998898e+000  0.000000e+000
      vertex  2.955300e+000 -6.345566e+000  0.000000e+000
      vertex -3.541946e+000 -6.037766e+000  0.000000e+000
    endloop
  endfacet
  facet normal  0.000000e+000  0.000000e+000 -9.999999e-001
    outer loop
      vertex -3.541946e+000 -6.037766e+000  0.000000e+000
      vertex  2.955300e+000 -6.345566e+000  0.000000e+000
      vertex -2.920758e+000 -6.361538e+000  0.000000e+000
    endloop
  endfacet
  facet normal  0.000000e+000  0.000000e+000 -1.000000e+000
    outer loop
      vertex  2.955300e+000 -6.345566e+000  0.000000e+000
      vertex  2.270320e+000 -6.621604e+000  0.000000e+000
      vertex -2.920758e+000 -6.361538e+000  0.000000e+000
    endloop
  endfacet
  facet normal  0.000000e+000  0.000000e+000 -1.000000e+000
    outer loop
      vertex -2.920758e+000 -6.361538e+000  0.000000e+000
      vertex  2.270320e+000 -6.621604e+000  0.000000e+000
      vertex -2.270320e+000 -6.621604e+000  0.000000e+000
    endloop
  endfacet
  facet normal -1.205371e-001  9.927087e-001  0.000000e+000
    outer loop
      vertex  3.169871e-001 -5.240422e+000  0.000000e+000
      vertex  9.463390e-001 -5.164004e+000  6.500000e+000
      vertex  9.463390e-001 -5.164004e+000  0.000000e+000
    endloop
  endfacet
  facet normal -2.393151e-001  9.709420e-001  0.000000e+000
    outer loop
      vertex  9.463390e-001 -5.164004e+000  0.000000e+000
      vertex  9.463390e-001 -5.164004e+000  6.500000e+000
      vertex  1.561891e+000 -5.012285e+000  6.500000e+000
    endloop
  endfacet
  facet normal -2.393151e-001  9.709420e-001  0.000000e+000
    outer loop
      vertex  9.463390e-001 -5.164004e+000  0.000000e+000
      vertex  1.561891e+000 -5.012285e+000  6.500000e+000
      vertex  1.561891e+000 -5.012285e+000  0.000000e+000
    endloop
  endfacet
  facet normal -3.546053e-001  9.350161e-001  0.000000e+000
    outer loop
      vertex  1.561891e+000 -5.012285e+000  0.000000e+000
      vertex  1.561891e+000 -5.012285e+000  6.500000e+000
      vertex  2.154667e+000 -4.787474e+000  6.500000e+000
    endloop
  endfacet
  facet normal -3.546053e-001  9.350161e-001  0.000000e+000
    outer loop
      vertex  1.561891e+000 -5.012285e+000  0.000000e+000
      vertex  2.154667e+000 -4.787474e+000  6.500000e+000
      vertex  2.154667e+000 -4.787474e+000  0.000000e+000
    endloop
  endfacet
  facet normal -4.647230e-001  8.854561e-001  0.000000e+000
    outer loop
      vertex  2.154667e+000 -4.787474e+000  0.000000e+000
      vertex  2.154667e+000 -4.787474e+000  6.500000e+000
      vertex  2.716023e+000 -4.492852e+000  6.500000e+000
    endloop
  endfacet
  facet normal -4.647230e-001  8.854561e-001  0.000000e+000
    outer loop
      vertex  2.154667e+000 -4.787474e+000  0.000000e+000
      vertex  2.716023e+000 -4.492852e+000  6.500000e+000
      vertex  2.716023e+000 -4.492852e+000  0.000000e+000
    endloop
  endfacet
  facet normal -5.680646e-001  8.229839e-001  0.000000e+000
    outer loop
      vertex  2.716023e+000 -4.492852e+000  0.000000e+000
      vertex  2.716023e+000 -4.492852e+000  6.500000e+000
      vertex  3.237774e+000 -4.132713e+000  6.500000e+000
    endloop
  endfacet
  facet normal -5.680646e-001  8.229839e-001  0.000000e+000
    outer loop
      vertex  2.716023e+000 -4.492852e+000  0.000000e+000
      vertex  3.237774e+000 -4.132713e+000  6.500000e+000
      vertex  3.237774e+000 -4.132713e+000  0.000000e+000
    endloop
  endfacet
  facet normal -6.631228e-001  7.485106e-001  0.000000e+000
    outer loop
      vertex  3.237774e+000 -4.132713e+000  0.000000e+000
      vertex  3.237774e+000 -4.132713e+000  6.500000e+000
      vertex  3.712311e+000 -3.712311e+000  6.500000e+000
    endloop
  endfacet
  facet normal -6.631228e-001  7.485106e-001  0.000000e+000
    outer loop
      vertex  3.237774e+000 -4.132713e+000  0.000000e+000
      vertex  3.712311e+000 -3.712311e+000  6.500000e+000
      vertex  3.712311e+000 -3.712311e+000  0.000000e+000
    endloop
  endfacet
  facet normal -7.485106e-001  6.631228e-001  0.000000e+000
    outer loop
      vertex  3.712311e+000 -3.712311e+000  0.000000e+000
      vertex  3.712311e+000 -3.712311e+000  6.500000e+000
      vertex  4.132713e+000 -3.237774e+000  6.500000e+000
    endloop
  endfacet
  facet normal -7.485106e-001  6.631228e-001  0.000000e+000
    outer loop
      vertex  3.712311e+000 -3.712311e+000  0.000000e+000
      vertex  4.132713e+000 -3.237774e+000  6.500000e+000
      vertex  4.132713e+000 -3.237774e+000  0.000000e+000
    endloop
  endfacet
  facet normal -8.229839e-001  5.680646e-001  0.000000e+000
    outer loop
      vertex  4.132713e+000 -3.237774e+000  0.000000e+000
      vertex  4.132713e+000 -3.237774e+000  6.500000e+000
      vertex  4.492852e+000 -2.716023e+000  6.500000e+000
    endloop
  endfacet
  facet normal -8.229839e-001  5.680646e-001  0.000000e+000
    outer loop
      vertex  4.132713e+000 -3.237774e+000  0.000000e+000
      vertex  4.492852e+000 -2.716023e+000  6.500000e+000
      vertex  4.492852e+000 -2.716023e+000  0.000000e+000
    endloop
  endfacet
  facet normal -8.854561e-001  4.647230e-001  0.000000e+000
    outer loop
      vertex  4.492852e+000 -2.716023e+000  0.000000e+000
      vertex  4.492852e+000 -2.716023e+000  6.500000e+000
      vertex  4.787474e+000 -2.154667e+000  6.500000e+000
    endloop
  endfacet
  facet normal -8.854561e-001  4.647230e-001  0.000000e+000
    outer loop
      vertex  4.492852e+000 -2.716023e+000  0.000000e+000
      vertex  4.787474e+000 -2.154667e+000  6.500000e+000
      vertex  4.787474e+000 -2.154667e+000  0.000000e+000
    endloop
  endfacet
  facet normal -9.350161e-001  3.546053e-001  0.000000e+000
    outer loop
      vertex  4.787474e+000 -2.154667e+000  0.000000e+000
      vertex  4.787474e+000 -2.154667e+000  6.500000e+000
      vertex  5.012285e+000 -1.561891e+000  6.500000e+000
    endloop
  endfacet
  facet normal -9.350161e-001  3.546053e-001  0.000000e+000
    outer loop
      vertex  4.787474e+000 -2.154667e+000  0.000000e+000
      vertex  5.012285e+000 -1.561891e+000  6.500000e+000
      vertex  5.012285e+000 -1.561891e+000  0.000000e+000
    endloop
  endfacet
  facet normal -9.709420e-001  2.393151e-001  0.000000e+000
    outer loop
      vertex  5.012285e+000 -1.561891e+000  0.000000e+000
      vertex  5.012285e+000 -1.561891e+000  6.500000e+000
      vertex  5.164004e+000 -9.463390e-001  6.500000e+000
    endloop
  endfacet
  facet normal -9.709420e-001  2.393151e-001  0.000000e+000
    outer loop
      vertex  5.012285e+000 -1.561891e+000  0.000000e+000
      vertex  5.164004e+000 -9.463390e-001  6.500000e+000
      vertex  5.164004e+000 -9.463390e-001  0.000000e+000
    endloop
  endfacet
  facet normal -9.927087e-001  1.205371e-001  0.000000e+000
    outer loop
      vertex  5.164004e+000 -9.463390e-001  0.000000e+000
      vertex  5.164004e+000 -9.463390e-001  6.500000e+000
      vertex  5.240422e+000 -3.169871e-001  6.500000e+000
    endloop
  endfacet
  facet normal -9.927087e-001  1.205371e-001  0.000000e+000
    outer loop
      vertex  5.164004e+000 -9.463390e-001  0.000000e+000
      vertex  5.240422e+000 -3.169871e-001  6.500000e+000
      vertex  5.240422e+000 -3.169871e-001  0.000000e+000
    endloop
  endfacet
  facet normal -1.000000e+000  0.000000e+000  0.000000e+000
    outer loop
      vertex  5.240422e+000 -3.169871e-001  0.000000e+000
      vertex  5.240422e+000 -3.169871e-001  6.500000e+000
      vertex  5.240422e+000  3.169871e-001  6.500000e+000
    endloop
  endfacet
  facet normal -1.000000e+000  0.000000e+000  -0.000000e+000
    outer loop
      vertex  5.240422e+000 -3.169871e-001  0.000000e+000
      vertex  5.240422e+000  3.169871e-001  6.500000e+000
      vertex  5.240422e+000  3.169871e-001  0.000000e+000
    endloop
  endfacet
  facet normal -9.927087e-001 -1.205371e-001  0.000000e+000
    outer loop
      vertex  5.240422e+000  3.169871e-001  0.000000e+000
      vertex  5.240422e+000  3.169871e-001  6.500000e+000
      vertex  5.164004e+000  9.463390e-001  6.500000e+000
    endloop
  endfacet
  facet normal -9.927087e-001 -1.205371e-001  -0.000000e+000
    outer loop
      vertex  5.240422e+000  3.169871e-001  0.000000e+000
      vertex  5.164004e+000  9.463390e-001  6.500000e+000
      vertex  5.164004e+000  9.463390e-001  0.000000e+000
    endloop
  endfacet
  facet normal -9.709420e-001 -2.393151e-001  0.000000e+000
    outer loop
      vertex  5.164004e+000  9.463390e-001  0.000000e+000
      vertex  5.164004e+000  9.463390e-001  6.500000e+000
      vertex  5.012285e+000  1.561891e+000  6.500000e+000
    endloop
  endfacet
  facet normal -9.709420e-001 -2.393151e-001  -0.000000e+000
    outer loop
      vertex  5.164004e+000  9.463390e-001  0.000000e+000
      vertex  5.012285e+000  1.561891e+000  6.500000e+000
      vertex  5.012285e+000  1.561891e+000  0.000000e+000
    endloop
  endfacet
  facet normal -9.350161e-001 -3.546053e-001  0.000000e+000
    outer loop
      vertex  5.012285e+000  1.561891e+000  0.000000e+000
      vertex  5.012285e+000  1.561891e+000  6.500000e+000
      vertex  4.787474e+000  2.154667e+000  6.500000e+000
    endloop
  endfacet
  facet normal -9.350161e-001 -3.546053e-001  -0.000000e+000
    outer loop
      vertex  5.012285e+000  1.561891e+000  0.000000e+000
      vertex  4.787474e+000  2.154667e+000  6.500000e+000
      vertex  4.787474e+000  2.154667e+000  0.000000e+000
    endloop
  endfacet
  facet normal -8.854561e-001 -4.647230e-001  0.000000e+000
    outer loop
      vertex  4.787474e+000  2.154667e+000  0.000000e+000
      vertex  4.787474e+000  2.154667e+000  6.500000e+000
      vertex  4.492852e+000  2.716023e+000  6.500000e+000
    endloop
  endfacet
  facet normal -8.854561e-001 -4.647230e-001  -0.000000e+000
    outer loop
      vertex  4.787474e+000  2.154667e+000  0.000000e+000
      vertex  4.492852e+000  2.716023e+000  6.500000e+000
      vertex  4.492852e+000  2.716023e+000  0.000000e+000
    endloop
  endfacet
  facet normal -8.229839e-001 -5.680646e-001  0.000000e+000
    outer loop
      vertex  4.492852e+000  2.716023e+000  0.000000e+000
      vertex  4.492852e+000  2.716023e+000  6.500000e+000
      vertex  4.132713e+000  3.237774e+000  6.500000e+000
    endloop
  endfacet
  facet normal -8.229839e-001 -5.680646e-001  -0.000000e+000
    outer loop
      vertex  4.492852e+000  2.716023e+000  0.000000e+000
      vertex  4.132713e+000  3.237774e+000  6.500000e+000
      vertex  4.132713e+000  3.237774e+000  0.000000e+000
    endloop
  endfacet
  facet normal -7.485106e-001 -6.631228e-001  0.000000e+000
    outer loop
      vertex  4.132713e+000  3.237774e+000  0.000000e+000
      vertex  4.132713e+000  3.237774e+000  6.500000e+000
      vertex  3.712311e+000  3.712311e+000  6.500000e+000
    endloop
  endfacet
  facet normal -7.485106e-001 -6.631228e-001  -0.000000e+000
    outer loop
      vertex  4.132713e+000  3.237774e+000  0.000000e+000
      vertex  3.712311e+000  3.712311e+000  6.500000e+000
      vertex  3.712311e+000  3.712311e+000  0.000000e+000
    endloop
  endfacet
  facet normal -1.205371e-001  9.927087e-001  0.000000e+000
    outer loop
      vertex  9.463390e-001 -5.164004e+000  6.500000e+000
      vertex  3.169871e-001 -5.240422e+000  0.000000e+000
      vertex  3.169871e-001 -5.240422e+000  6.500000e+000
    endloop
  endfacet
  facet normal  0.000000e+000  1.000000e+000  0.000000e+000
    outer loop
      vertex  3.169871e-001 -5.240422e+000  6.500000e+000
      vertex  3.169871e-001 -5.240422e+000  0.000000e+000
      vertex -3.169871e-001 -5.240422e+000  0.000000e+000
    endloop
  endfacet
  facet normal  0.000000e+000  1.000000e+000  0.000000e+000
    outer loop
      vertex  3.169871e-001 -5.240422e+000  6.500000e+000
      vertex -3.169871e-001 -5.240422e+000  0.000000e+000
      vertex -3.169871e-001 -5.240422e+000  6.500000e+000
    endloop
  endfacet
  facet normal  1.205371e-001  9.927087e-001  0.000000e+000
    outer loop
      vertex -3.169871e-001 -5.240422e+000  6.500000e+000
      vertex -3.169871e-001 -5.240422e+000  0.000000e+000
      vertex -9.463390e-001 -5.164004e+000  0.000000e+000
    endloop
  endfacet
  facet normal  1.205371e-001  9.927087e-001  -0.000000e+000
    outer loop
      vertex -3.169871e-001 -5.240422e+000  6.500000e+000
      vertex -9.463390e-001 -5.164004e+000  0.000000e+000
      vertex -9.463390e-001 -5.164004e+000  6.500000e+000
    endloop
  endfacet
  facet normal  2.393151e-001  9.709420e-001  0.000000e+000
    outer loop
      vertex -9.463390e-001 -5.164004e+000  6.500000e+000
      vertex -9.463390e-001 -5.164004e+000  0.000000e+000
      vertex -1.561891e+000 -5.012285e+000  0.000000e+000
    endloop
  endfacet
  facet normal  2.393151e-001  9.709420e-001  -0.000000e+000
    outer loop
      vertex -9.463390e-001 -5.164004e+000  6.500000e+000
      vertex -1.561891e+000 -5.012285e+000  0.000000e+000
      vertex -1.561891e+000 -5.012285e+000  6.500000e+000
    endloop
  endfacet
  facet normal  3.546053e-001  9.350161e-001  0.000000e+000
    outer loop
      vertex -1.561891e+000 -5.012285e+000  6.500000e+000
      vertex -1.561891e+000 -5.012285e+000  0.000000e+000
      vertex -2.154667e+000 -4.787474e+000  0.000000e+000
    endloop
  endfacet
  facet normal  3.546053e-001  9.350161e-001  -0.000000e+000
    outer loop
      vertex -1.561891e+000 -5.012285e+000  6.500000e+000
      vertex -2.154667e+000 -4.787474e+000  0.000000e+000
      vertex -2.154667e+000 -4.787474e+000  6.500000e+000
    endloop
  endfacet
  facet normal  4.647230e-001  8.854561e-001  0.000000e+000
    outer loop
      vertex -2.154667e+000 -4.787474e+000  6.500000e+000
      vertex -2.154667e+000 -4.787474e+000  0.000000e+000
      vertex -2.716023e+000 -4.492852e+000  0.000000e+000
    endloop
  endfacet
  facet normal  4.647230e-001  8.854561e-001  -0.000000e+000
    outer loop
      vertex -2.154667e+000 -4.787474e+000  6.500000e+000
      vertex -2.716023e+000 -4.492852e+000  0.000000e+000
      vertex -2.716023e+000 -4.492852e+000  6.500000e+000
    endloop
  endfacet
  facet normal  5.680646e-001  8.229839e-001  0.000000e+000
    outer loop
      vertex -2.716023e+000 -4.492852e+000  6.500000e+000
      vertex -2.716023e+000 -4.492852e+000  0.000000e+000
      vertex -3.237774e+000 -4.132713e+000  0.000000e+000
    endloop
  endfacet
  facet normal  5.680646e-001  8.229839e-001  -0.000000e+000
    outer loop
      vertex -2.716023e+000 -4.492852e+000  6.500000e+000
      vertex -3.237774e+000 -4.132713e+000  0.000000e+000
      vertex -3.237774e+000 -4.132713e+000  6.500000e+000
    endloop
  endfacet
  facet normal  6.631228e-001  7.485106e-001  0.000000e+000
    outer loop
      vertex -3.237774e+000 -4.132713e+000  6.500000e+000
      vertex -3.237774e+000 -4.132713e+000  0.000000e+000
      vertex -3.712311e+000 -3.712311e+000  0.000000e+000
    endloop
  endfacet
  facet normal  6.631228e-001  7.485106e-001  -0.000000e+000
    outer loop
      vertex -3.237774e+000 -4.132713e+000  6.500000e+000
      vertex -3.712311e+000 -3.712311e+000  0.000000e+000
      vertex -3.712311e+000 -3.712311e+000  6.500000e+000
    endloop
  endfacet
  facet normal  7.485106e-001  6.631228e-001  0.000000e+000
    outer loop
      vertex -3.712311e+000 -3.712311e+000  6.500000e+000
      vertex -3.712311e+000 -3.712311e+000  0.000000e+000
      vertex -4.132713e+000 -3.237774e+000  0.000000e+000
    endloop
  endfacet
  facet normal  7.485106e-001  6.631228e-001  -0.000000e+000
    outer loop
      vertex -3.712311e+000 -3.712311e+000  6.500000e+000
      vertex -4.132713e+000 -3.237774e+000  0.000000e+000
      vertex -4.132713e+000 -3.237774e+000  6.500000e+000
    endloop
  endfacet
  facet normal  8.229839e-001  5.680646e-001  0.000000e+000
    outer loop
      vertex -4.132713e+000 -3.237774e+000  6.500000e+000
      vertex -4.132713e+000 -3.237774e+000  0.000000e+000
      vertex -4.492852e+000 -2.716023e+000  0.000000e+000
    endloop
  endfacet
  facet normal  8.229839e-001  5.680646e-001  -0.000000e+000
    outer loop
      vertex -4.132713e+000 -3.237774e+000  6.500000e+000
      vertex -4.492852e+000 -2.716023e+000  0.000000e+000
      vertex -4.492852e+000 -2.716023e+000  6.500000e+000
    endloop
  endfacet
  facet normal  8.854561e-001  4.647230e-001  0.000000e+000
    outer loop
      vertex -4.492852e+000 -2.716023e+000  6.500000e+000
      vertex -4.492852e+000 -2.716023e+000  0.000000e+000
      vertex -4.787474e+000 -2.154667e+000  0.000000e+000
    endloop
  endfacet
  facet normal  8.854561e-001  4.647230e-001  -0.000000e+000
    outer loop
      vertex -4.492852e+000 -2.716023e+000  6.500000e+000
      vertex -4.787474e+000 -2.154667e+000  0.000000e+000
      vertex -4.787474e+000 -2.154667e+000  6.500000e+000
    endloop
  endfacet
  facet normal  9.350161e-001  3.546053e-001  0.000000e+000
    outer loop
      vertex -4.787474e+000 -2.154667e+000  6.500000e+000
      vertex -4.787474e+000 -2.154667e+000  0.000000e+000
      vertex -5.012285e+000 -1.561891e+000  0.000000e+000
    endloop
  endfacet
  facet normal  9.350161e-001  3.546053e-001  -0.000000e+000
    outer loop
      vertex -4.787474e+000 -2.154667e+000  6.500000e+000
      vertex -5.012285e+000 -1.561891e+000  0.000000e+000
      vertex -5.012285e+000 -1.561891e+000  6.500000e+000
    endloop
  endfacet
  facet normal  9.709420e-001  2.393151e-001  0.000000e+000
    outer loop
      vertex -5.012285e+000 -1.561891e+000  6.500000e+000
      vertex -5.012285e+000 -1.561891e+000  0.000000e+000
      vertex -5.164004e+000 -9.463390e-001  0.000000e+000
    endloop
  endfacet
  facet normal  9.709420e-001  2.393151e-001  -0.000000e+000
    outer loop
      vertex -5.012285e+000 -1.561891e+000  6.500000e+000
      vertex -5.164004e+000 -9.463390e-001  0.000000e+000
      vertex -5.164004e+000 -9.463390e-001  6.500000e+000
    endloop
  endfacet
  facet normal  9.927087e-001  1.205371e-001  0.000000e+000
    outer loop
      vertex -5.164004e+000 -9.463390e-001  6.500000e+000
      vertex -5.164004e+000 -9.463390e-001  0.000000e+000
      vertex -5.240422e+000 -3.169871e-001  0.000000e+000
    endloop
  endfacet
  facet normal  9.927087e-001  1.205371e-001  -0.000000e+000
    outer loop
      vertex -5.164004e+000 -9.463390e-001  6.500000e+000
      vertex -5.240422e+000 -3.169871e-001  0.000000e+000
      vertex -5.240422e+000 -3.169871e-001  6.500000e+000
    endloop
  endfacet
  facet normal  1.000000e+000  0.000000e+000  0.000000e+000
    outer loop
      vertex -5.240422e+000 -3.169871e-001  6.500000e+000
      vertex -5.240422e+000 -3.169871e-001  0.000000e+000
      vertex -5.240422e+000  3.169871e-001  0.000000e+000
    endloop
  endfacet
  facet normal  1.000000e+000  0.000000e+000  -0.000000e+000
    outer loop
      vertex -5.240422e+000 -3.169871e-001  6.500000e+000
      vertex -5.240422e+000  3.169871e-001  0.000000e+000
      vertex -5.240422e+000  3.169871e-001  6.500000e+000
    endloop
  endfacet
  facet normal  9.927087e-001 -1.205371e-001  0.000000e+000
    outer loop
      vertex -5.240422e+000  3.169871e-001  6.500000e+000
      vertex -5.240422e+000  3.169871e-001  0.000000e+000
      vertex -5.164004e+000  9.463390e-001  0.000000e+000
    endloop
  endfacet
  facet normal  9.927087e-001 -1.205371e-001  0.000000e+000
    outer loop
      vertex -5.240422e+000  3.169871e-001  6.500000e+000
      vertex -5.164004e+000  9.463390e-001  0.000000e+000
      vertex -5.164004e+000  9.463390e-001  6.500000e+000
    endloop
  endfacet
  facet normal  9.709420e-001 -2.393151e-001  0.000000e+000
    outer loop
      vertex -5.164004e+000  9.463390e-001  6.500000e+000
      vertex -5.164004e+000  9.463390e-001  0.000000e+000
      vertex -5.012285e+000  1.561891e+000  0.000000e+000
    endloop
  endfacet
  facet normal  9.709420e-001 -2.393151e-001  0.000000e+000
    outer loop
      vertex -5.164004e+000  9.463390e-001  6.500000e+000
      vertex -5.012285e+000  1.561891e+000  0.000000e+000
      vertex -5.012285e+000  1.561891e+000  6.500000e+000
    endloop
  endfacet
  facet normal  9.350161e-001 -3.546053e-001  0.000000e+000
    outer loop
      vertex -5.012285e+000  1.561891e+000  6.500000e+000
      vertex -5.012285e+000  1.561891e+000  0.000000e+000
      vertex -4.787474e+000  2.154667e+000  0.000000e+000
    endloop
  endfacet
  facet normal  9.350161e-001 -3.546053e-001  0.000000e+000
    outer loop
      vertex -5.012285e+000  1.561891e+000  6.500000e+000
      vertex -4.787474e+000  2.154667e+000  0.000000e+000
      vertex -4.787474e+000  2.154667e+000  6.500000e+000
    endloop
  endfacet
  facet normal  8.854561e-001 -4.647230e-001  0.000000e+000
    outer loop
      vertex -4.787474e+000  2.154667e+000  6.500000e+000
      vertex -4.787474e+000  2.154667e+000  0.000000e+000
      vertex -4.492852e+000  2.716023e+000  0.000000e+000
    endloop
  endfacet
  facet normal  8.854561e-001 -4.647230e-001  0.000000e+000
    outer loop
      vertex -4.787474e+000  2.154667e+000  6.500000e+000
      vertex -4.492852e+000  2.716023e+000  0.000000e+000
      vertex -4.492852e+000  2.716023e+000  6.500000e+000
    endloop
  endfacet
  facet normal  8.229839e-001 -5.680646e-001  0.000000e+000
    outer loop
      vertex -4.492852e+000  2.716023e+000  6.500000e+000
      vertex -4.492852e+000  2.716023e+000  0.000000e+000
      vertex -4.132713e+000  3.237774e+000  0.000000e+000
    endloop
  endfacet
  facet normal  8.229839e-001 -5.680646e-001  0.000000e+000
    outer loop
      vertex -4.492852e+000  2.716023e+000  6.500000e+000
      vertex -4.132713e+000  3.237774e+000  0.000000e+000
      vertex -4.132713e+000  3.237774e+000  6.500000e+000
    endloop
  endfacet
  facet normal  7.485106e-001 -6.631228e-001  0.000000e+000
    outer loop
      vertex -4.132713e+000  3.237774e+000  6.500000e+000
      vertex -4.132713e+000  3.237774e+000  0.000000e+000
      vertex -3.712311e+000  3.712311e+000  0.000000e+000
    endloop
  endfacet
  facet normal  7.485106e-001 -6.631228e-001  0.000000e+000
    outer loop
      vertex -4.132713e+000  3.237774e+000  6.500000e+000
      vertex -3.712311e+000  3.712311e+000  0.000000e+000
      vertex -3.712311e+000  3.712311e+000  6.500000e+000
    endloop
  endfacet
  facet normal -8.727025e-001 -4.882524e-001  0.000000e+000
    outer loop
      vertex  3.353553e+000  4.353553e+000  0.000000e+000
      vertex  3.712311e+000  3.712311e+000  0.000000e+000
      vertex  3.353553e+000  4.353553e+000  6.500000e+000
    endloop
  endfacet
  facet normal -8.727025e-001 -4.882524e-001  0.000000e+000
    outer loop
      vertex  3.353553e+000  4.353553e+000  6.500000e+000
      vertex  3.712311e+000  3.712311e+000  0.000000e+000
      vertex  3.712311e+000  3.712311e+000  6.500000e+000
    endloop
  endfacet
  facet normal  0.000000e+000  1.000000e+000  0.000000e+000
    outer loop
      vertex  3.353553e+000  4.353553e+000  0.000000e+000
      vertex  3.353553e+000  4.353553e+000  6.500000e+000
      vertex  4.353553e+000  4.353553e+000  0.000000e+000
    endloop
  endfacet
  facet normal  0.000000e+000  1.000000e+000  -0.000000e+000
    outer loop
      vertex  4.353553e+000  4.353553e+000  0.000000e+000
      vertex  3.353553e+000  4.353553e+000  6.500000e+000
      vertex  4.353553e+000  4.353553e+000  6.500000e+000
    endloop
  endfacet
  facet normal  6.966453e-001  7.174158e-001  0.000000e+000
    outer loop
      vertex  6.700000e+000  2.075040e+000  0.000000e+000
      vertex  4.353553e+000  4.353553e+000  0.000000e+000
      vertex  6.700000e+000  2.075040e+000  6.500000e+000
    endloop
  endfacet
  facet normal  6.966453e-001  7.174158e-001  0.000000e+000
    outer loop
      vertex  6.700000e+000  2.075040e+000  6.500000e+000
      vertex  4.353553e+000  4.353553e+000  0.000000e+000
      vertex  4.353553e+000  4.353553e+000  6.500000e+000
    endloop
  endfacet
  facet normal  9.719973e-001  2.349921e-001  0.000000e+000
    outer loop
      vertex  6.803981e+000  1.644944e+000  0.000000e+000
      vertex  6.700000e+000  2.075040e+000  0.000000e+000
      vertex  6.803981e+000  1.644944e+000  6.500000e+000
    endloop
  endfacet
  facet normal  9.719973e-001  2.349921e-001  0.000000e+000
    outer loop
      vertex  6.803981e+000  1.644944e+000  6.500000e+000
      vertex  6.700000e+000  2.075040e+000  0.000000e+000
      vertex  6.700000e+000  2.075040e+000  6.500000e+000
    endloop
  endfacet
  facet normal  9.830400e-001  1.833915e-001  0.000000e+000
    outer loop
      vertex  6.803981e+000  1.644944e+000  0.000000e+000
      vertex  6.803981e+000  1.644944e+000  6.500000e+000
      vertex  6.939417e+000  9.189608e-001  0.000000e+000
    endloop
  endfacet
  facet normal  9.830400e-001  1.833915e-001  -0.000000e+000
    outer loop
      vertex  6.939417e+000  9.189608e-001  0.000000e+000
      vertex  6.803981e+000  1.644944e+000  6.500000e+000
      vertex  6.939417e+000  9.189608e-001  6.500000e+000
    endloop
  endfacet
  facet normal  9.968902e-001  7.880287e-002  0.000000e+000
    outer loop
      vertex  6.939417e+000  9.189608e-001  0.000000e+000
      vertex  6.939417e+000  9.189608e-001  6.500000e+000
      vertex  6.997614e+000  1.827495e-001  0.000000e+000
    endloop
  endfacet
  facet normal  9.968902e-001  7.880287e-002  -0.000000e+000
    outer loop
      vertex  6.997614e+000  1.827495e-001  0.000000e+000
      vertex  6.939417e+000  9.189608e-001  6.500000e+000
      vertex  6.997614e+000  1.827495e-001  6.500000e+000
    endloop
  endfacet
  facet normal  9.996445e-001 -2.666192e-002  0.000000e+000
    outer loop
      vertex  6.997614e+000  1.827495e-001  0.000000e+000
      vertex  6.997614e+000  1.827495e-001  6.500000e+000
      vertex  6.977924e+000 -5.554959e-001  0.000000e+000
    endloop
  endfacet
  facet normal  9.996445e-001 -2.666192e-002  0.000000e+000
    outer loop
      vertex  6.977924e+000 -5.554959e-001  0.000000e+000
      vertex  6.997614e+000  1.827495e-001  6.500000e+000
      vertex  6.977924e+000 -5.554959e-001  6.500000e+000
    endloop
  endfacet
  facet normal  9.912724e-001 -1.318297e-001  0.000000e+000
    outer loop
      vertex  6.977924e+000 -5.554959e-001  0.000000e+000
      vertex  6.977924e+000 -5.554959e-001  6.500000e+000
      vertex  6.880567e+000 -1.287558e+000  0.000000e+000
    endloop
  endfacet
  facet normal  9.912724e-001 -1.318297e-001  0.000000e+000
    outer loop
      vertex  6.880567e+000 -1.287558e+000  0.000000e+000
      vertex  6.977924e+000 -5.554959e-001  6.500000e+000
      vertex  6.880567e+000 -1.287558e+000  6.500000e+000
    endloop
  endfacet
  facet normal  9.718667e-001 -2.355318e-001  0.000000e+000
    outer loop
      vertex  6.880567e+000 -1.287558e+000  0.000000e+000
      vertex  6.880567e+000 -1.287558e+000  6.500000e+000
      vertex  6.706625e+000 -2.005290e+000  0.000000e+000
    endloop
  endfacet
  facet normal  9.718667e-001 -2.355318e-001  0.000000e+000
    outer loop
      vertex  6.706625e+000 -2.005290e+000  0.000000e+000
      vertex  6.880567e+000 -1.287558e+000  6.500000e+000
      vertex  6.706625e+000 -2.005290e+000  6.500000e+000
    endloop
  endfacet
  facet normal  9.416440e-001 -3.366105e-001  0.000000e+000
    outer loop
      vertex  6.706625e+000 -2.005290e+000  0.000000e+000
      vertex  6.706625e+000 -2.005290e+000  6.500000e+000
      vertex  6.458035e+000 -2.700701e+000  0.000000e+000
    endloop
  endfacet
  facet normal  9.416440e-001 -3.366105e-001  0.000000e+000
    outer loop
      vertex  6.458035e+000 -2.700701e+000  0.000000e+000
      vertex  6.706625e+000 -2.005290e+000  6.500000e+000
      vertex  6.458035e+000 -2.700701e+000  6.500000e+000
    endloop
  endfacet
  facet normal  9.009401e-001 -4.339436e-001  0.000000e+000
    outer loop
      vertex  6.458035e+000 -2.700701e+000  0.000000e+000
      vertex  6.458035e+000 -2.700701e+000  6.500000e+000
      vertex  6.137564e+000 -3.366052e+000  0.000000e+000
    endloop
  endfacet
  facet normal  9.009401e-001 -4.339436e-001  0.000000e+000
    outer loop
      vertex  6.137564e+000 -3.366052e+000  0.000000e+000
      vertex  6.458035e+000 -2.700701e+000  6.500000e+000
      vertex  6.137564e+000 -3.366052e+000  6.500000e+000
    endloop
  endfacet
  facet normal  8.502082e-001 -5.264466e-001  0.000000e+000
    outer loop
      vertex  6.137564e+000 -3.366052e+000  0.000000e+000
      vertex  6.137564e+000 -3.366052e+000  6.500000e+000
      vertex  5.748779e+000 -3.993938e+000  0.000000e+000
    endloop
  endfacet
  facet normal  8.502082e-001 -5.264466e-001  0.000000e+000
    outer loop
      vertex  5.748779e+000 -3.993938e+000  0.000000e+000
      vertex  6.137564e+000 -3.366052e+000  6.500000e+000
      vertex  5.748779e+000 -3.993938e+000  6.500000e+000
    endloop
  endfacet
  facet normal  7.900132e-001 -6.130898e-001  0.000000e+000
    outer loop
      vertex  5.748779e+000 -3.993938e+000  0.000000e+000
      vertex  5.748779e+000 -3.993938e+000  6.500000e+000
      vertex  5.296008e+000 -4.577369e+000  0.000000e+000
    endloop
  endfacet
  facet normal  7.900132e-001 -6.130898e-001  0.000000e+000
    outer loop
      vertex  5.296008e+000 -4.577369e+000  0.000000e+000
      vertex  5.748779e+000 -3.993938e+000  6.500000e+000
      vertex  5.296008e+000 -4.577369e+000  6.500000e+000
    endloop
  endfacet
  facet normal  7.210247e-001 -6.929094e-001  0.000000e+000
    outer loop
      vertex  5.296008e+000 -4.577369e+000  0.000000e+000
      vertex  5.296008e+000 -4.577369e+000  6.500000e+000
      vertex  4.784288e+000 -5.109851e+000  0.000000e+000
    endloop
  endfacet
  facet normal  7.210247e-001 -6.929094e-001  0.000000e+000
    outer loop
      vertex  4.784288e+000 -5.109851e+000  0.000000e+000
      vertex  5.296008e+000 -4.577369e+000  6.500000e+000
      vertex  4.784288e+000 -5.109851e+000  6.500000e+000
    endloop
  endfacet
  facet normal  6.440119e-001 -7.650155e-001  0.000000e+000
    outer loop
      vertex  4.784288e+000 -5.109851e+000  0.000000e+000
      vertex  4.784288e+000 -5.109851e+000  6.500000e+000
      vertex  4.219318e+000 -5.585459e+000  0.000000e+000
    endloop
  endfacet
  facet normal  6.440119e-001 -7.650155e-001  0.000000e+000
    outer loop
      vertex  4.219318e+000 -5.585459e+000  0.000000e+000
      vertex  4.784288e+000 -5.109851e+000  6.500000e+000
      vertex  4.219318e+000 -5.585459e+000  6.500000e+000
    endloop
  endfacet
  facet normal  5.598292e-001 -8.286079e-001  0.000000e+000
    outer loop
      vertex  4.219318e+000 -5.585459e+000  0.000000e+000
      vertex  4.219318e+000 -5.585459e+000  6.500000e+000
      vertex  3.607385e+000 -5.998898e+000  0.000000e+000
    endloop
  endfacet
  facet normal  5.598292e-001 -8.286079e-001  0.000000e+000
    outer loop
      vertex  3.607385e+000 -5.998898e+000  0.000000e+000
      vertex  4.219318e+000 -5.585459e+000  6.500000e+000
      vertex  3.607385e+000 -5.998898e+000  6.500000e+000
    endloop
  endfacet
  facet normal  4.694170e-001 -8.829765e-001  0.000000e+000
    outer loop
      vertex  3.607385e+000 -5.998898e+000  0.000000e+000
      vertex  3.607385e+000 -5.998898e+000  6.500000e+000
      vertex  2.955300e+000 -6.345566e+000  0.000000e+000
    endloop
  endfacet
  facet normal  4.694170e-001 -8.829765e-001  0.000000e+000
    outer loop
      vertex  2.955300e+000 -6.345566e+000  0.000000e+000
      vertex  3.607385e+000 -5.998898e+000  6.500000e+000
      vertex  2.955300e+000 -6.345566e+000  6.500000e+000
    endloop
  endfacet
  facet normal  3.737789e-001 -9.275178e-001  0.000000e+000
    outer loop
      vertex  2.955300e+000 -6.345566e+000  0.000000e+000
      vertex  2.955300e+000 -6.345566e+000  6.500000e+000
      vertex  2.270320e+000 -6.621604e+000  0.000000e+000
    endloop
  endfacet
  facet normal  3.737789e-001 -9.275178e-001  0.000000e+000
    outer loop
      vertex  2.270320e+000 -6.621604e+000  0.000000e+000
      vertex  2.955300e+000 -6.345566e+000  6.500000e+000
      vertex  2.270320e+000 -6.621604e+000  6.500000e+000
    endloop
  endfacet
  facet normal  0.000000e+000 -1.000000e+000  -0.000000e+000
    outer loop
      vertex  2.270320e+000 -6.621604e+000  0.000000e+000
      vertex  2.270320e+000 -6.621604e+000  6.500000e+000
      vertex -2.270320e+000 -6.621604e+000  0.000000e+000
    endloop
  endfacet
  facet normal  0.000000e+000 -1.000000e+000  0.000000e+000
    outer loop
      vertex -2.270320e+000 -6.621604e+000  0.000000e+000
      vertex  2.270320e+000 -6.621604e+000  6.500000e+000
      vertex -2.270320e+000 -6.621604e+000  6.500000e+000
    endloop
  endfacet
  facet normal -3.712565e-001 -9.285303e-001  -0.000000e+000
    outer loop
      vertex -2.270320e+000 -6.621604e+000  0.000000e+000
      vertex -2.270320e+000 -6.621604e+000  6.500000e+000
      vertex -2.920758e+000 -6.361538e+000  0.000000e+000
    endloop
  endfacet
  facet normal -3.712565e-001 -9.285303e-001  0.000000e+000
    outer loop
      vertex -2.920758e+000 -6.361538e+000  0.000000e+000
      vertex -2.270320e+000 -6.621604e+000  6.500000e+000
      vertex -2.920758e+000 -6.361538e+000  6.500000e+000
    endloop
  endfacet
  facet normal -4.622005e-001 -8.867755e-001  -0.000000e+000
    outer loop
      vertex -2.920758e+000 -6.361538e+000  0.000000e+000
      vertex -2.920758e+000 -6.361538e+000  6.500000e+000
      vertex -3.541946e+000 -6.037766e+000  0.000000e+000
    endloop
  endfacet
  facet normal -4.622005e-001 -8.867755e-001  0.000000e+000
    outer loop
      vertex -3.541946e+000 -6.037766e+000  0.000000e+000
      vertex -2.920758e+000 -6.361538e+000  6.500000e+000
      vertex -3.541946e+000 -6.037766e+000  6.500000e+000
    endloop
  endfacet
  facet normal -5.485166e-001 -8.361396e-001  -0.000000e+000
    outer loop
      vertex -3.541946e+000 -6.037766e+000  0.000000e+000
      vertex -3.541946e+000 -6.037766e+000  6.500000e+000
      vertex -4.127664e+000 -5.653529e+000  0.000000e+000
    endloop
  endfacet
  facet normal -5.485166e-001 -8.361396e-001  0.000000e+000
    outer loop
      vertex -4.127664e+000 -5.653529e+000  0.000000e+000
      vertex -3.541946e+000 -6.037766e+000  6.500000e+000
      vertex -4.127664e+000 -5.653529e+000  6.500000e+000
    endloop
  endfacet
  facet normal -6.293387e-001 -7.771312e-001  -0.000000e+000
    outer loop
      vertex -4.127664e+000 -5.653529e+000  0.000000e+000
      vertex -4.127664e+000 -5.653529e+000  6.500000e+000
      vertex -4.672046e+000 -5.212676e+000  0.000000e+000
    endloop
  endfacet
  facet normal -6.293387e-001 -7.771312e-001  0.000000e+000
    outer loop
      vertex -4.672046e+000 -5.212676e+000  0.000000e+000
      vertex -4.127664e+000 -5.653529e+000  6.500000e+000
      vertex -4.672046e+000 -5.212676e+000  6.500000e+000
    endloop
  endfacet
  facet normal -7.038595e-001 -7.103392e-001  -0.000000e+000
    outer loop
      vertex -4.672046e+000 -5.212676e+000  0.000000e+000
      vertex -4.672046e+000 -5.212676e+000  6.500000e+000
      vertex -5.169641e+000 -4.719620e+000  0.000000e+000
    endloop
  endfacet
  facet normal -7.038595e-001 -7.103392e-001  0.000000e+000
    outer loop
      vertex -5.169641e+000 -4.719620e+000  0.000000e+000
      vertex -4.672046e+000 -5.212676e+000  6.500000e+000
      vertex -5.169641e+000 -4.719620e+000  6.500000e+000
    endloop
  endfacet
  facet normal -7.713309e-001 -6.364344e-001  -0.000000e+000
    outer loop
      vertex -5.169641e+000 -4.719620e+000  0.000000e+000
      vertex -5.169641e+000 -4.719620e+000  6.500000e+000
      vertex -5.615464e+000 -4.179301e+000  0.000000e+000
    endloop
  endfacet
  facet normal -7.713309e-001 -6.364344e-001  0.000000e+000
    outer loop
      vertex -5.615464e+000 -4.179301e+000  0.000000e+000
      vertex -5.169641e+000 -4.719620e+000  6.500000e+000
      vertex -5.615464e+000 -4.179301e+000  6.500000e+000
    endloop
  endfacet
  facet normal -8.310776e-001 -5.561565e-001  -0.000000e+000
    outer loop
      vertex -5.615464e+000 -4.179301e+000  0.000000e+000
      vertex -5.615464e+000 -4.179301e+000  6.500000e+000
      vertex -6.005053e+000 -3.597130e+000  0.000000e+000
    endloop
  endfacet
  facet normal -8.310776e-001 -5.561565e-001  0.000000e+000
    outer loop
      vertex -6.005053e+000 -3.597130e+000  0.000000e+000
      vertex -5.615464e+000 -4.179301e+000  6.500000e+000
      vertex -6.005053e+000 -3.597130e+000  6.500000e+000
    endloop
  endfacet
  facet normal -8.825026e-001 -4.703076e-001  -0.000000e+000
    outer loop
      vertex -6.005053e+000 -3.597130e+000  0.000000e+000
      vertex -6.005053e+000 -3.597130e+000  6.500000e+000
      vertex -6.334505e+000 -2.978935e+000  0.000000e+000
    endloop
  endfacet
  facet normal -8.825026e-001 -4.703076e-001  0.000000e+000
    outer loop
      vertex -6.334505e+000 -2.978935e+000  0.000000e+000
      vertex -6.005053e+000 -3.597130e+000  6.500000e+000
      vertex -6.334505e+000 -2.978935e+000  6.500000e+000
    endloop
  endfacet
  facet normal -9.250889e-001 -3.797503e-001  -0.000000e+000
    outer loop
      vertex -6.334505e+000 -2.978935e+000  0.000000e+000
      vertex -6.334505e+000 -2.978935e+000  6.500000e+000
      vertex -6.600521e+000 -2.330908e+000  0.000000e+000
    endloop
  endfacet
  facet normal -9.250889e-001 -3.797503e-001  0.000000e+000
    outer loop
      vertex -6.600521e+000 -2.330908e+000  0.000000e+000
      vertex -6.334505e+000 -2.978935e+000  6.500000e+000
      vertex -6.600521e+000 -2.330908e+000  6.500000e+000
    endloop
  endfacet
  facet normal -9.584117e-001 -2.853893e-001  -0.000000e+000
    outer loop
      vertex -6.600521e+000 -2.330908e+000  0.000000e+000
      vertex -6.600521e+000 -2.330908e+000  6.500000e+000
      vertex -6.800436e+000 -1.659538e+000  0.000000e+000
    endloop
  endfacet
  facet normal -9.584117e-001 -2.853893e-001  0.000000e+000
    outer loop
      vertex -6.800436e+000 -1.659538e+000  0.000000e+000
      vertex -6.600521e+000 -2.330908e+000  6.500000e+000
      vertex -6.800436e+000 -1.659538e+000  6.500000e+000
    endloop
  endfacet
  facet normal -9.821364e-001 -1.881700e-001  -0.000000e+000
    outer loop
      vertex -6.800436e+000 -1.659538e+000  0.000000e+000
      vertex -6.800436e+000 -1.659538e+000  6.500000e+000
      vertex -6.932250e+000 -9.715492e-001  0.000000e+000
    endloop
  endfacet
  facet normal -9.821364e-001 -1.881700e-001  0.000000e+000
    outer loop
      vertex -6.932250e+000 -9.715492e-001  0.000000e+000
      vertex -6.800436e+000 -1.659538e+000  6.500000e+000
      vertex -6.932250e+000 -9.715492e-001  6.500000e+000
    endloop
  endfacet
  facet normal -9.960256e-001 -8.906717e-002  -0.000000e+000
    outer loop
      vertex -6.932250e+000 -9.715492e-001  0.000000e+000
      vertex -6.932250e+000 -9.715492e-001  6.500000e+000
      vertex -6.994642e+000 -2.738310e-001  0.000000e+000
    endloop
  endfacet
  facet normal -9.960256e-001 -8.906717e-002  0.000000e+000
    outer loop
      vertex -6.994642e+000 -2.738310e-001  0.000000e+000
      vertex -6.932250e+000 -9.715492e-001  6.500000e+000
      vertex -6.994642e+000 -2.738310e-001  6.500000e+000
    endloop
  endfacet
  facet normal -9.999403e-001  1.092740e-002  0.000000e+000
    outer loop
      vertex -6.994642e+000 -2.738310e-001  0.000000e+000
      vertex -6.994642e+000 -2.738310e-001  6.500000e+000
      vertex -6.986987e+000  4.266295e-001  0.000000e+000
    endloop
  endfacet
  facet normal -9.999403e-001  1.092740e-002  0.000000e+000
    outer loop
      vertex -6.986987e+000  4.266295e-001  0.000000e+000
      vertex -6.994642e+000 -2.738310e-001  6.500000e+000
      vertex -6.986987e+000  4.266295e-001  6.500000e+000
    endloop
  endfacet
  facet normal -9.938412e-001  1.108137e-001  0.000000e+000
    outer loop
      vertex -6.986987e+000  4.266295e-001  0.000000e+000
      vertex -6.986987e+000  4.266295e-001  6.500000e+000
      vertex -6.909362e+000  1.122818e+000  0.000000e+000
    endloop
  endfacet
  facet normal -9.938412e-001  1.108137e-001  0.000000e+000
    outer loop
      vertex -6.909362e+000  1.122818e+000  0.000000e+000
      vertex -6.986987e+000  4.266295e-001  6.500000e+000
      vertex -6.909362e+000  1.122818e+000  6.500000e+000
    endloop
  endfacet
  facet normal -9.764356e-001  2.158087e-001  0.000000e+000
    outer loop
      vertex -6.711527e+000  2.017928e+000  0.000000e+000
      vertex -6.909362e+000  1.122818e+000  0.000000e+000
      vertex -6.711527e+000  2.017928e+000  6.500000e+000
    endloop
  endfacet
  facet normal -9.764356e-001  2.158087e-001  0.000000e+000
    outer loop
      vertex -6.711527e+000  2.017928e+000  6.500000e+000
      vertex -6.909362e+000  1.122818e+000  0.000000e+000
      vertex -6.909362e+000  1.122818e+000  6.500000e+000
    endloop
  endfacet
  facet normal -7.325820e-001  6.806788e-001  0.000000e+000
    outer loop
      vertex -6.711527e+000  2.017928e+000  0.000000e+000
      vertex -6.711527e+000  2.017928e+000  6.500000e+000
      vertex -4.755769e+000  4.122818e+000  0.000000e+000
    endloop
  endfacet
  facet normal -7.325820e-001  6.806788e-001  0.000000e+000
    outer loop
      vertex -4.755769e+000  4.122818e+000  0.000000e+000
      vertex -6.711527e+000  2.017928e+000  6.500000e+000
      vertex -4.755769e+000  4.122818e+000  6.500000e+000
    endloop
  endfacet
  facet normal  0.000000e+000  1.000000e+000  0.000000e+000
    outer loop
      vertex -4.755769e+000  4.122818e+000  0.000000e+000
      vertex -4.755769e+000  4.122818e+000  6.500000e+000
      vertex -3.755769e+000  4.122818e+000  0.000000e+000
    endloop
  endfacet
  facet normal  0.000000e+000  1.000000e+000  -0.000000e+000
    outer loop
      vertex -3.755769e+000  4.122818e+000  0.000000e+000
      vertex -4.755769e+000  4.122818e+000  6.500000e+000
      vertex -3.755769e+000  4.122818e+000  6.500000e+000
    endloop
  endfacet
  facet normal  9.944429e-001  1.052770e-001  0.000000e+000
    outer loop
      vertex -3.755769e+000  4.122818e+000  0.000000e+000
      vertex -3.755769e+000  4.122818e+000  6.500000e+000
      vertex -3.712311e+000  3.712311e+000  0.000000e+000
    endloop
  endfacet
  facet normal  9.944429e-001  1.052770e-001  -0.000000e+000
    outer loop
      vertex -3.712311e+000  3.712311e+000  0.000000e+000
      vertex -3.755769e+000  4.122818e+000  6.500000e+000
      vertex -3.712311e+000  3.712311e+000  6.500000e+000
    endloop
  endfacet
endsolid CATIA STL
