%TF.GenerationSoftware,KiCad,Pcbnew,(6.0.1)*%
%TF.CreationDate,2022-02-07T13:50:03+01:00*%
%TF.ProjectId,Carte_elec_video_tigresse2,43617274-655f-4656-9c65-635f76696465,v1.0*%
%TF.SameCoordinates,PXa21fe80PY7de2900*%
%TF.FileFunction,Copper,L1,Top*%
%TF.FilePolarity,Positive*%
%FSLAX46Y46*%
G04 Gerber Fmt 4.6, Leading zero omitted, Abs format (unit mm)*
G04 Created by KiCad (PCBNEW (6.0.1)) date 2022-02-07 13:50:03*
%MOMM*%
%LPD*%
G01*
G04 APERTURE LIST*
G04 Aperture macros list*
%AMRoundRect*
0 Rectangle with rounded corners*
0 $1 Rounding radius*
0 $2 $3 $4 $5 $6 $7 $8 $9 X,Y pos of 4 corners*
0 Add a 4 corners polygon primitive as box body*
4,1,4,$2,$3,$4,$5,$6,$7,$8,$9,$2,$3,0*
0 Add four circle primitives for the rounded corners*
1,1,$1+$1,$2,$3*
1,1,$1+$1,$4,$5*
1,1,$1+$1,$6,$7*
1,1,$1+$1,$8,$9*
0 Add four rect primitives between the rounded corners*
20,1,$1+$1,$2,$3,$4,$5,0*
20,1,$1+$1,$4,$5,$6,$7,0*
20,1,$1+$1,$6,$7,$8,$9,0*
20,1,$1+$1,$8,$9,$2,$3,0*%
G04 Aperture macros list end*
%TA.AperFunction,Profile*%
%ADD10C,0.100000*%
%TD*%
%TA.AperFunction,ComponentPad*%
%ADD11R,2.000000X1.905000*%
%TD*%
%TA.AperFunction,ComponentPad*%
%ADD12O,2.000000X1.905000*%
%TD*%
%TA.AperFunction,ComponentPad*%
%ADD13RoundRect,0.250000X-0.350000X-0.625000X0.350000X-0.625000X0.350000X0.625000X-0.350000X0.625000X0*%
%TD*%
%TA.AperFunction,ComponentPad*%
%ADD14O,1.200000X1.750000*%
%TD*%
%TA.AperFunction,ComponentPad*%
%ADD15C,1.400000*%
%TD*%
%TA.AperFunction,ComponentPad*%
%ADD16O,1.400000X1.400000*%
%TD*%
%TA.AperFunction,ComponentPad*%
%ADD17R,1.800000X1.800000*%
%TD*%
%TA.AperFunction,ComponentPad*%
%ADD18C,1.800000*%
%TD*%
%TA.AperFunction,ComponentPad*%
%ADD19C,4.400000*%
%TD*%
%TA.AperFunction,ComponentPad*%
%ADD20O,3.500000X2.200000*%
%TD*%
%TA.AperFunction,ComponentPad*%
%ADD21R,2.500000X1.500000*%
%TD*%
%TA.AperFunction,ComponentPad*%
%ADD22O,2.500000X1.500000*%
%TD*%
%TA.AperFunction,ComponentPad*%
%ADD23RoundRect,0.250000X0.350000X0.625000X-0.350000X0.625000X-0.350000X-0.625000X0.350000X-0.625000X0*%
%TD*%
%TA.AperFunction,Conductor*%
%ADD24C,0.500000*%
%TD*%
G04 APERTURE END LIST*
D10*
X0Y0D02*
X29000000Y0D01*
X0Y29000000D02*
X0Y0D01*
X29000000Y29000000D02*
X0Y29000000D01*
X29000000Y0D02*
X29000000Y29000000D01*
D11*
%TO.P,Q1,1,G*%
%TO.N,Net-(J1-Pad2)*%
X2055000Y16540000D03*
D12*
%TO.P,Q1,2,S*%
%TO.N,Net-(D2-Pad1)*%
X2055000Y14000000D03*
%TO.P,Q1,3,D*%
%TO.N,Net-(Q1-Pad3)*%
X2055000Y11460000D03*
%TD*%
D13*
%TO.P,J2,1,Pin_1*%
%TO.N,Net-(D2-Pad1)*%
X9200000Y6450000D03*
D14*
%TO.P,J2,2,Pin_2*%
%TO.N,GND*%
X11200000Y6450000D03*
%TD*%
D15*
%TO.P,R2,1*%
%TO.N,Net-(D2-Pad1)*%
X8460000Y17000000D03*
D16*
%TO.P,R2,2*%
%TO.N,Net-(D2-Pad2)*%
X13540000Y17000000D03*
%TD*%
D17*
%TO.P,D1,1,K*%
%TO.N,GND*%
X17460000Y12000000D03*
D18*
%TO.P,D1,2,A*%
%TO.N,Net-(D1-Pad2)*%
X20000000Y12000000D03*
%TD*%
D17*
%TO.P,D2,1,K*%
%TO.N,Net-(D2-Pad1)*%
X10000000Y12000000D03*
D18*
%TO.P,D2,2,A*%
%TO.N,Net-(D2-Pad2)*%
X12540000Y12000000D03*
%TD*%
D19*
%TO.P,H1,1*%
%TO.N,N/C*%
X3000000Y26000000D03*
%TD*%
D20*
%TO.P,SW1,*%
%TO.N,*%
X26000000Y10900000D03*
X26000000Y19100000D03*
D21*
%TO.P,SW1,1,A*%
%TO.N,Net-(J4-Pad2)*%
X26000000Y13000000D03*
D22*
%TO.P,SW1,2,B*%
%TO.N,Net-(Q1-Pad3)*%
X26000000Y15000000D03*
%TO.P,SW1,3*%
%TO.N,N/C*%
X26000000Y17000000D03*
%TD*%
D13*
%TO.P,J3,1,Pin_1*%
%TO.N,Net-(D2-Pad1)*%
X17600000Y6450000D03*
D14*
%TO.P,J3,2,Pin_2*%
%TO.N,GND*%
X19600000Y6450000D03*
%TD*%
D23*
%TO.P,J4,1,Pin_1*%
%TO.N,GND*%
X20000000Y22550000D03*
D14*
%TO.P,J4,2,Pin_2*%
%TO.N,Net-(J4-Pad2)*%
X18000000Y22550000D03*
%TD*%
D15*
%TO.P,R1,1*%
%TO.N,Net-(J1-Pad2)*%
X16460000Y17000000D03*
D16*
%TO.P,R1,2*%
%TO.N,Net-(D1-Pad2)*%
X21540000Y17000000D03*
%TD*%
D23*
%TO.P,J1,1,Pin_1*%
%TO.N,GND*%
X11000000Y22550000D03*
D14*
%TO.P,J1,2,Pin_2*%
%TO.N,Net-(J1-Pad2)*%
X9000000Y22550000D03*
%TD*%
D19*
%TO.P,H2,1*%
%TO.N,N/C*%
X3000000Y3000000D03*
%TD*%
%TO.P,H3,1*%
%TO.N,N/C*%
X26000000Y3000000D03*
%TD*%
%TO.P,H4,1*%
%TO.N,N/C*%
X26000000Y26000000D03*
%TD*%
D24*
%TO.N,GND*%
X12200000Y20600000D02*
X19500000Y20600000D01*
X17460000Y12000000D02*
X17460000Y13960000D01*
X11000000Y21800000D02*
X12200000Y20600000D01*
X17460000Y13960000D02*
X19500000Y16000000D01*
X17460000Y9940000D02*
X17460000Y12000000D01*
X19600000Y6450000D02*
X19600000Y7800000D01*
X11000000Y22550000D02*
X11000000Y21800000D01*
X19600000Y7800000D02*
X17460000Y9940000D01*
X16750000Y12000000D02*
X17460000Y12000000D01*
X20000000Y21100000D02*
X20000000Y22550000D01*
X19500000Y20600000D02*
X20000000Y21100000D01*
X19500000Y16000000D02*
X19500000Y20600000D01*
X11200000Y6450000D02*
X16750000Y12000000D01*
%TO.N,Net-(J1-Pad2)*%
X5450000Y22550000D02*
X2055000Y19155000D01*
X9000000Y22550000D02*
X5450000Y22550000D01*
X16460000Y18440000D02*
X15400000Y19500000D01*
X15400000Y19500000D02*
X10500000Y19500000D01*
X16460000Y17000000D02*
X16460000Y18440000D01*
X10500000Y19500000D02*
X9000000Y21000000D01*
X2055000Y19155000D02*
X2055000Y16540000D01*
X9000000Y21000000D02*
X9000000Y22550000D01*
%TO.N,Net-(J4-Pad2)*%
X18000000Y22550000D02*
X18000000Y24000000D01*
X24300000Y13000000D02*
X26000000Y13000000D01*
X23500000Y22900000D02*
X23500000Y13800000D01*
X23500000Y13800000D02*
X24300000Y13000000D01*
X18500000Y24500000D02*
X21900000Y24500000D01*
X21900000Y24500000D02*
X23500000Y22900000D01*
X18000000Y24000000D02*
X18500000Y24500000D01*
%TO.N,Net-(D1-Pad2)*%
X21540000Y13540000D02*
X20000000Y12000000D01*
X21540000Y17000000D02*
X21540000Y13540000D01*
%TO.N,Net-(D2-Pad1)*%
X10000000Y15460000D02*
X10000000Y12000000D01*
X17000000Y4300000D02*
X17600000Y4900000D01*
X9200000Y6450000D02*
X9200000Y5000000D01*
X9900000Y4300000D02*
X17000000Y4300000D01*
X2055000Y14000000D02*
X5460000Y14000000D01*
X9200000Y5000000D02*
X9900000Y4300000D01*
X8460000Y17000000D02*
X10000000Y15460000D01*
X9200000Y11200000D02*
X9200000Y6450000D01*
X17600000Y4900000D02*
X17600000Y6450000D01*
X10000000Y12000000D02*
X9200000Y11200000D01*
X5460000Y14000000D02*
X8460000Y17000000D01*
%TO.N,Net-(D2-Pad2)*%
X13540000Y13000000D02*
X13540000Y17000000D01*
X12540000Y12000000D02*
X13540000Y13000000D01*
%TO.N,Net-(Q1-Pad3)*%
X28400000Y8700000D02*
X27400000Y7700000D01*
X8500000Y3100000D02*
X2055000Y9545000D01*
X26000000Y15000000D02*
X27800000Y15000000D01*
X27400000Y7700000D02*
X24700000Y7700000D01*
X27800000Y15000000D02*
X28400000Y14400000D01*
X24700000Y7700000D02*
X20100000Y3100000D01*
X20100000Y3100000D02*
X8500000Y3100000D01*
X2055000Y9545000D02*
X2055000Y11460000D01*
X28400000Y14400000D02*
X28400000Y8700000D01*
%TD*%
M02*
