%FSLAX45Y45*%
G04 Gerber Fmt 4.5, Leading zero omitted, Abs format (unit mm)*
G04 Created by KiCad (PCBNEW (6.0.0)) date 2022-01-22 14:07:24*
%MOMM*%
%LPD*%
G01*
G04 APERTURE LIST*
%TA.AperFunction,Profile*%
%ADD10C,0.100000*%
%TD*%
%ADD11C,0.200000*%
G04 APERTURE END LIST*
D10*
X17000000Y-13200000D02*
X19900000Y-13200000D01*
X17000000Y-10300000D02*
X17000000Y-13200000D01*
X19900000Y-10300000D02*
X17000000Y-10300000D01*
X19900000Y-13200000D02*
X19900000Y-10300000D01*
D11*
X17252619Y-13515476D02*
X17252619Y-13315476D01*
X17300238Y-13315476D01*
X17328810Y-13325000D01*
X17347857Y-13344048D01*
X17357381Y-13363095D01*
X17366905Y-13401190D01*
X17366905Y-13429762D01*
X17357381Y-13467857D01*
X17347857Y-13486905D01*
X17328810Y-13505952D01*
X17300238Y-13515476D01*
X17252619Y-13515476D01*
X17452619Y-13515476D02*
X17452619Y-13382143D01*
X17452619Y-13420238D02*
X17462143Y-13401190D01*
X17471667Y-13391667D01*
X17490714Y-13382143D01*
X17509762Y-13382143D01*
X17576429Y-13515476D02*
X17576429Y-13382143D01*
X17576429Y-13315476D02*
X17566905Y-13325000D01*
X17576429Y-13334524D01*
X17585952Y-13325000D01*
X17576429Y-13315476D01*
X17576429Y-13334524D01*
X17700238Y-13515476D02*
X17681190Y-13505952D01*
X17671667Y-13486905D01*
X17671667Y-13315476D01*
X17805000Y-13515476D02*
X17785952Y-13505952D01*
X17776429Y-13486905D01*
X17776429Y-13315476D01*
X18033571Y-13515476D02*
X18033571Y-13315476D01*
X18100238Y-13458333D01*
X18166905Y-13315476D01*
X18166905Y-13515476D01*
X18347857Y-13515476D02*
X18347857Y-13410714D01*
X18338333Y-13391667D01*
X18319286Y-13382143D01*
X18281190Y-13382143D01*
X18262143Y-13391667D01*
X18347857Y-13505952D02*
X18328810Y-13515476D01*
X18281190Y-13515476D01*
X18262143Y-13505952D01*
X18252619Y-13486905D01*
X18252619Y-13467857D01*
X18262143Y-13448809D01*
X18281190Y-13439286D01*
X18328810Y-13439286D01*
X18347857Y-13429762D01*
X18443095Y-13382143D02*
X18443095Y-13582143D01*
X18443095Y-13391667D02*
X18462143Y-13382143D01*
X18500238Y-13382143D01*
X18519286Y-13391667D01*
X18528810Y-13401190D01*
X18538333Y-13420238D01*
X18538333Y-13477381D01*
X18528810Y-13496428D01*
X18519286Y-13505952D01*
X18500238Y-13515476D01*
X18462143Y-13515476D01*
X18443095Y-13505952D01*
X18624048Y-13496428D02*
X18633571Y-13505952D01*
X18624048Y-13515476D01*
X18614524Y-13505952D01*
X18624048Y-13496428D01*
X18624048Y-13515476D01*
X18624048Y-13391667D02*
X18633571Y-13401190D01*
X18624048Y-13410714D01*
X18614524Y-13401190D01*
X18624048Y-13391667D01*
X18624048Y-13410714D01*
M02*
