%TF.GenerationSoftware,KiCad,Pcbnew,(6.0.0)*%
%TF.CreationDate,2022-01-22T14:04:59+01:00*%
%TF.ProjectId,Carte_elec_video_tigresse2,43617274-655f-4656-9c65-635f76696465,rev?*%
%TF.SameCoordinates,Original*%
%TF.FileFunction,Copper,L2,Bot*%
%TF.FilePolarity,Positive*%
%FSLAX46Y46*%
G04 Gerber Fmt 4.6, Leading zero omitted, Abs format (unit mm)*
G04 Created by KiCad (PCBNEW (6.0.0)) date 2022-01-22 14:04:59*
%MOMM*%
%LPD*%
G01*
G04 APERTURE LIST*
G04 Aperture macros list*
%AMRoundRect*
0 Rectangle with rounded corners*
0 $1 Rounding radius*
0 $2 $3 $4 $5 $6 $7 $8 $9 X,Y pos of 4 corners*
0 Add a 4 corners polygon primitive as box body*
4,1,4,$2,$3,$4,$5,$6,$7,$8,$9,$2,$3,0*
0 Add four circle primitives for the rounded corners*
1,1,$1+$1,$2,$3*
1,1,$1+$1,$4,$5*
1,1,$1+$1,$6,$7*
1,1,$1+$1,$8,$9*
0 Add four rect primitives between the rounded corners*
20,1,$1+$1,$2,$3,$4,$5,0*
20,1,$1+$1,$4,$5,$6,$7,0*
20,1,$1+$1,$6,$7,$8,$9,0*
20,1,$1+$1,$8,$9,$2,$3,0*%
G04 Aperture macros list end*
%TA.AperFunction,Profile*%
%ADD10C,0.100000*%
%TD*%
%ADD11C,0.300000*%
%TA.AperFunction,NonConductor*%
%ADD12C,0.300000*%
%TD*%
%TA.AperFunction,NonConductor*%
%ADD13C,0.200000*%
%TD*%
%TA.AperFunction,ComponentPad*%
%ADD14R,2.000000X1.905000*%
%TD*%
%TA.AperFunction,ComponentPad*%
%ADD15O,2.000000X1.905000*%
%TD*%
%TA.AperFunction,ComponentPad*%
%ADD16RoundRect,0.250000X-0.350000X-0.625000X0.350000X-0.625000X0.350000X0.625000X-0.350000X0.625000X0*%
%TD*%
%TA.AperFunction,ComponentPad*%
%ADD17O,1.200000X1.750000*%
%TD*%
%TA.AperFunction,ComponentPad*%
%ADD18C,1.400000*%
%TD*%
%TA.AperFunction,ComponentPad*%
%ADD19O,1.400000X1.400000*%
%TD*%
%TA.AperFunction,ComponentPad*%
%ADD20R,1.800000X1.800000*%
%TD*%
%TA.AperFunction,ComponentPad*%
%ADD21C,1.800000*%
%TD*%
%TA.AperFunction,ComponentPad*%
%ADD22C,4.400000*%
%TD*%
%TA.AperFunction,ComponentPad*%
%ADD23O,3.500000X2.200000*%
%TD*%
%TA.AperFunction,ComponentPad*%
%ADD24R,2.500000X1.500000*%
%TD*%
%TA.AperFunction,ComponentPad*%
%ADD25O,2.500000X1.500000*%
%TD*%
%TA.AperFunction,ComponentPad*%
%ADD26RoundRect,0.250000X0.350000X0.625000X-0.350000X0.625000X-0.350000X-0.625000X0.350000X-0.625000X0*%
%TD*%
%TA.AperFunction,Conductor*%
%ADD27C,0.250000*%
%TD*%
G04 APERTURE END LIST*
D10*
X170000000Y-132000000D02*
X199000000Y-132000000D01*
X170000000Y-103000000D02*
X170000000Y-132000000D01*
X199000000Y-103000000D02*
X170000000Y-103000000D01*
X199000000Y-132000000D02*
X199000000Y-103000000D01*
D11*
D12*
X177571428Y-94521428D02*
X177642857Y-94450000D01*
X177785714Y-94378571D01*
X178142857Y-94378571D01*
X178285714Y-94450000D01*
X178357142Y-94521428D01*
X178428571Y-94664285D01*
X178428571Y-94807142D01*
X178357142Y-95021428D01*
X177500000Y-95878571D01*
X178428571Y-95878571D01*
X178928571Y-94378571D02*
X179857142Y-94378571D01*
X179357142Y-94950000D01*
X179571428Y-94950000D01*
X179714285Y-95021428D01*
X179785714Y-95092857D01*
X179857142Y-95235714D01*
X179857142Y-95592857D01*
X179785714Y-95735714D01*
X179714285Y-95807142D01*
X179571428Y-95878571D01*
X179142857Y-95878571D01*
X179000000Y-95807142D01*
X178928571Y-95735714D01*
X180571428Y-95807142D02*
X180571428Y-95878571D01*
X180500000Y-96021428D01*
X180428571Y-96092857D01*
X181500000Y-94378571D02*
X181642857Y-94378571D01*
X181785714Y-94450000D01*
X181857142Y-94521428D01*
X181928571Y-94664285D01*
X182000000Y-94950000D01*
X182000000Y-95307142D01*
X181928571Y-95592857D01*
X181857142Y-95735714D01*
X181785714Y-95807142D01*
X181642857Y-95878571D01*
X181500000Y-95878571D01*
X181357142Y-95807142D01*
X181285714Y-95735714D01*
X181214285Y-95592857D01*
X181142857Y-95307142D01*
X181142857Y-94950000D01*
X181214285Y-94664285D01*
X181285714Y-94521428D01*
X181357142Y-94450000D01*
X181500000Y-94378571D01*
X182928571Y-94378571D02*
X183071428Y-94378571D01*
X183214285Y-94450000D01*
X183285714Y-94521428D01*
X183357142Y-94664285D01*
X183428571Y-94950000D01*
X183428571Y-95307142D01*
X183357142Y-95592857D01*
X183285714Y-95735714D01*
X183214285Y-95807142D01*
X183071428Y-95878571D01*
X182928571Y-95878571D01*
X182785714Y-95807142D01*
X182714285Y-95735714D01*
X182642857Y-95592857D01*
X182571428Y-95307142D01*
X182571428Y-94950000D01*
X182642857Y-94664285D01*
X182714285Y-94521428D01*
X182785714Y-94450000D01*
X182928571Y-94378571D01*
X184357142Y-94378571D02*
X184500000Y-94378571D01*
X184642857Y-94450000D01*
X184714285Y-94521428D01*
X184785714Y-94664285D01*
X184857142Y-94950000D01*
X184857142Y-95307142D01*
X184785714Y-95592857D01*
X184714285Y-95735714D01*
X184642857Y-95807142D01*
X184500000Y-95878571D01*
X184357142Y-95878571D01*
X184214285Y-95807142D01*
X184142857Y-95735714D01*
X184071428Y-95592857D01*
X184000000Y-95307142D01*
X184000000Y-94950000D01*
X184071428Y-94664285D01*
X184142857Y-94521428D01*
X184214285Y-94450000D01*
X184357142Y-94378571D01*
X185785714Y-94378571D02*
X185928571Y-94378571D01*
X186071428Y-94450000D01*
X186142857Y-94521428D01*
X186214285Y-94664285D01*
X186285714Y-94950000D01*
X186285714Y-95307142D01*
X186214285Y-95592857D01*
X186142857Y-95735714D01*
X186071428Y-95807142D01*
X185928571Y-95878571D01*
X185785714Y-95878571D01*
X185642857Y-95807142D01*
X185571428Y-95735714D01*
X185500000Y-95592857D01*
X185428571Y-95307142D01*
X185428571Y-94950000D01*
X185500000Y-94664285D01*
X185571428Y-94521428D01*
X185642857Y-94450000D01*
X185785714Y-94378571D01*
X188071428Y-95878571D02*
X188071428Y-94878571D01*
X188071428Y-95021428D02*
X188142857Y-94950000D01*
X188285714Y-94878571D01*
X188500000Y-94878571D01*
X188642857Y-94950000D01*
X188714285Y-95092857D01*
X188714285Y-95878571D01*
X188714285Y-95092857D02*
X188785714Y-94950000D01*
X188928571Y-94878571D01*
X189142857Y-94878571D01*
X189285714Y-94950000D01*
X189357142Y-95092857D01*
X189357142Y-95878571D01*
X190071428Y-95878571D02*
X190071428Y-94878571D01*
X190071428Y-95021428D02*
X190142857Y-94950000D01*
X190285714Y-94878571D01*
X190500000Y-94878571D01*
X190642857Y-94950000D01*
X190714285Y-95092857D01*
X190714285Y-95878571D01*
X190714285Y-95092857D02*
X190785714Y-94950000D01*
X190928571Y-94878571D01*
X191142857Y-94878571D01*
X191285714Y-94950000D01*
X191357142Y-95092857D01*
X191357142Y-95878571D01*
D13*
X196000000Y-105500000D02*
X196000000Y-96413580D01*
X173000000Y-105500000D02*
X173000000Y-96413580D01*
X196000000Y-97000000D02*
X192614286Y-97000000D01*
X176385715Y-97000000D02*
X173000000Y-97000000D01*
X196000000Y-97000000D02*
X194873496Y-96413579D01*
X196000000Y-97000000D02*
X194873496Y-97586421D01*
X173000000Y-97000000D02*
X174126504Y-97586421D01*
X173000000Y-97000000D02*
X174126504Y-96413579D01*
D14*
%TO.P,Q1,1,G*%
%TO.N,Net-(J1-Pad2)*%
X172055000Y-115460000D03*
D15*
%TO.P,Q1,2,S*%
%TO.N,Net-(D2-Pad1)*%
X172055000Y-118000000D03*
%TO.P,Q1,3,D*%
%TO.N,Net-(Q1-Pad3)*%
X172055000Y-120540000D03*
%TD*%
D16*
%TO.P,J2,1,Pin_1*%
%TO.N,Net-(D2-Pad1)*%
X179200000Y-125550000D03*
D17*
%TO.P,J2,2,Pin_2*%
%TO.N,GND*%
X181200000Y-125550000D03*
%TD*%
D18*
%TO.P,R2,1*%
%TO.N,Net-(D2-Pad1)*%
X178460000Y-115000000D03*
D19*
%TO.P,R2,2*%
%TO.N,Net-(D2-Pad2)*%
X183540000Y-115000000D03*
%TD*%
D20*
%TO.P,D1,1,K*%
%TO.N,GND*%
X187460000Y-120000000D03*
D21*
%TO.P,D1,2,A*%
%TO.N,Net-(D1-Pad2)*%
X190000000Y-120000000D03*
%TD*%
D20*
%TO.P,D2,1,K*%
%TO.N,Net-(D2-Pad1)*%
X180000000Y-120000000D03*
D21*
%TO.P,D2,2,A*%
%TO.N,Net-(D2-Pad2)*%
X182540000Y-120000000D03*
%TD*%
D22*
%TO.P,H1,1*%
%TO.N,N/C*%
X173000000Y-106000000D03*
%TD*%
D23*
%TO.P,SW1,*%
%TO.N,*%
X196000000Y-121100000D03*
X196000000Y-112900000D03*
D24*
%TO.P,SW1,1,A*%
%TO.N,Net-(J4-Pad2)*%
X196000000Y-119000000D03*
D25*
%TO.P,SW1,2,B*%
%TO.N,Net-(Q1-Pad3)*%
X196000000Y-117000000D03*
%TO.P,SW1,3*%
%TO.N,N/C*%
X196000000Y-115000000D03*
%TD*%
D16*
%TO.P,J3,1,Pin_1*%
%TO.N,Net-(D2-Pad1)*%
X187600000Y-125550000D03*
D17*
%TO.P,J3,2,Pin_2*%
%TO.N,GND*%
X189600000Y-125550000D03*
%TD*%
D26*
%TO.P,J4,1,Pin_1*%
%TO.N,GND*%
X190000000Y-109450000D03*
D17*
%TO.P,J4,2,Pin_2*%
%TO.N,Net-(J4-Pad2)*%
X188000000Y-109450000D03*
%TD*%
D18*
%TO.P,R1,1*%
%TO.N,Net-(J1-Pad2)*%
X186460000Y-115000000D03*
D19*
%TO.P,R1,2*%
%TO.N,Net-(D1-Pad2)*%
X191540000Y-115000000D03*
%TD*%
D26*
%TO.P,J1,1,Pin_1*%
%TO.N,GND*%
X181000000Y-109450000D03*
D17*
%TO.P,J1,2,Pin_2*%
%TO.N,Net-(J1-Pad2)*%
X179000000Y-109450000D03*
%TD*%
D22*
%TO.P,H2,1*%
%TO.N,N/C*%
X173000000Y-129000000D03*
%TD*%
%TO.P,H3,1*%
%TO.N,N/C*%
X196000000Y-129000000D03*
%TD*%
%TO.P,H4,1*%
%TO.N,N/C*%
X196000000Y-106000000D03*
%TD*%
D27*
%TO.N,GND*%
X181200000Y-125550000D02*
X182399520Y-124350480D01*
X182399520Y-124350480D02*
X188050480Y-124350480D01*
X190000000Y-109450000D02*
X188775489Y-110674511D01*
X187460000Y-123760000D02*
X188050480Y-124350480D01*
X187460000Y-120000000D02*
X187460000Y-123760000D01*
X188400480Y-124350480D02*
X189600000Y-125550000D01*
X188775489Y-118684511D02*
X187460000Y-120000000D01*
X182374511Y-110824511D02*
X188775489Y-110824511D01*
X188775489Y-110674511D02*
X188775489Y-110824511D01*
X188050480Y-124350480D02*
X188400480Y-124350480D01*
X181000000Y-109450000D02*
X182374511Y-110824511D01*
X188775489Y-110824511D02*
X188775489Y-118684511D01*
%TO.N,Net-(J1-Pad2)*%
X179000000Y-109450000D02*
X178065000Y-109450000D01*
X185435489Y-113975489D02*
X186460000Y-115000000D01*
X178065000Y-109450000D02*
X172055000Y-115460000D01*
X179000000Y-109450000D02*
X183525489Y-113975489D01*
X183525489Y-113975489D02*
X185435489Y-113975489D01*
%TO.N,Net-(J4-Pad2)*%
X189199520Y-108250480D02*
X194050480Y-108250480D01*
X198074520Y-112274520D02*
X198074520Y-118025480D01*
X194050480Y-108250480D02*
X198074520Y-112274520D01*
X197100000Y-119000000D02*
X196000000Y-119000000D01*
X198074520Y-118025480D02*
X197100000Y-119000000D01*
X188000000Y-109450000D02*
X189199520Y-108250480D01*
%TO.N,Net-(D1-Pad2)*%
X190000000Y-120000000D02*
X191540000Y-118460000D01*
X191540000Y-118460000D02*
X191540000Y-115000000D01*
%TO.N,Net-(D2-Pad1)*%
X180200000Y-118200000D02*
X180000000Y-118400000D01*
X172055000Y-118000000D02*
X175460000Y-118000000D01*
X180399520Y-126749520D02*
X179200000Y-125550000D01*
X187600000Y-125550000D02*
X186400480Y-126749520D01*
X180000000Y-124750000D02*
X179200000Y-125550000D01*
X186400480Y-126749520D02*
X180399520Y-126749520D01*
X175460000Y-118000000D02*
X180000000Y-118000000D01*
X180000000Y-120000000D02*
X180000000Y-124750000D01*
X180000000Y-118000000D02*
X180200000Y-118200000D01*
X180000000Y-118400000D02*
X180000000Y-120000000D01*
X175460000Y-118000000D02*
X178460000Y-115000000D01*
%TO.N,Net-(D2-Pad2)*%
X182540000Y-116000000D02*
X183540000Y-115000000D01*
X182540000Y-120000000D02*
X182540000Y-116000000D01*
%TO.N,Net-(Q1-Pad3)*%
X178815000Y-127300000D02*
X190800000Y-127300000D01*
X193900000Y-118600000D02*
X195500000Y-117000000D01*
X195500000Y-117000000D02*
X196000000Y-117000000D01*
X193900000Y-124200000D02*
X193900000Y-118600000D01*
X172055000Y-120540000D02*
X178815000Y-127300000D01*
X190800000Y-127300000D02*
X193900000Y-124200000D01*
%TD*%
%TA.AperFunction,Conductor*%
%TO.N,GND*%
G36*
X193937016Y-104020002D02*
G01*
X193983509Y-104073658D01*
X193993613Y-104143932D01*
X193967435Y-104204523D01*
X193782356Y-104436783D01*
X193779991Y-104439751D01*
X193608626Y-104717757D01*
X193471902Y-105014336D01*
X193470741Y-105017940D01*
X193470741Y-105017941D01*
X193462196Y-105044477D01*
X193371797Y-105325192D01*
X193371079Y-105328903D01*
X193371078Y-105328907D01*
X193310482Y-105642105D01*
X193310481Y-105642114D01*
X193309763Y-105645824D01*
X193286698Y-105971585D01*
X193302936Y-106297759D01*
X193303577Y-106301490D01*
X193303578Y-106301498D01*
X193318109Y-106386060D01*
X193358241Y-106619619D01*
X193451814Y-106932504D01*
X193582297Y-107231881D01*
X193584220Y-107235152D01*
X193584222Y-107235156D01*
X193697075Y-107427125D01*
X193714354Y-107495987D01*
X193691661Y-107563259D01*
X193636201Y-107607583D01*
X193588454Y-107616980D01*
X189278283Y-107616980D01*
X189267099Y-107616453D01*
X189259611Y-107614779D01*
X189251688Y-107615028D01*
X189191553Y-107616918D01*
X189187595Y-107616980D01*
X189159664Y-107616980D01*
X189155749Y-107617475D01*
X189155745Y-107617475D01*
X189155687Y-107617483D01*
X189155658Y-107617486D01*
X189143816Y-107618419D01*
X189099630Y-107619807D01*
X189082264Y-107624852D01*
X189080178Y-107625458D01*
X189060826Y-107629466D01*
X189048588Y-107631012D01*
X189048586Y-107631013D01*
X189040723Y-107632006D01*
X188999606Y-107648286D01*
X188988405Y-107652121D01*
X188945926Y-107664462D01*
X188939107Y-107668495D01*
X188939102Y-107668497D01*
X188928491Y-107674773D01*
X188910741Y-107683470D01*
X188891903Y-107690928D01*
X188885487Y-107695589D01*
X188885486Y-107695590D01*
X188856145Y-107716908D01*
X188846221Y-107723427D01*
X188814980Y-107741902D01*
X188814975Y-107741906D01*
X188808157Y-107745938D01*
X188793833Y-107760262D01*
X188778801Y-107773101D01*
X188762413Y-107785008D01*
X188734232Y-107819073D01*
X188726242Y-107827853D01*
X188465955Y-108088140D01*
X188403643Y-108122166D01*
X188335528Y-108118072D01*
X188263729Y-108093139D01*
X188208396Y-108085116D01*
X188060336Y-108063648D01*
X188060333Y-108063648D01*
X188054396Y-108062787D01*
X187843101Y-108072567D01*
X187711923Y-108104181D01*
X187643299Y-108120719D01*
X187643297Y-108120720D01*
X187637466Y-108122125D01*
X187632008Y-108124607D01*
X187632004Y-108124608D01*
X187516959Y-108176916D01*
X187444913Y-108209674D01*
X187272389Y-108332054D01*
X187126119Y-108484850D01*
X187011380Y-108662548D01*
X187009137Y-108668114D01*
X186935841Y-108849986D01*
X186932314Y-108858737D01*
X186891772Y-109066337D01*
X186891500Y-109071899D01*
X186891500Y-109777846D01*
X186906548Y-109935566D01*
X186966092Y-110138534D01*
X186968836Y-110143861D01*
X186968836Y-110143862D01*
X187016440Y-110236290D01*
X187062942Y-110326580D01*
X187193604Y-110492920D01*
X187198135Y-110496852D01*
X187198138Y-110496855D01*
X187284058Y-110571412D01*
X187353363Y-110631552D01*
X187358549Y-110634552D01*
X187358553Y-110634555D01*
X187454957Y-110690326D01*
X187536454Y-110737473D01*
X187736271Y-110806861D01*
X187742206Y-110807722D01*
X187742208Y-110807722D01*
X187939664Y-110836352D01*
X187939667Y-110836352D01*
X187945604Y-110837213D01*
X188156899Y-110827433D01*
X188335356Y-110784425D01*
X188356701Y-110779281D01*
X188356703Y-110779280D01*
X188362534Y-110777875D01*
X188367992Y-110775393D01*
X188367996Y-110775392D01*
X188483041Y-110723084D01*
X188555087Y-110690326D01*
X188727611Y-110567946D01*
X188731749Y-110563623D01*
X188731754Y-110563619D01*
X188819164Y-110472309D01*
X188880720Y-110436933D01*
X188951629Y-110440452D01*
X189009379Y-110481749D01*
X189017326Y-110493137D01*
X189048063Y-110542807D01*
X189057099Y-110554208D01*
X189171829Y-110668739D01*
X189183240Y-110677751D01*
X189321243Y-110762816D01*
X189334424Y-110768963D01*
X189488710Y-110820138D01*
X189502086Y-110823005D01*
X189596438Y-110832672D01*
X189602854Y-110833000D01*
X189727885Y-110833000D01*
X189743124Y-110828525D01*
X189744329Y-110827135D01*
X189746000Y-110819452D01*
X189746000Y-110814884D01*
X190254000Y-110814884D01*
X190258475Y-110830123D01*
X190259865Y-110831328D01*
X190267548Y-110832999D01*
X190397095Y-110832999D01*
X190403614Y-110832662D01*
X190499206Y-110822743D01*
X190512600Y-110819851D01*
X190666784Y-110768412D01*
X190679962Y-110762239D01*
X190817807Y-110676937D01*
X190829208Y-110667901D01*
X190943739Y-110553171D01*
X190952751Y-110541760D01*
X191037816Y-110403757D01*
X191043963Y-110390576D01*
X191095138Y-110236290D01*
X191098005Y-110222914D01*
X191107672Y-110128562D01*
X191108000Y-110122146D01*
X191108000Y-109722115D01*
X191103525Y-109706876D01*
X191102135Y-109705671D01*
X191094452Y-109704000D01*
X190272115Y-109704000D01*
X190256876Y-109708475D01*
X190255671Y-109709865D01*
X190254000Y-109717548D01*
X190254000Y-110814884D01*
X189746000Y-110814884D01*
X189746000Y-109322000D01*
X189766002Y-109253879D01*
X189819658Y-109207386D01*
X189872000Y-109196000D01*
X191089884Y-109196000D01*
X191105123Y-109191525D01*
X191106328Y-109190135D01*
X191107999Y-109182452D01*
X191107999Y-109009980D01*
X191128001Y-108941859D01*
X191181657Y-108895366D01*
X191233999Y-108883980D01*
X193735886Y-108883980D01*
X193804007Y-108903982D01*
X193824981Y-108920885D01*
X195980500Y-111076405D01*
X196014526Y-111138717D01*
X196009461Y-111209533D01*
X195966914Y-111266368D01*
X195900394Y-111291179D01*
X195891405Y-111291500D01*
X195286801Y-111291500D01*
X195284352Y-111291693D01*
X195284345Y-111291693D01*
X195197416Y-111298535D01*
X195097597Y-111306391D01*
X195092790Y-111307545D01*
X195092784Y-111307546D01*
X194936032Y-111345179D01*
X194851409Y-111365495D01*
X194846838Y-111367388D01*
X194846836Y-111367389D01*
X194622072Y-111460489D01*
X194622068Y-111460491D01*
X194617498Y-111462384D01*
X194401624Y-111594672D01*
X194209102Y-111759102D01*
X194044672Y-111951624D01*
X193912384Y-112167498D01*
X193910491Y-112172068D01*
X193910489Y-112172072D01*
X193839083Y-112344462D01*
X193815495Y-112401409D01*
X193756391Y-112647597D01*
X193736526Y-112900000D01*
X193756391Y-113152403D01*
X193815495Y-113398591D01*
X193817388Y-113403162D01*
X193817389Y-113403164D01*
X193889391Y-113576991D01*
X193912384Y-113632502D01*
X194044672Y-113848376D01*
X194209102Y-114040898D01*
X194212858Y-114044106D01*
X194389980Y-114195383D01*
X194428789Y-114254834D01*
X194429295Y-114325828D01*
X194412733Y-114361466D01*
X194392710Y-114391262D01*
X194302412Y-114596967D01*
X194301103Y-114602418D01*
X194301102Y-114602422D01*
X194257502Y-114784029D01*
X194249968Y-114815411D01*
X194245121Y-114899475D01*
X194239010Y-115005475D01*
X194237037Y-115039690D01*
X194264025Y-115262715D01*
X194330082Y-115477435D01*
X194332652Y-115482415D01*
X194332654Y-115482419D01*
X194430546Y-115672081D01*
X194433118Y-115677064D01*
X194436531Y-115681511D01*
X194436531Y-115681512D01*
X194446940Y-115695078D01*
X194569877Y-115855292D01*
X194574022Y-115859063D01*
X194574025Y-115859067D01*
X194626131Y-115906480D01*
X194663054Y-115967121D01*
X194661331Y-116038096D01*
X194631817Y-116087358D01*
X194583097Y-116137633D01*
X194529641Y-116192795D01*
X194518008Y-116204799D01*
X194392710Y-116391262D01*
X194302412Y-116596967D01*
X194301103Y-116602418D01*
X194301102Y-116602422D01*
X194261211Y-116768581D01*
X194249968Y-116815411D01*
X194245121Y-116899475D01*
X194239315Y-117000186D01*
X194237037Y-117039690D01*
X194263710Y-117260112D01*
X194264025Y-117262715D01*
X194263507Y-117262778D01*
X194258382Y-117329960D01*
X194229631Y-117374464D01*
X193507747Y-118096348D01*
X193499461Y-118103888D01*
X193492982Y-118108000D01*
X193487557Y-118113777D01*
X193446357Y-118157651D01*
X193443602Y-118160493D01*
X193423865Y-118180230D01*
X193421385Y-118183427D01*
X193413682Y-118192447D01*
X193383414Y-118224679D01*
X193379595Y-118231625D01*
X193379593Y-118231628D01*
X193373652Y-118242434D01*
X193362801Y-118258953D01*
X193350386Y-118274959D01*
X193347241Y-118282228D01*
X193347238Y-118282232D01*
X193332826Y-118315537D01*
X193327609Y-118326187D01*
X193306305Y-118364940D01*
X193304334Y-118372615D01*
X193304334Y-118372616D01*
X193301267Y-118384562D01*
X193294863Y-118403266D01*
X193286819Y-118421855D01*
X193285580Y-118429678D01*
X193285577Y-118429688D01*
X193279901Y-118465524D01*
X193277495Y-118477144D01*
X193269096Y-118509858D01*
X193266500Y-118519970D01*
X193266500Y-118540224D01*
X193264949Y-118559934D01*
X193261780Y-118579943D01*
X193262526Y-118587835D01*
X193265941Y-118623961D01*
X193266500Y-118635819D01*
X193266500Y-123885406D01*
X193246498Y-123953527D01*
X193229595Y-123974501D01*
X190836971Y-126367124D01*
X190774659Y-126401150D01*
X190703843Y-126396085D01*
X190647008Y-126353538D01*
X190622197Y-126287018D01*
X190631010Y-126230930D01*
X190664962Y-126146685D01*
X190668355Y-126135230D01*
X190706857Y-125938072D01*
X190707934Y-125929209D01*
X190708000Y-125926500D01*
X190708000Y-125822115D01*
X190703525Y-125806876D01*
X190702135Y-125805671D01*
X190694452Y-125804000D01*
X189472000Y-125804000D01*
X189403879Y-125783998D01*
X189357386Y-125730342D01*
X189346000Y-125678000D01*
X189346000Y-125277885D01*
X189854000Y-125277885D01*
X189858475Y-125293124D01*
X189859865Y-125294329D01*
X189867548Y-125296000D01*
X190689885Y-125296000D01*
X190705124Y-125291525D01*
X190706329Y-125290135D01*
X190708000Y-125282452D01*
X190708000Y-125225168D01*
X190707715Y-125219192D01*
X190693529Y-125070506D01*
X190691270Y-125058772D01*
X190635128Y-124867401D01*
X190630698Y-124856325D01*
X190539381Y-124679022D01*
X190532931Y-124668976D01*
X190409738Y-124512143D01*
X190401501Y-124503494D01*
X190250877Y-124372788D01*
X190241153Y-124365853D01*
X190068533Y-124265990D01*
X190057669Y-124261016D01*
X189869273Y-124195593D01*
X189868284Y-124195352D01*
X189857992Y-124196820D01*
X189854000Y-124210385D01*
X189854000Y-125277885D01*
X189346000Y-125277885D01*
X189346000Y-124214598D01*
X189342027Y-124201067D01*
X189332601Y-124199712D01*
X189243463Y-124221194D01*
X189232168Y-124225083D01*
X189050618Y-124307629D01*
X189040276Y-124313576D01*
X188877603Y-124428968D01*
X188868575Y-124436761D01*
X188781465Y-124527757D01*
X188719910Y-124563133D01*
X188649000Y-124559614D01*
X188591250Y-124518317D01*
X188583315Y-124506947D01*
X188548478Y-124450652D01*
X188423303Y-124325695D01*
X188417072Y-124321854D01*
X188278968Y-124236725D01*
X188278966Y-124236724D01*
X188272738Y-124232885D01*
X188164005Y-124196820D01*
X188111389Y-124179368D01*
X188111387Y-124179368D01*
X188104861Y-124177203D01*
X188098025Y-124176503D01*
X188098022Y-124176502D01*
X188054969Y-124172091D01*
X188000400Y-124166500D01*
X187199600Y-124166500D01*
X187196354Y-124166837D01*
X187196350Y-124166837D01*
X187100692Y-124176762D01*
X187100688Y-124176763D01*
X187093834Y-124177474D01*
X187087298Y-124179655D01*
X187087296Y-124179655D01*
X187023117Y-124201067D01*
X186926054Y-124233450D01*
X186775652Y-124326522D01*
X186650695Y-124451697D01*
X186646855Y-124457927D01*
X186646854Y-124457928D01*
X186570930Y-124581100D01*
X186557885Y-124602262D01*
X186502203Y-124770139D01*
X186491500Y-124874600D01*
X186491500Y-125710405D01*
X186471498Y-125778526D01*
X186454595Y-125799500D01*
X186174980Y-126079115D01*
X186112668Y-126113141D01*
X186085885Y-126116020D01*
X182425093Y-126116020D01*
X182356972Y-126096018D01*
X182310479Y-126042362D01*
X182301429Y-125965871D01*
X182306857Y-125938075D01*
X182307934Y-125929209D01*
X182308000Y-125926500D01*
X182308000Y-125822115D01*
X182303525Y-125806876D01*
X182302135Y-125805671D01*
X182294452Y-125804000D01*
X181072000Y-125804000D01*
X181003879Y-125783998D01*
X180957386Y-125730342D01*
X180946000Y-125678000D01*
X180946000Y-125277885D01*
X181454000Y-125277885D01*
X181458475Y-125293124D01*
X181459865Y-125294329D01*
X181467548Y-125296000D01*
X182289885Y-125296000D01*
X182305124Y-125291525D01*
X182306329Y-125290135D01*
X182308000Y-125282452D01*
X182308000Y-125225168D01*
X182307715Y-125219192D01*
X182293529Y-125070506D01*
X182291270Y-125058772D01*
X182235128Y-124867401D01*
X182230698Y-124856325D01*
X182139381Y-124679022D01*
X182132931Y-124668976D01*
X182009738Y-124512143D01*
X182001501Y-124503494D01*
X181850877Y-124372788D01*
X181841153Y-124365853D01*
X181668533Y-124265990D01*
X181657669Y-124261016D01*
X181469273Y-124195593D01*
X181468284Y-124195352D01*
X181457992Y-124196820D01*
X181454000Y-124210385D01*
X181454000Y-125277885D01*
X180946000Y-125277885D01*
X180946000Y-124214598D01*
X180942027Y-124201067D01*
X180932601Y-124199712D01*
X180843463Y-124221194D01*
X180832168Y-124225083D01*
X180811651Y-124234412D01*
X180741361Y-124244398D01*
X180676829Y-124214798D01*
X180638545Y-124155008D01*
X180633500Y-124119711D01*
X180633500Y-121534500D01*
X180653502Y-121466379D01*
X180707158Y-121419886D01*
X180759500Y-121408500D01*
X180948134Y-121408500D01*
X181010316Y-121401745D01*
X181146705Y-121350615D01*
X181263261Y-121263261D01*
X181350615Y-121146705D01*
X181375180Y-121081178D01*
X181417822Y-121024414D01*
X181484383Y-120999714D01*
X181553732Y-121014921D01*
X181573647Y-121028464D01*
X181677064Y-121114322D01*
X181729349Y-121157730D01*
X181929322Y-121274584D01*
X182145694Y-121357209D01*
X182150760Y-121358240D01*
X182150761Y-121358240D01*
X182203846Y-121369040D01*
X182372656Y-121403385D01*
X182502089Y-121408131D01*
X182598949Y-121411683D01*
X182598953Y-121411683D01*
X182604113Y-121411872D01*
X182609233Y-121411216D01*
X182609235Y-121411216D01*
X182683166Y-121401745D01*
X182833847Y-121382442D01*
X182838795Y-121380957D01*
X182838802Y-121380956D01*
X183050747Y-121317369D01*
X183055690Y-121315886D01*
X183136236Y-121276427D01*
X183259049Y-121216262D01*
X183259052Y-121216260D01*
X183263684Y-121213991D01*
X183452243Y-121079494D01*
X183587539Y-120944669D01*
X186052001Y-120944669D01*
X186052371Y-120951490D01*
X186057895Y-121002352D01*
X186061521Y-121017604D01*
X186106676Y-121138054D01*
X186115214Y-121153649D01*
X186191715Y-121255724D01*
X186204276Y-121268285D01*
X186306351Y-121344786D01*
X186321946Y-121353324D01*
X186442394Y-121398478D01*
X186457649Y-121402105D01*
X186508514Y-121407631D01*
X186515328Y-121408000D01*
X187187885Y-121408000D01*
X187203124Y-121403525D01*
X187204329Y-121402135D01*
X187206000Y-121394452D01*
X187206000Y-121389884D01*
X187714000Y-121389884D01*
X187718475Y-121405123D01*
X187719865Y-121406328D01*
X187727548Y-121407999D01*
X188404669Y-121407999D01*
X188411490Y-121407629D01*
X188462352Y-121402105D01*
X188477604Y-121398479D01*
X188598054Y-121353324D01*
X188613649Y-121344786D01*
X188715724Y-121268285D01*
X188728285Y-121255724D01*
X188804786Y-121153649D01*
X188813324Y-121138054D01*
X188834773Y-121080840D01*
X188877415Y-121024075D01*
X188943977Y-120999376D01*
X189013325Y-121014584D01*
X189033240Y-121028126D01*
X189129571Y-121108101D01*
X189189349Y-121157730D01*
X189389322Y-121274584D01*
X189605694Y-121357209D01*
X189610760Y-121358240D01*
X189610761Y-121358240D01*
X189663846Y-121369040D01*
X189832656Y-121403385D01*
X189962089Y-121408131D01*
X190058949Y-121411683D01*
X190058953Y-121411683D01*
X190064113Y-121411872D01*
X190069233Y-121411216D01*
X190069235Y-121411216D01*
X190143166Y-121401745D01*
X190293847Y-121382442D01*
X190298795Y-121380957D01*
X190298802Y-121380956D01*
X190510747Y-121317369D01*
X190515690Y-121315886D01*
X190596236Y-121276427D01*
X190719049Y-121216262D01*
X190719052Y-121216260D01*
X190723684Y-121213991D01*
X190912243Y-121079494D01*
X191076303Y-120916005D01*
X191211458Y-120727917D01*
X191314078Y-120520280D01*
X191381408Y-120298671D01*
X191411640Y-120069041D01*
X191413327Y-120000000D01*
X191394349Y-119769167D01*
X191358026Y-119624560D01*
X191360830Y-119553620D01*
X191391135Y-119504769D01*
X191645873Y-119250032D01*
X191932258Y-118963647D01*
X191940537Y-118956113D01*
X191947018Y-118952000D01*
X191993644Y-118902348D01*
X191996398Y-118899507D01*
X192016135Y-118879770D01*
X192018615Y-118876573D01*
X192026320Y-118867551D01*
X192056586Y-118835321D01*
X192060405Y-118828375D01*
X192060407Y-118828372D01*
X192066348Y-118817566D01*
X192077199Y-118801047D01*
X192084758Y-118791301D01*
X192089614Y-118785041D01*
X192092759Y-118777772D01*
X192092762Y-118777768D01*
X192107174Y-118744463D01*
X192112391Y-118733813D01*
X192133695Y-118695060D01*
X192138733Y-118675437D01*
X192145137Y-118656734D01*
X192150033Y-118645420D01*
X192150033Y-118645419D01*
X192153181Y-118638145D01*
X192154420Y-118630322D01*
X192154423Y-118630312D01*
X192160099Y-118594476D01*
X192162505Y-118582856D01*
X192171528Y-118547711D01*
X192171528Y-118547710D01*
X192173500Y-118540030D01*
X192173500Y-118519776D01*
X192175051Y-118500065D01*
X192176980Y-118487886D01*
X192178220Y-118480057D01*
X192174059Y-118436038D01*
X192173500Y-118424181D01*
X192173500Y-116097315D01*
X192193502Y-116029194D01*
X192227230Y-115994102D01*
X192280890Y-115956529D01*
X192319776Y-115929301D01*
X192469301Y-115779776D01*
X192590589Y-115606558D01*
X192601409Y-115583356D01*
X192677633Y-115419892D01*
X192677634Y-115419891D01*
X192679956Y-115414910D01*
X192702296Y-115331538D01*
X192733262Y-115215970D01*
X192733262Y-115215968D01*
X192734686Y-115210655D01*
X192753116Y-115000000D01*
X192734686Y-114789345D01*
X192718992Y-114730773D01*
X192681379Y-114590400D01*
X192681378Y-114590398D01*
X192679956Y-114585090D01*
X192590589Y-114393442D01*
X192469301Y-114220224D01*
X192319776Y-114070699D01*
X192146558Y-113949411D01*
X192141580Y-113947090D01*
X192141577Y-113947088D01*
X191959892Y-113862367D01*
X191959891Y-113862366D01*
X191954910Y-113860044D01*
X191949602Y-113858622D01*
X191949600Y-113858621D01*
X191755970Y-113806738D01*
X191755968Y-113806738D01*
X191750655Y-113805314D01*
X191540000Y-113786884D01*
X191329345Y-113805314D01*
X191324032Y-113806738D01*
X191324030Y-113806738D01*
X191130400Y-113858621D01*
X191130398Y-113858622D01*
X191125090Y-113860044D01*
X191120109Y-113862366D01*
X191120108Y-113862367D01*
X190938423Y-113947088D01*
X190938420Y-113947090D01*
X190933442Y-113949411D01*
X190760224Y-114070699D01*
X190610699Y-114220224D01*
X190489411Y-114393442D01*
X190400044Y-114585090D01*
X190398622Y-114590398D01*
X190398621Y-114590400D01*
X190361008Y-114730773D01*
X190345314Y-114789345D01*
X190326884Y-115000000D01*
X190345314Y-115210655D01*
X190346738Y-115215968D01*
X190346738Y-115215970D01*
X190377705Y-115331538D01*
X190400044Y-115414910D01*
X190402366Y-115419891D01*
X190402367Y-115419892D01*
X190478592Y-115583356D01*
X190489411Y-115606558D01*
X190610699Y-115779776D01*
X190760224Y-115929301D01*
X190799110Y-115956529D01*
X190852770Y-115994102D01*
X190897099Y-116049559D01*
X190906500Y-116097315D01*
X190906500Y-118145405D01*
X190886498Y-118213526D01*
X190869595Y-118234501D01*
X190498111Y-118605984D01*
X190435799Y-118640009D01*
X190371088Y-118635923D01*
X190370906Y-118636610D01*
X190367430Y-118635692D01*
X190366960Y-118635662D01*
X190365910Y-118635290D01*
X190365901Y-118635288D01*
X190361028Y-118633562D01*
X190355935Y-118632655D01*
X190355932Y-118632654D01*
X190138095Y-118593851D01*
X190138089Y-118593850D01*
X190133006Y-118592945D01*
X190055644Y-118592000D01*
X189906581Y-118590179D01*
X189906579Y-118590179D01*
X189901411Y-118590116D01*
X189672464Y-118625150D01*
X189452314Y-118697106D01*
X189447726Y-118699494D01*
X189447722Y-118699496D01*
X189251463Y-118801662D01*
X189246872Y-118804052D01*
X189242739Y-118807155D01*
X189242736Y-118807157D01*
X189065790Y-118940012D01*
X189061655Y-118943117D01*
X189053032Y-118952141D01*
X189043787Y-118961815D01*
X188982263Y-118997245D01*
X188911351Y-118993788D01*
X188853564Y-118952543D01*
X188834711Y-118918994D01*
X188813324Y-118861946D01*
X188804786Y-118846351D01*
X188728285Y-118744276D01*
X188715724Y-118731715D01*
X188613649Y-118655214D01*
X188598054Y-118646676D01*
X188477606Y-118601522D01*
X188462351Y-118597895D01*
X188411486Y-118592369D01*
X188404672Y-118592000D01*
X187732115Y-118592000D01*
X187716876Y-118596475D01*
X187715671Y-118597865D01*
X187714000Y-118605548D01*
X187714000Y-121389884D01*
X187206000Y-121389884D01*
X187206000Y-120272115D01*
X187201525Y-120256876D01*
X187200135Y-120255671D01*
X187192452Y-120254000D01*
X186070116Y-120254000D01*
X186054877Y-120258475D01*
X186053672Y-120259865D01*
X186052001Y-120267548D01*
X186052001Y-120944669D01*
X183587539Y-120944669D01*
X183616303Y-120916005D01*
X183751458Y-120727917D01*
X183854078Y-120520280D01*
X183921408Y-120298671D01*
X183951640Y-120069041D01*
X183953327Y-120000000D01*
X183936731Y-119798134D01*
X183934773Y-119774318D01*
X183934772Y-119774312D01*
X183934349Y-119769167D01*
X183923980Y-119727885D01*
X186052000Y-119727885D01*
X186056475Y-119743124D01*
X186057865Y-119744329D01*
X186065548Y-119746000D01*
X187187885Y-119746000D01*
X187203124Y-119741525D01*
X187204329Y-119740135D01*
X187206000Y-119732452D01*
X187206000Y-118610116D01*
X187201525Y-118594877D01*
X187200135Y-118593672D01*
X187192452Y-118592001D01*
X186515331Y-118592001D01*
X186508510Y-118592371D01*
X186457648Y-118597895D01*
X186442396Y-118601521D01*
X186321946Y-118646676D01*
X186306351Y-118655214D01*
X186204276Y-118731715D01*
X186191715Y-118744276D01*
X186115214Y-118846351D01*
X186106676Y-118861946D01*
X186061522Y-118982394D01*
X186057895Y-118997649D01*
X186052369Y-119048514D01*
X186052000Y-119055328D01*
X186052000Y-119727885D01*
X183923980Y-119727885D01*
X183882591Y-119563108D01*
X183879184Y-119549544D01*
X183879183Y-119549540D01*
X183877925Y-119544533D01*
X183805731Y-119378498D01*
X183787630Y-119336868D01*
X183787628Y-119336865D01*
X183785570Y-119332131D01*
X183659764Y-119137665D01*
X183503887Y-118966358D01*
X183499836Y-118963159D01*
X183499832Y-118963155D01*
X183326178Y-118826012D01*
X183326175Y-118826010D01*
X183322123Y-118822810D01*
X183312624Y-118817566D01*
X183240529Y-118777768D01*
X183238607Y-118776707D01*
X183188636Y-118726274D01*
X183173500Y-118666398D01*
X183173500Y-116316881D01*
X183193502Y-116248760D01*
X183247158Y-116202267D01*
X183321379Y-116192795D01*
X183324036Y-116193263D01*
X183329345Y-116194686D01*
X183540000Y-116213116D01*
X183750655Y-116194686D01*
X183755968Y-116193262D01*
X183755970Y-116193262D01*
X183949600Y-116141379D01*
X183949602Y-116141378D01*
X183954910Y-116139956D01*
X184067705Y-116087359D01*
X184141577Y-116052912D01*
X184141580Y-116052910D01*
X184146558Y-116050589D01*
X184319776Y-115929301D01*
X184469301Y-115779776D01*
X184590589Y-115606558D01*
X184601409Y-115583356D01*
X184677633Y-115419892D01*
X184677634Y-115419891D01*
X184679956Y-115414910D01*
X184702296Y-115331538D01*
X184733262Y-115215970D01*
X184733262Y-115215968D01*
X184734686Y-115210655D01*
X184753116Y-115000000D01*
X184734686Y-114789345D01*
X184728860Y-114767602D01*
X184730548Y-114696626D01*
X184770341Y-114637829D01*
X184835605Y-114609880D01*
X184850566Y-114608989D01*
X185120895Y-114608989D01*
X185189016Y-114628991D01*
X185209990Y-114645894D01*
X185232557Y-114668461D01*
X185266583Y-114730773D01*
X185267548Y-114779437D01*
X185266738Y-114784029D01*
X185265314Y-114789345D01*
X185246884Y-115000000D01*
X185265314Y-115210655D01*
X185266738Y-115215968D01*
X185266738Y-115215970D01*
X185297705Y-115331538D01*
X185320044Y-115414910D01*
X185322366Y-115419891D01*
X185322367Y-115419892D01*
X185398592Y-115583356D01*
X185409411Y-115606558D01*
X185530699Y-115779776D01*
X185680224Y-115929301D01*
X185853442Y-116050589D01*
X185858420Y-116052910D01*
X185858423Y-116052912D01*
X185932295Y-116087359D01*
X186045090Y-116139956D01*
X186050398Y-116141378D01*
X186050400Y-116141379D01*
X186244030Y-116193262D01*
X186244032Y-116193262D01*
X186249345Y-116194686D01*
X186460000Y-116213116D01*
X186670655Y-116194686D01*
X186675968Y-116193262D01*
X186675970Y-116193262D01*
X186869600Y-116141379D01*
X186869602Y-116141378D01*
X186874910Y-116139956D01*
X186987705Y-116087359D01*
X187061577Y-116052912D01*
X187061580Y-116052910D01*
X187066558Y-116050589D01*
X187239776Y-115929301D01*
X187389301Y-115779776D01*
X187510589Y-115606558D01*
X187521409Y-115583356D01*
X187597633Y-115419892D01*
X187597634Y-115419891D01*
X187599956Y-115414910D01*
X187622296Y-115331538D01*
X187653262Y-115215970D01*
X187653262Y-115215968D01*
X187654686Y-115210655D01*
X187673116Y-115000000D01*
X187654686Y-114789345D01*
X187638992Y-114730773D01*
X187601379Y-114590400D01*
X187601378Y-114590398D01*
X187599956Y-114585090D01*
X187510589Y-114393442D01*
X187389301Y-114220224D01*
X187239776Y-114070699D01*
X187066558Y-113949411D01*
X187061580Y-113947090D01*
X187061577Y-113947088D01*
X186879892Y-113862367D01*
X186879891Y-113862366D01*
X186874910Y-113860044D01*
X186869602Y-113858622D01*
X186869600Y-113858621D01*
X186675970Y-113806738D01*
X186675968Y-113806738D01*
X186670655Y-113805314D01*
X186460000Y-113786884D01*
X186454525Y-113787363D01*
X186254816Y-113804835D01*
X186254812Y-113804836D01*
X186249345Y-113805314D01*
X186244039Y-113806736D01*
X186239439Y-113807547D01*
X186168879Y-113799679D01*
X186128462Y-113772557D01*
X185939141Y-113583236D01*
X185931601Y-113574950D01*
X185927489Y-113568471D01*
X185877837Y-113521845D01*
X185874996Y-113519091D01*
X185855259Y-113499354D01*
X185852062Y-113496874D01*
X185843040Y-113489169D01*
X185816589Y-113464330D01*
X185810810Y-113458903D01*
X185803864Y-113455084D01*
X185803861Y-113455082D01*
X185793055Y-113449141D01*
X185776536Y-113438290D01*
X185776072Y-113437930D01*
X185760530Y-113425875D01*
X185753261Y-113422730D01*
X185753257Y-113422727D01*
X185719952Y-113408315D01*
X185709302Y-113403098D01*
X185670549Y-113381794D01*
X185650926Y-113376756D01*
X185632223Y-113370352D01*
X185620909Y-113365456D01*
X185620908Y-113365456D01*
X185613634Y-113362308D01*
X185605811Y-113361069D01*
X185605801Y-113361066D01*
X185569965Y-113355390D01*
X185558345Y-113352984D01*
X185523200Y-113343961D01*
X185523199Y-113343961D01*
X185515519Y-113341989D01*
X185495265Y-113341989D01*
X185475554Y-113340438D01*
X185463375Y-113338509D01*
X185455546Y-113337269D01*
X185447654Y-113338015D01*
X185411528Y-113341430D01*
X185399670Y-113341989D01*
X183840083Y-113341989D01*
X183771962Y-113321987D01*
X183750988Y-113305084D01*
X181471625Y-111025720D01*
X181437599Y-110963408D01*
X181442664Y-110892592D01*
X181485211Y-110835757D01*
X181520844Y-110817101D01*
X181666784Y-110768412D01*
X181679962Y-110762239D01*
X181817807Y-110676937D01*
X181829208Y-110667901D01*
X181943739Y-110553171D01*
X181952751Y-110541760D01*
X182037816Y-110403757D01*
X182043963Y-110390576D01*
X182095138Y-110236290D01*
X182098005Y-110222914D01*
X182107672Y-110128562D01*
X182108000Y-110122146D01*
X182108000Y-109722115D01*
X182103525Y-109706876D01*
X182102135Y-109705671D01*
X182094452Y-109704000D01*
X180872000Y-109704000D01*
X180803879Y-109683998D01*
X180757386Y-109630342D01*
X180746000Y-109578000D01*
X180746000Y-109177885D01*
X181254000Y-109177885D01*
X181258475Y-109193124D01*
X181259865Y-109194329D01*
X181267548Y-109196000D01*
X182089884Y-109196000D01*
X182105123Y-109191525D01*
X182106328Y-109190135D01*
X182107999Y-109182452D01*
X182107999Y-108777905D01*
X182107662Y-108771386D01*
X182097743Y-108675794D01*
X182094851Y-108662400D01*
X182043412Y-108508216D01*
X182037239Y-108495038D01*
X181951937Y-108357193D01*
X181942901Y-108345792D01*
X181828171Y-108231261D01*
X181816760Y-108222249D01*
X181678757Y-108137184D01*
X181665576Y-108131037D01*
X181511290Y-108079862D01*
X181497914Y-108076995D01*
X181403562Y-108067328D01*
X181397145Y-108067000D01*
X181272115Y-108067000D01*
X181256876Y-108071475D01*
X181255671Y-108072865D01*
X181254000Y-108080548D01*
X181254000Y-109177885D01*
X180746000Y-109177885D01*
X180746000Y-108085116D01*
X180741525Y-108069877D01*
X180740135Y-108068672D01*
X180732452Y-108067001D01*
X180602905Y-108067001D01*
X180596386Y-108067338D01*
X180500794Y-108077257D01*
X180487400Y-108080149D01*
X180333216Y-108131588D01*
X180320038Y-108137761D01*
X180182193Y-108223063D01*
X180170792Y-108232099D01*
X180056261Y-108346829D01*
X180047249Y-108358240D01*
X180019255Y-108403655D01*
X179966483Y-108451148D01*
X179896411Y-108462572D01*
X179831287Y-108434298D01*
X179812912Y-108415375D01*
X179806396Y-108407080D01*
X179801865Y-108403148D01*
X179801862Y-108403145D01*
X179651167Y-108272379D01*
X179646637Y-108268448D01*
X179641451Y-108265448D01*
X179641447Y-108265445D01*
X179468742Y-108165533D01*
X179463546Y-108162527D01*
X179263729Y-108093139D01*
X179257794Y-108092278D01*
X179257792Y-108092278D01*
X179060336Y-108063648D01*
X179060333Y-108063648D01*
X179054396Y-108062787D01*
X178843101Y-108072567D01*
X178711923Y-108104181D01*
X178643299Y-108120719D01*
X178643297Y-108120720D01*
X178637466Y-108122125D01*
X178632008Y-108124607D01*
X178632004Y-108124608D01*
X178516959Y-108176916D01*
X178444913Y-108209674D01*
X178272389Y-108332054D01*
X178126119Y-108484850D01*
X178011380Y-108662548D01*
X177970529Y-108763912D01*
X177926516Y-108819615D01*
X177900051Y-108833962D01*
X177874678Y-108844008D01*
X177865097Y-108847801D01*
X177853868Y-108851645D01*
X177848626Y-108853168D01*
X177811407Y-108863981D01*
X177804584Y-108868016D01*
X177793966Y-108874295D01*
X177776213Y-108882992D01*
X177773718Y-108883980D01*
X177757383Y-108890448D01*
X177750968Y-108895109D01*
X177721612Y-108916437D01*
X177711695Y-108922951D01*
X177673638Y-108945458D01*
X177659317Y-108959779D01*
X177644284Y-108972619D01*
X177627893Y-108984528D01*
X177622842Y-108990634D01*
X177599702Y-109018605D01*
X177591712Y-109027384D01*
X172657000Y-113962095D01*
X172594688Y-113996121D01*
X172567905Y-113999000D01*
X171126000Y-113999000D01*
X171057879Y-113978998D01*
X171011386Y-113925342D01*
X171000000Y-113873000D01*
X171000000Y-108130231D01*
X171020002Y-108062110D01*
X171073658Y-108015617D01*
X171143932Y-108005513D01*
X171205038Y-108032103D01*
X171425196Y-108209431D01*
X171425201Y-108209435D01*
X171428149Y-108211809D01*
X171705253Y-108384627D01*
X172001112Y-108522903D01*
X172311440Y-108624634D01*
X172631742Y-108688346D01*
X172635514Y-108688633D01*
X172635522Y-108688634D01*
X172953602Y-108712829D01*
X172953607Y-108712829D01*
X172957379Y-108713116D01*
X173283633Y-108698586D01*
X173343425Y-108688634D01*
X173602037Y-108645590D01*
X173602042Y-108645589D01*
X173605778Y-108644967D01*
X173919149Y-108553034D01*
X173922616Y-108551544D01*
X173922620Y-108551543D01*
X174215721Y-108425616D01*
X174215723Y-108425615D01*
X174219205Y-108424119D01*
X174501601Y-108260091D01*
X174749607Y-108072865D01*
X174759221Y-108065607D01*
X174759222Y-108065606D01*
X174762245Y-108063324D01*
X174997363Y-107836670D01*
X175116016Y-107690928D01*
X175201155Y-107586351D01*
X175201158Y-107586347D01*
X175203549Y-107583410D01*
X175258709Y-107495987D01*
X175375788Y-107310428D01*
X175375790Y-107310425D01*
X175377815Y-107307215D01*
X175517638Y-107012084D01*
X175544188Y-106932504D01*
X175619790Y-106705897D01*
X175619792Y-106705891D01*
X175620992Y-106702293D01*
X175686381Y-106382329D01*
X175692956Y-106301498D01*
X175712674Y-106059061D01*
X175712856Y-106056826D01*
X175713451Y-106000000D01*
X175711510Y-105967796D01*
X175694026Y-105677793D01*
X175694026Y-105677789D01*
X175693798Y-105674015D01*
X175688650Y-105645824D01*
X175635805Y-105356473D01*
X175635804Y-105356469D01*
X175635125Y-105352751D01*
X175627722Y-105328907D01*
X175539404Y-105044477D01*
X175538282Y-105040863D01*
X175404670Y-104742869D01*
X175236226Y-104463084D01*
X175233899Y-104460100D01*
X175233894Y-104460093D01*
X175035390Y-104205563D01*
X175036309Y-104204846D01*
X175008356Y-104144991D01*
X175017862Y-104074634D01*
X175063897Y-104020585D01*
X175132917Y-104000000D01*
X193868895Y-104000000D01*
X193937016Y-104020002D01*
G37*
%TD.AperFunction*%
%TD*%
M02*
