%FSLAX45Y45*%
G04 Gerber Fmt 4.5, Leading zero omitted, Abs format (unit mm)*
G04 Created by KiCad (PCBNEW (6.0.0)) date 2022-01-22 14:07:24*
%MOMM*%
%LPD*%
G01*
G04 APERTURE LIST*
%TA.AperFunction,Profile*%
%ADD10C,0.100000*%
%TD*%
%ADD11C,0.200000*%
%ADD12C,0.070000*%
%ADD13C,0.075000*%
%ADD14C,0.090000*%
%ADD15C,0.110000*%
%ADD16C,0.150000*%
%ADD17C,0.220000*%
G04 APERTURE END LIST*
D10*
X17000000Y-13200000D02*
X19900000Y-13200000D01*
X17000000Y-10300000D02*
X17000000Y-13200000D01*
X19900000Y-10300000D02*
X17000000Y-10300000D01*
X19900000Y-13200000D02*
X19900000Y-10300000D01*
D11*
D12*
X17811000Y-11465000D02*
X17881000Y-11535000D01*
X17881000Y-11465000D02*
X17811000Y-11535000D01*
X18319000Y-11465000D02*
X18389000Y-11535000D01*
X18389000Y-11465000D02*
X18319000Y-11535000D01*
X18611000Y-11465000D02*
X18681000Y-11535000D01*
X18681000Y-11465000D02*
X18611000Y-11535000D01*
X19119000Y-11465000D02*
X19189000Y-11535000D01*
X19189000Y-11465000D02*
X19119000Y-11535000D01*
D13*
X17937500Y-10945000D02*
G75*
G03*
X17937500Y-10945000I-37500J0D01*
G01*
X17957500Y-12555000D02*
G75*
G03*
X17957500Y-12555000I-37500J0D01*
G01*
X18137500Y-10945000D02*
G75*
G03*
X18137500Y-10945000I-37500J0D01*
G01*
X18157500Y-12555000D02*
G75*
G03*
X18157500Y-12555000I-37500J0D01*
G01*
X18797500Y-12555000D02*
G75*
G03*
X18797500Y-12555000I-37500J0D01*
G01*
X18837500Y-10945000D02*
G75*
G03*
X18837500Y-10945000I-37500J0D01*
G01*
X18997500Y-12555000D02*
G75*
G03*
X18997500Y-12555000I-37500J0D01*
G01*
X19037500Y-10945000D02*
G75*
G03*
X19037500Y-10945000I-37500J0D01*
G01*
D14*
X18000000Y-11955000D02*
X18000000Y-12045000D01*
X17955000Y-12000000D02*
X18045000Y-12000000D01*
X18254000Y-11955000D02*
X18254000Y-12045000D01*
X18209000Y-12000000D02*
X18299000Y-12000000D01*
X18746000Y-11955000D02*
X18746000Y-12045000D01*
X18701000Y-12000000D02*
X18791000Y-12000000D01*
X19000000Y-11955000D02*
X19000000Y-12045000D01*
X18955000Y-12000000D02*
X19045000Y-12000000D01*
X19600000Y-11455000D02*
X19600000Y-11545000D01*
X19555000Y-11500000D02*
X19645000Y-11500000D01*
X19600000Y-11655000D02*
X19600000Y-11745000D01*
X19555000Y-11700000D02*
X19645000Y-11700000D01*
X19600000Y-11855000D02*
X19600000Y-11945000D01*
X19555000Y-11900000D02*
X19645000Y-11900000D01*
D15*
X17244391Y-11584891D02*
X17244391Y-11507109D01*
X17166609Y-11507109D01*
X17166609Y-11584891D01*
X17244391Y-11584891D01*
X17244391Y-11838891D02*
X17244391Y-11761109D01*
X17166609Y-11761109D01*
X17166609Y-11838891D01*
X17244391Y-11838891D01*
X17244391Y-12092891D02*
X17244391Y-12015109D01*
X17166609Y-12015109D01*
X17166609Y-12092891D01*
X17244391Y-12092891D01*
D16*
X19600000Y-11365000D02*
X19675000Y-11290000D01*
X19600000Y-11215000D01*
X19525000Y-11290000D01*
X19600000Y-11365000D01*
X19600000Y-12185000D02*
X19675000Y-12110000D01*
X19600000Y-12035000D01*
X19525000Y-12110000D01*
X19600000Y-12185000D01*
D17*
X17190000Y-10490000D02*
X17410000Y-10710000D01*
X17410000Y-10490000D02*
X17190000Y-10710000D01*
X17410000Y-10600000D02*
G75*
G03*
X17410000Y-10600000I-110000J0D01*
G01*
X17190000Y-12790000D02*
X17410000Y-13010000D01*
X17410000Y-12790000D02*
X17190000Y-13010000D01*
X17410000Y-12900000D02*
G75*
G03*
X17410000Y-12900000I-110000J0D01*
G01*
X19490000Y-10490000D02*
X19710000Y-10710000D01*
X19710000Y-10490000D02*
X19490000Y-10710000D01*
X19710000Y-10600000D02*
G75*
G03*
X19710000Y-10600000I-110000J0D01*
G01*
X19490000Y-12790000D02*
X19710000Y-13010000D01*
X19710000Y-12790000D02*
X19490000Y-13010000D01*
X19710000Y-12900000D02*
G75*
G03*
X19710000Y-12900000I-110000J0D01*
G01*
D11*
X17252619Y-13515476D02*
X17252619Y-13315476D01*
X17300238Y-13315476D01*
X17328810Y-13325000D01*
X17347857Y-13344048D01*
X17357381Y-13363095D01*
X17366905Y-13401190D01*
X17366905Y-13429762D01*
X17357381Y-13467857D01*
X17347857Y-13486905D01*
X17328810Y-13505952D01*
X17300238Y-13515476D01*
X17252619Y-13515476D01*
X17452619Y-13515476D02*
X17452619Y-13382143D01*
X17452619Y-13420238D02*
X17462143Y-13401190D01*
X17471667Y-13391667D01*
X17490714Y-13382143D01*
X17509762Y-13382143D01*
X17576429Y-13515476D02*
X17576429Y-13382143D01*
X17576429Y-13315476D02*
X17566905Y-13325000D01*
X17576429Y-13334524D01*
X17585952Y-13325000D01*
X17576429Y-13315476D01*
X17576429Y-13334524D01*
X17700238Y-13515476D02*
X17681190Y-13505952D01*
X17671667Y-13486905D01*
X17671667Y-13315476D01*
X17805000Y-13515476D02*
X17785952Y-13505952D01*
X17776429Y-13486905D01*
X17776429Y-13315476D01*
X18033571Y-13515476D02*
X18033571Y-13315476D01*
X18100238Y-13458333D01*
X18166905Y-13315476D01*
X18166905Y-13515476D01*
X18347857Y-13515476D02*
X18347857Y-13410714D01*
X18338333Y-13391667D01*
X18319286Y-13382143D01*
X18281190Y-13382143D01*
X18262143Y-13391667D01*
X18347857Y-13505952D02*
X18328810Y-13515476D01*
X18281190Y-13515476D01*
X18262143Y-13505952D01*
X18252619Y-13486905D01*
X18252619Y-13467857D01*
X18262143Y-13448809D01*
X18281190Y-13439286D01*
X18328810Y-13439286D01*
X18347857Y-13429762D01*
X18443095Y-13382143D02*
X18443095Y-13582143D01*
X18443095Y-13391667D02*
X18462143Y-13382143D01*
X18500238Y-13382143D01*
X18519286Y-13391667D01*
X18528810Y-13401190D01*
X18538333Y-13420238D01*
X18538333Y-13477381D01*
X18528810Y-13496428D01*
X18519286Y-13505952D01*
X18500238Y-13515476D01*
X18462143Y-13515476D01*
X18443095Y-13505952D01*
X18624048Y-13496428D02*
X18633571Y-13505952D01*
X18624048Y-13515476D01*
X18614524Y-13505952D01*
X18624048Y-13496428D01*
X18624048Y-13515476D01*
X18624048Y-13391667D02*
X18633571Y-13401190D01*
X18624048Y-13410714D01*
X18614524Y-13401190D01*
X18624048Y-13391667D01*
X18624048Y-13410714D01*
D12*
X16925000Y-13810000D02*
X16995000Y-13880000D01*
X16995000Y-13810000D02*
X16925000Y-13880000D01*
D11*
X17290714Y-13735476D02*
X17309762Y-13735476D01*
X17328810Y-13745000D01*
X17338333Y-13754524D01*
X17347857Y-13773571D01*
X17357381Y-13811667D01*
X17357381Y-13859286D01*
X17347857Y-13897381D01*
X17338333Y-13916428D01*
X17328810Y-13925952D01*
X17309762Y-13935476D01*
X17290714Y-13935476D01*
X17271667Y-13925952D01*
X17262143Y-13916428D01*
X17252619Y-13897381D01*
X17243095Y-13859286D01*
X17243095Y-13811667D01*
X17252619Y-13773571D01*
X17262143Y-13754524D01*
X17271667Y-13745000D01*
X17290714Y-13735476D01*
X17443095Y-13916428D02*
X17452619Y-13925952D01*
X17443095Y-13935476D01*
X17433571Y-13925952D01*
X17443095Y-13916428D01*
X17443095Y-13935476D01*
X17519286Y-13735476D02*
X17652619Y-13735476D01*
X17566905Y-13935476D01*
X17766905Y-13735476D02*
X17785952Y-13735476D01*
X17805000Y-13745000D01*
X17814524Y-13754524D01*
X17824048Y-13773571D01*
X17833571Y-13811667D01*
X17833571Y-13859286D01*
X17824048Y-13897381D01*
X17814524Y-13916428D01*
X17805000Y-13925952D01*
X17785952Y-13935476D01*
X17766905Y-13935476D01*
X17747857Y-13925952D01*
X17738333Y-13916428D01*
X17728810Y-13897381D01*
X17719286Y-13859286D01*
X17719286Y-13811667D01*
X17728810Y-13773571D01*
X17738333Y-13754524D01*
X17747857Y-13745000D01*
X17766905Y-13735476D01*
X17957381Y-13735476D02*
X17976429Y-13735476D01*
X17995476Y-13745000D01*
X18005000Y-13754524D01*
X18014524Y-13773571D01*
X18024048Y-13811667D01*
X18024048Y-13859286D01*
X18014524Y-13897381D01*
X18005000Y-13916428D01*
X17995476Y-13925952D01*
X17976429Y-13935476D01*
X17957381Y-13935476D01*
X17938333Y-13925952D01*
X17928810Y-13916428D01*
X17919286Y-13897381D01*
X17909762Y-13859286D01*
X17909762Y-13811667D01*
X17919286Y-13773571D01*
X17928810Y-13754524D01*
X17938333Y-13745000D01*
X17957381Y-13735476D01*
X18109762Y-13935476D02*
X18109762Y-13802143D01*
X18109762Y-13821190D02*
X18119286Y-13811667D01*
X18138333Y-13802143D01*
X18166905Y-13802143D01*
X18185952Y-13811667D01*
X18195476Y-13830714D01*
X18195476Y-13935476D01*
X18195476Y-13830714D02*
X18205000Y-13811667D01*
X18224048Y-13802143D01*
X18252619Y-13802143D01*
X18271667Y-13811667D01*
X18281190Y-13830714D01*
X18281190Y-13935476D01*
X18376429Y-13935476D02*
X18376429Y-13802143D01*
X18376429Y-13821190D02*
X18385952Y-13811667D01*
X18405000Y-13802143D01*
X18433571Y-13802143D01*
X18452619Y-13811667D01*
X18462143Y-13830714D01*
X18462143Y-13935476D01*
X18462143Y-13830714D02*
X18471667Y-13811667D01*
X18490714Y-13802143D01*
X18519286Y-13802143D01*
X18538333Y-13811667D01*
X18547857Y-13830714D01*
X18547857Y-13935476D01*
X18938333Y-13725952D02*
X18766905Y-13983095D01*
X19195476Y-13735476D02*
X19214524Y-13735476D01*
X19233571Y-13745000D01*
X19243095Y-13754524D01*
X19252619Y-13773571D01*
X19262143Y-13811667D01*
X19262143Y-13859286D01*
X19252619Y-13897381D01*
X19243095Y-13916428D01*
X19233571Y-13925952D01*
X19214524Y-13935476D01*
X19195476Y-13935476D01*
X19176429Y-13925952D01*
X19166905Y-13916428D01*
X19157381Y-13897381D01*
X19147857Y-13859286D01*
X19147857Y-13811667D01*
X19157381Y-13773571D01*
X19166905Y-13754524D01*
X19176429Y-13745000D01*
X19195476Y-13735476D01*
X19347857Y-13916428D02*
X19357381Y-13925952D01*
X19347857Y-13935476D01*
X19338333Y-13925952D01*
X19347857Y-13916428D01*
X19347857Y-13935476D01*
X19481190Y-13735476D02*
X19500238Y-13735476D01*
X19519286Y-13745000D01*
X19528810Y-13754524D01*
X19538333Y-13773571D01*
X19547857Y-13811667D01*
X19547857Y-13859286D01*
X19538333Y-13897381D01*
X19528810Y-13916428D01*
X19519286Y-13925952D01*
X19500238Y-13935476D01*
X19481190Y-13935476D01*
X19462143Y-13925952D01*
X19452619Y-13916428D01*
X19443095Y-13897381D01*
X19433571Y-13859286D01*
X19433571Y-13811667D01*
X19443095Y-13773571D01*
X19452619Y-13754524D01*
X19462143Y-13745000D01*
X19481190Y-13735476D01*
X19624048Y-13754524D02*
X19633571Y-13745000D01*
X19652619Y-13735476D01*
X19700238Y-13735476D01*
X19719286Y-13745000D01*
X19728810Y-13754524D01*
X19738333Y-13773571D01*
X19738333Y-13792619D01*
X19728810Y-13821190D01*
X19614524Y-13935476D01*
X19738333Y-13935476D01*
X19805000Y-13735476D02*
X19938333Y-13735476D01*
X19852619Y-13935476D01*
X20100238Y-13735476D02*
X20062143Y-13735476D01*
X20043095Y-13745000D01*
X20033571Y-13754524D01*
X20014524Y-13783095D01*
X20005000Y-13821190D01*
X20005000Y-13897381D01*
X20014524Y-13916428D01*
X20024048Y-13925952D01*
X20043095Y-13935476D01*
X20081190Y-13935476D01*
X20100238Y-13925952D01*
X20109762Y-13916428D01*
X20119286Y-13897381D01*
X20119286Y-13849762D01*
X20109762Y-13830714D01*
X20100238Y-13821190D01*
X20081190Y-13811667D01*
X20043095Y-13811667D01*
X20024048Y-13821190D01*
X20014524Y-13830714D01*
X20005000Y-13849762D01*
X20195476Y-13735476D02*
X20195476Y-13773571D01*
X20271667Y-13735476D02*
X20271667Y-13773571D01*
X20566905Y-14011667D02*
X20557381Y-14002143D01*
X20538333Y-13973571D01*
X20528810Y-13954524D01*
X20519286Y-13925952D01*
X20509762Y-13878333D01*
X20509762Y-13840238D01*
X20519286Y-13792619D01*
X20528810Y-13764048D01*
X20538333Y-13745000D01*
X20557381Y-13716428D01*
X20566905Y-13706905D01*
X20728810Y-13802143D02*
X20728810Y-13935476D01*
X20681190Y-13725952D02*
X20633571Y-13868809D01*
X20757381Y-13868809D01*
X20985952Y-13935476D02*
X20985952Y-13735476D01*
X21071667Y-13935476D02*
X21071667Y-13830714D01*
X21062143Y-13811667D01*
X21043095Y-13802143D01*
X21014524Y-13802143D01*
X20995476Y-13811667D01*
X20985952Y-13821190D01*
X21195476Y-13935476D02*
X21176429Y-13925952D01*
X21166905Y-13916428D01*
X21157381Y-13897381D01*
X21157381Y-13840238D01*
X21166905Y-13821190D01*
X21176429Y-13811667D01*
X21195476Y-13802143D01*
X21224048Y-13802143D01*
X21243095Y-13811667D01*
X21252619Y-13821190D01*
X21262143Y-13840238D01*
X21262143Y-13897381D01*
X21252619Y-13916428D01*
X21243095Y-13925952D01*
X21224048Y-13935476D01*
X21195476Y-13935476D01*
X21376429Y-13935476D02*
X21357381Y-13925952D01*
X21347857Y-13906905D01*
X21347857Y-13735476D01*
X21528810Y-13925952D02*
X21509762Y-13935476D01*
X21471667Y-13935476D01*
X21452619Y-13925952D01*
X21443095Y-13906905D01*
X21443095Y-13830714D01*
X21452619Y-13811667D01*
X21471667Y-13802143D01*
X21509762Y-13802143D01*
X21528810Y-13811667D01*
X21538333Y-13830714D01*
X21538333Y-13849762D01*
X21443095Y-13868809D01*
X21614524Y-13925952D02*
X21633571Y-13935476D01*
X21671667Y-13935476D01*
X21690714Y-13925952D01*
X21700238Y-13906905D01*
X21700238Y-13897381D01*
X21690714Y-13878333D01*
X21671667Y-13868809D01*
X21643095Y-13868809D01*
X21624048Y-13859286D01*
X21614524Y-13840238D01*
X21614524Y-13830714D01*
X21624048Y-13811667D01*
X21643095Y-13802143D01*
X21671667Y-13802143D01*
X21690714Y-13811667D01*
X21766905Y-14011667D02*
X21776429Y-14002143D01*
X21795476Y-13973571D01*
X21805000Y-13954524D01*
X21814524Y-13925952D01*
X21824048Y-13878333D01*
X21824048Y-13840238D01*
X21814524Y-13792619D01*
X21805000Y-13764048D01*
X21795476Y-13745000D01*
X21776429Y-13716428D01*
X21766905Y-13706905D01*
D13*
X16995000Y-14109000D02*
G75*
G03*
X16995000Y-14109000I-37500J0D01*
G01*
D11*
X17290714Y-13999476D02*
X17309762Y-13999476D01*
X17328810Y-14009000D01*
X17338333Y-14018524D01*
X17347857Y-14037571D01*
X17357381Y-14075667D01*
X17357381Y-14123286D01*
X17347857Y-14161381D01*
X17338333Y-14180428D01*
X17328810Y-14189952D01*
X17309762Y-14199476D01*
X17290714Y-14199476D01*
X17271667Y-14189952D01*
X17262143Y-14180428D01*
X17252619Y-14161381D01*
X17243095Y-14123286D01*
X17243095Y-14075667D01*
X17252619Y-14037571D01*
X17262143Y-14018524D01*
X17271667Y-14009000D01*
X17290714Y-13999476D01*
X17443095Y-14180428D02*
X17452619Y-14189952D01*
X17443095Y-14199476D01*
X17433571Y-14189952D01*
X17443095Y-14180428D01*
X17443095Y-14199476D01*
X17519286Y-13999476D02*
X17652619Y-13999476D01*
X17566905Y-14199476D01*
X17824048Y-13999476D02*
X17728810Y-13999476D01*
X17719286Y-14094714D01*
X17728810Y-14085190D01*
X17747857Y-14075667D01*
X17795476Y-14075667D01*
X17814524Y-14085190D01*
X17824048Y-14094714D01*
X17833571Y-14113762D01*
X17833571Y-14161381D01*
X17824048Y-14180428D01*
X17814524Y-14189952D01*
X17795476Y-14199476D01*
X17747857Y-14199476D01*
X17728810Y-14189952D01*
X17719286Y-14180428D01*
X17957381Y-13999476D02*
X17976429Y-13999476D01*
X17995476Y-14009000D01*
X18005000Y-14018524D01*
X18014524Y-14037571D01*
X18024048Y-14075667D01*
X18024048Y-14123286D01*
X18014524Y-14161381D01*
X18005000Y-14180428D01*
X17995476Y-14189952D01*
X17976429Y-14199476D01*
X17957381Y-14199476D01*
X17938333Y-14189952D01*
X17928810Y-14180428D01*
X17919286Y-14161381D01*
X17909762Y-14123286D01*
X17909762Y-14075667D01*
X17919286Y-14037571D01*
X17928810Y-14018524D01*
X17938333Y-14009000D01*
X17957381Y-13999476D01*
X18109762Y-14199476D02*
X18109762Y-14066143D01*
X18109762Y-14085190D02*
X18119286Y-14075667D01*
X18138333Y-14066143D01*
X18166905Y-14066143D01*
X18185952Y-14075667D01*
X18195476Y-14094714D01*
X18195476Y-14199476D01*
X18195476Y-14094714D02*
X18205000Y-14075667D01*
X18224048Y-14066143D01*
X18252619Y-14066143D01*
X18271667Y-14075667D01*
X18281190Y-14094714D01*
X18281190Y-14199476D01*
X18376429Y-14199476D02*
X18376429Y-14066143D01*
X18376429Y-14085190D02*
X18385952Y-14075667D01*
X18405000Y-14066143D01*
X18433571Y-14066143D01*
X18452619Y-14075667D01*
X18462143Y-14094714D01*
X18462143Y-14199476D01*
X18462143Y-14094714D02*
X18471667Y-14075667D01*
X18490714Y-14066143D01*
X18519286Y-14066143D01*
X18538333Y-14075667D01*
X18547857Y-14094714D01*
X18547857Y-14199476D01*
X18938333Y-13989952D02*
X18766905Y-14247095D01*
X19195476Y-13999476D02*
X19214524Y-13999476D01*
X19233571Y-14009000D01*
X19243095Y-14018524D01*
X19252619Y-14037571D01*
X19262143Y-14075667D01*
X19262143Y-14123286D01*
X19252619Y-14161381D01*
X19243095Y-14180428D01*
X19233571Y-14189952D01*
X19214524Y-14199476D01*
X19195476Y-14199476D01*
X19176429Y-14189952D01*
X19166905Y-14180428D01*
X19157381Y-14161381D01*
X19147857Y-14123286D01*
X19147857Y-14075667D01*
X19157381Y-14037571D01*
X19166905Y-14018524D01*
X19176429Y-14009000D01*
X19195476Y-13999476D01*
X19347857Y-14180428D02*
X19357381Y-14189952D01*
X19347857Y-14199476D01*
X19338333Y-14189952D01*
X19347857Y-14180428D01*
X19347857Y-14199476D01*
X19481190Y-13999476D02*
X19500238Y-13999476D01*
X19519286Y-14009000D01*
X19528810Y-14018524D01*
X19538333Y-14037571D01*
X19547857Y-14075667D01*
X19547857Y-14123286D01*
X19538333Y-14161381D01*
X19528810Y-14180428D01*
X19519286Y-14189952D01*
X19500238Y-14199476D01*
X19481190Y-14199476D01*
X19462143Y-14189952D01*
X19452619Y-14180428D01*
X19443095Y-14161381D01*
X19433571Y-14123286D01*
X19433571Y-14075667D01*
X19443095Y-14037571D01*
X19452619Y-14018524D01*
X19462143Y-14009000D01*
X19481190Y-13999476D01*
X19624048Y-14018524D02*
X19633571Y-14009000D01*
X19652619Y-13999476D01*
X19700238Y-13999476D01*
X19719286Y-14009000D01*
X19728810Y-14018524D01*
X19738333Y-14037571D01*
X19738333Y-14056619D01*
X19728810Y-14085190D01*
X19614524Y-14199476D01*
X19738333Y-14199476D01*
X19833571Y-14199476D02*
X19871667Y-14199476D01*
X19890714Y-14189952D01*
X19900238Y-14180428D01*
X19919286Y-14151857D01*
X19928810Y-14113762D01*
X19928810Y-14037571D01*
X19919286Y-14018524D01*
X19909762Y-14009000D01*
X19890714Y-13999476D01*
X19852619Y-13999476D01*
X19833571Y-14009000D01*
X19824048Y-14018524D01*
X19814524Y-14037571D01*
X19814524Y-14085190D01*
X19824048Y-14104238D01*
X19833571Y-14113762D01*
X19852619Y-14123286D01*
X19890714Y-14123286D01*
X19909762Y-14113762D01*
X19919286Y-14104238D01*
X19928810Y-14085190D01*
X20109762Y-13999476D02*
X20014524Y-13999476D01*
X20005000Y-14094714D01*
X20014524Y-14085190D01*
X20033571Y-14075667D01*
X20081190Y-14075667D01*
X20100238Y-14085190D01*
X20109762Y-14094714D01*
X20119286Y-14113762D01*
X20119286Y-14161381D01*
X20109762Y-14180428D01*
X20100238Y-14189952D01*
X20081190Y-14199476D01*
X20033571Y-14199476D01*
X20014524Y-14189952D01*
X20005000Y-14180428D01*
X20195476Y-13999476D02*
X20195476Y-14037571D01*
X20271667Y-13999476D02*
X20271667Y-14037571D01*
X20566905Y-14275667D02*
X20557381Y-14266143D01*
X20538333Y-14237571D01*
X20528810Y-14218524D01*
X20519286Y-14189952D01*
X20509762Y-14142333D01*
X20509762Y-14104238D01*
X20519286Y-14056619D01*
X20528810Y-14028048D01*
X20538333Y-14009000D01*
X20557381Y-13980428D01*
X20566905Y-13970905D01*
X20671667Y-14085190D02*
X20652619Y-14075667D01*
X20643095Y-14066143D01*
X20633571Y-14047095D01*
X20633571Y-14037571D01*
X20643095Y-14018524D01*
X20652619Y-14009000D01*
X20671667Y-13999476D01*
X20709762Y-13999476D01*
X20728810Y-14009000D01*
X20738333Y-14018524D01*
X20747857Y-14037571D01*
X20747857Y-14047095D01*
X20738333Y-14066143D01*
X20728810Y-14075667D01*
X20709762Y-14085190D01*
X20671667Y-14085190D01*
X20652619Y-14094714D01*
X20643095Y-14104238D01*
X20633571Y-14123286D01*
X20633571Y-14161381D01*
X20643095Y-14180428D01*
X20652619Y-14189952D01*
X20671667Y-14199476D01*
X20709762Y-14199476D01*
X20728810Y-14189952D01*
X20738333Y-14180428D01*
X20747857Y-14161381D01*
X20747857Y-14123286D01*
X20738333Y-14104238D01*
X20728810Y-14094714D01*
X20709762Y-14085190D01*
X20985952Y-14199476D02*
X20985952Y-13999476D01*
X21071667Y-14199476D02*
X21071667Y-14094714D01*
X21062143Y-14075667D01*
X21043095Y-14066143D01*
X21014524Y-14066143D01*
X20995476Y-14075667D01*
X20985952Y-14085190D01*
X21195476Y-14199476D02*
X21176429Y-14189952D01*
X21166905Y-14180428D01*
X21157381Y-14161381D01*
X21157381Y-14104238D01*
X21166905Y-14085190D01*
X21176429Y-14075667D01*
X21195476Y-14066143D01*
X21224048Y-14066143D01*
X21243095Y-14075667D01*
X21252619Y-14085190D01*
X21262143Y-14104238D01*
X21262143Y-14161381D01*
X21252619Y-14180428D01*
X21243095Y-14189952D01*
X21224048Y-14199476D01*
X21195476Y-14199476D01*
X21376429Y-14199476D02*
X21357381Y-14189952D01*
X21347857Y-14170905D01*
X21347857Y-13999476D01*
X21528810Y-14189952D02*
X21509762Y-14199476D01*
X21471667Y-14199476D01*
X21452619Y-14189952D01*
X21443095Y-14170905D01*
X21443095Y-14094714D01*
X21452619Y-14075667D01*
X21471667Y-14066143D01*
X21509762Y-14066143D01*
X21528810Y-14075667D01*
X21538333Y-14094714D01*
X21538333Y-14113762D01*
X21443095Y-14132809D01*
X21614524Y-14189952D02*
X21633571Y-14199476D01*
X21671667Y-14199476D01*
X21690714Y-14189952D01*
X21700238Y-14170905D01*
X21700238Y-14161381D01*
X21690714Y-14142333D01*
X21671667Y-14132809D01*
X21643095Y-14132809D01*
X21624048Y-14123286D01*
X21614524Y-14104238D01*
X21614524Y-14094714D01*
X21624048Y-14075667D01*
X21643095Y-14066143D01*
X21671667Y-14066143D01*
X21690714Y-14075667D01*
X21766905Y-14275667D02*
X21776429Y-14266143D01*
X21795476Y-14237571D01*
X21805000Y-14218524D01*
X21814524Y-14189952D01*
X21824048Y-14142333D01*
X21824048Y-14104238D01*
X21814524Y-14056619D01*
X21805000Y-14028048D01*
X21795476Y-14009000D01*
X21776429Y-13980428D01*
X21766905Y-13970905D01*
D14*
X16950000Y-14328000D02*
X16950000Y-14418000D01*
X16905000Y-14373000D02*
X16995000Y-14373000D01*
D11*
X17290714Y-14263476D02*
X17309762Y-14263476D01*
X17328810Y-14273000D01*
X17338333Y-14282524D01*
X17347857Y-14301571D01*
X17357381Y-14339667D01*
X17357381Y-14387286D01*
X17347857Y-14425381D01*
X17338333Y-14444428D01*
X17328810Y-14453952D01*
X17309762Y-14463476D01*
X17290714Y-14463476D01*
X17271667Y-14453952D01*
X17262143Y-14444428D01*
X17252619Y-14425381D01*
X17243095Y-14387286D01*
X17243095Y-14339667D01*
X17252619Y-14301571D01*
X17262143Y-14282524D01*
X17271667Y-14273000D01*
X17290714Y-14263476D01*
X17443095Y-14444428D02*
X17452619Y-14453952D01*
X17443095Y-14463476D01*
X17433571Y-14453952D01*
X17443095Y-14444428D01*
X17443095Y-14463476D01*
X17547857Y-14463476D02*
X17585952Y-14463476D01*
X17605000Y-14453952D01*
X17614524Y-14444428D01*
X17633571Y-14415857D01*
X17643095Y-14377762D01*
X17643095Y-14301571D01*
X17633571Y-14282524D01*
X17624048Y-14273000D01*
X17605000Y-14263476D01*
X17566905Y-14263476D01*
X17547857Y-14273000D01*
X17538333Y-14282524D01*
X17528810Y-14301571D01*
X17528810Y-14349190D01*
X17538333Y-14368238D01*
X17547857Y-14377762D01*
X17566905Y-14387286D01*
X17605000Y-14387286D01*
X17624048Y-14377762D01*
X17633571Y-14368238D01*
X17643095Y-14349190D01*
X17766905Y-14263476D02*
X17785952Y-14263476D01*
X17805000Y-14273000D01*
X17814524Y-14282524D01*
X17824048Y-14301571D01*
X17833571Y-14339667D01*
X17833571Y-14387286D01*
X17824048Y-14425381D01*
X17814524Y-14444428D01*
X17805000Y-14453952D01*
X17785952Y-14463476D01*
X17766905Y-14463476D01*
X17747857Y-14453952D01*
X17738333Y-14444428D01*
X17728810Y-14425381D01*
X17719286Y-14387286D01*
X17719286Y-14339667D01*
X17728810Y-14301571D01*
X17738333Y-14282524D01*
X17747857Y-14273000D01*
X17766905Y-14263476D01*
X17957381Y-14263476D02*
X17976429Y-14263476D01*
X17995476Y-14273000D01*
X18005000Y-14282524D01*
X18014524Y-14301571D01*
X18024048Y-14339667D01*
X18024048Y-14387286D01*
X18014524Y-14425381D01*
X18005000Y-14444428D01*
X17995476Y-14453952D01*
X17976429Y-14463476D01*
X17957381Y-14463476D01*
X17938333Y-14453952D01*
X17928810Y-14444428D01*
X17919286Y-14425381D01*
X17909762Y-14387286D01*
X17909762Y-14339667D01*
X17919286Y-14301571D01*
X17928810Y-14282524D01*
X17938333Y-14273000D01*
X17957381Y-14263476D01*
X18109762Y-14463476D02*
X18109762Y-14330143D01*
X18109762Y-14349190D02*
X18119286Y-14339667D01*
X18138333Y-14330143D01*
X18166905Y-14330143D01*
X18185952Y-14339667D01*
X18195476Y-14358714D01*
X18195476Y-14463476D01*
X18195476Y-14358714D02*
X18205000Y-14339667D01*
X18224048Y-14330143D01*
X18252619Y-14330143D01*
X18271667Y-14339667D01*
X18281190Y-14358714D01*
X18281190Y-14463476D01*
X18376429Y-14463476D02*
X18376429Y-14330143D01*
X18376429Y-14349190D02*
X18385952Y-14339667D01*
X18405000Y-14330143D01*
X18433571Y-14330143D01*
X18452619Y-14339667D01*
X18462143Y-14358714D01*
X18462143Y-14463476D01*
X18462143Y-14358714D02*
X18471667Y-14339667D01*
X18490714Y-14330143D01*
X18519286Y-14330143D01*
X18538333Y-14339667D01*
X18547857Y-14358714D01*
X18547857Y-14463476D01*
X18938333Y-14253952D02*
X18766905Y-14511095D01*
X19195476Y-14263476D02*
X19214524Y-14263476D01*
X19233571Y-14273000D01*
X19243095Y-14282524D01*
X19252619Y-14301571D01*
X19262143Y-14339667D01*
X19262143Y-14387286D01*
X19252619Y-14425381D01*
X19243095Y-14444428D01*
X19233571Y-14453952D01*
X19214524Y-14463476D01*
X19195476Y-14463476D01*
X19176429Y-14453952D01*
X19166905Y-14444428D01*
X19157381Y-14425381D01*
X19147857Y-14387286D01*
X19147857Y-14339667D01*
X19157381Y-14301571D01*
X19166905Y-14282524D01*
X19176429Y-14273000D01*
X19195476Y-14263476D01*
X19347857Y-14444428D02*
X19357381Y-14453952D01*
X19347857Y-14463476D01*
X19338333Y-14453952D01*
X19347857Y-14444428D01*
X19347857Y-14463476D01*
X19481190Y-14263476D02*
X19500238Y-14263476D01*
X19519286Y-14273000D01*
X19528810Y-14282524D01*
X19538333Y-14301571D01*
X19547857Y-14339667D01*
X19547857Y-14387286D01*
X19538333Y-14425381D01*
X19528810Y-14444428D01*
X19519286Y-14453952D01*
X19500238Y-14463476D01*
X19481190Y-14463476D01*
X19462143Y-14453952D01*
X19452619Y-14444428D01*
X19443095Y-14425381D01*
X19433571Y-14387286D01*
X19433571Y-14339667D01*
X19443095Y-14301571D01*
X19452619Y-14282524D01*
X19462143Y-14273000D01*
X19481190Y-14263476D01*
X19614524Y-14263476D02*
X19738333Y-14263476D01*
X19671667Y-14339667D01*
X19700238Y-14339667D01*
X19719286Y-14349190D01*
X19728810Y-14358714D01*
X19738333Y-14377762D01*
X19738333Y-14425381D01*
X19728810Y-14444428D01*
X19719286Y-14453952D01*
X19700238Y-14463476D01*
X19643095Y-14463476D01*
X19624048Y-14453952D01*
X19614524Y-14444428D01*
X19919286Y-14263476D02*
X19824048Y-14263476D01*
X19814524Y-14358714D01*
X19824048Y-14349190D01*
X19843095Y-14339667D01*
X19890714Y-14339667D01*
X19909762Y-14349190D01*
X19919286Y-14358714D01*
X19928810Y-14377762D01*
X19928810Y-14425381D01*
X19919286Y-14444428D01*
X19909762Y-14453952D01*
X19890714Y-14463476D01*
X19843095Y-14463476D01*
X19824048Y-14453952D01*
X19814524Y-14444428D01*
X20100238Y-14330143D02*
X20100238Y-14463476D01*
X20052619Y-14253952D02*
X20005000Y-14396809D01*
X20128810Y-14396809D01*
X20195476Y-14263476D02*
X20195476Y-14301571D01*
X20271667Y-14263476D02*
X20271667Y-14301571D01*
X20566905Y-14539667D02*
X20557381Y-14530143D01*
X20538333Y-14501571D01*
X20528810Y-14482524D01*
X20519286Y-14453952D01*
X20509762Y-14406333D01*
X20509762Y-14368238D01*
X20519286Y-14320619D01*
X20528810Y-14292048D01*
X20538333Y-14273000D01*
X20557381Y-14244428D01*
X20566905Y-14234905D01*
X20624048Y-14263476D02*
X20757381Y-14263476D01*
X20671667Y-14463476D01*
X20985952Y-14463476D02*
X20985952Y-14263476D01*
X21071667Y-14463476D02*
X21071667Y-14358714D01*
X21062143Y-14339667D01*
X21043095Y-14330143D01*
X21014524Y-14330143D01*
X20995476Y-14339667D01*
X20985952Y-14349190D01*
X21195476Y-14463476D02*
X21176429Y-14453952D01*
X21166905Y-14444428D01*
X21157381Y-14425381D01*
X21157381Y-14368238D01*
X21166905Y-14349190D01*
X21176429Y-14339667D01*
X21195476Y-14330143D01*
X21224048Y-14330143D01*
X21243095Y-14339667D01*
X21252619Y-14349190D01*
X21262143Y-14368238D01*
X21262143Y-14425381D01*
X21252619Y-14444428D01*
X21243095Y-14453952D01*
X21224048Y-14463476D01*
X21195476Y-14463476D01*
X21376429Y-14463476D02*
X21357381Y-14453952D01*
X21347857Y-14434905D01*
X21347857Y-14263476D01*
X21528810Y-14453952D02*
X21509762Y-14463476D01*
X21471667Y-14463476D01*
X21452619Y-14453952D01*
X21443095Y-14434905D01*
X21443095Y-14358714D01*
X21452619Y-14339667D01*
X21471667Y-14330143D01*
X21509762Y-14330143D01*
X21528810Y-14339667D01*
X21538333Y-14358714D01*
X21538333Y-14377762D01*
X21443095Y-14396809D01*
X21614524Y-14453952D02*
X21633571Y-14463476D01*
X21671667Y-14463476D01*
X21690714Y-14453952D01*
X21700238Y-14434905D01*
X21700238Y-14425381D01*
X21690714Y-14406333D01*
X21671667Y-14396809D01*
X21643095Y-14396809D01*
X21624048Y-14387286D01*
X21614524Y-14368238D01*
X21614524Y-14358714D01*
X21624048Y-14339667D01*
X21643095Y-14330143D01*
X21671667Y-14330143D01*
X21690714Y-14339667D01*
X21766905Y-14539667D02*
X21776429Y-14530143D01*
X21795476Y-14501571D01*
X21805000Y-14482524D01*
X21814524Y-14453952D01*
X21824048Y-14406333D01*
X21824048Y-14368238D01*
X21814524Y-14320619D01*
X21805000Y-14292048D01*
X21795476Y-14273000D01*
X21776429Y-14244428D01*
X21766905Y-14234905D01*
D15*
X16978891Y-14675891D02*
X16978891Y-14598109D01*
X16901109Y-14598109D01*
X16901109Y-14675891D01*
X16978891Y-14675891D01*
D11*
X17357381Y-14727476D02*
X17243095Y-14727476D01*
X17300238Y-14727476D02*
X17300238Y-14527476D01*
X17281190Y-14556048D01*
X17262143Y-14575095D01*
X17243095Y-14584619D01*
X17443095Y-14708428D02*
X17452619Y-14717952D01*
X17443095Y-14727476D01*
X17433571Y-14717952D01*
X17443095Y-14708428D01*
X17443095Y-14727476D01*
X17643095Y-14727476D02*
X17528810Y-14727476D01*
X17585952Y-14727476D02*
X17585952Y-14527476D01*
X17566905Y-14556048D01*
X17547857Y-14575095D01*
X17528810Y-14584619D01*
X17766905Y-14527476D02*
X17785952Y-14527476D01*
X17805000Y-14537000D01*
X17814524Y-14546524D01*
X17824048Y-14565571D01*
X17833571Y-14603667D01*
X17833571Y-14651286D01*
X17824048Y-14689381D01*
X17814524Y-14708428D01*
X17805000Y-14717952D01*
X17785952Y-14727476D01*
X17766905Y-14727476D01*
X17747857Y-14717952D01*
X17738333Y-14708428D01*
X17728810Y-14689381D01*
X17719286Y-14651286D01*
X17719286Y-14603667D01*
X17728810Y-14565571D01*
X17738333Y-14546524D01*
X17747857Y-14537000D01*
X17766905Y-14527476D01*
X17957381Y-14527476D02*
X17976429Y-14527476D01*
X17995476Y-14537000D01*
X18005000Y-14546524D01*
X18014524Y-14565571D01*
X18024048Y-14603667D01*
X18024048Y-14651286D01*
X18014524Y-14689381D01*
X18005000Y-14708428D01*
X17995476Y-14717952D01*
X17976429Y-14727476D01*
X17957381Y-14727476D01*
X17938333Y-14717952D01*
X17928810Y-14708428D01*
X17919286Y-14689381D01*
X17909762Y-14651286D01*
X17909762Y-14603667D01*
X17919286Y-14565571D01*
X17928810Y-14546524D01*
X17938333Y-14537000D01*
X17957381Y-14527476D01*
X18109762Y-14727476D02*
X18109762Y-14594143D01*
X18109762Y-14613190D02*
X18119286Y-14603667D01*
X18138333Y-14594143D01*
X18166905Y-14594143D01*
X18185952Y-14603667D01*
X18195476Y-14622714D01*
X18195476Y-14727476D01*
X18195476Y-14622714D02*
X18205000Y-14603667D01*
X18224048Y-14594143D01*
X18252619Y-14594143D01*
X18271667Y-14603667D01*
X18281190Y-14622714D01*
X18281190Y-14727476D01*
X18376429Y-14727476D02*
X18376429Y-14594143D01*
X18376429Y-14613190D02*
X18385952Y-14603667D01*
X18405000Y-14594143D01*
X18433571Y-14594143D01*
X18452619Y-14603667D01*
X18462143Y-14622714D01*
X18462143Y-14727476D01*
X18462143Y-14622714D02*
X18471667Y-14603667D01*
X18490714Y-14594143D01*
X18519286Y-14594143D01*
X18538333Y-14603667D01*
X18547857Y-14622714D01*
X18547857Y-14727476D01*
X18938333Y-14517952D02*
X18766905Y-14775095D01*
X19195476Y-14527476D02*
X19214524Y-14527476D01*
X19233571Y-14537000D01*
X19243095Y-14546524D01*
X19252619Y-14565571D01*
X19262143Y-14603667D01*
X19262143Y-14651286D01*
X19252619Y-14689381D01*
X19243095Y-14708428D01*
X19233571Y-14717952D01*
X19214524Y-14727476D01*
X19195476Y-14727476D01*
X19176429Y-14717952D01*
X19166905Y-14708428D01*
X19157381Y-14689381D01*
X19147857Y-14651286D01*
X19147857Y-14603667D01*
X19157381Y-14565571D01*
X19166905Y-14546524D01*
X19176429Y-14537000D01*
X19195476Y-14527476D01*
X19347857Y-14708428D02*
X19357381Y-14717952D01*
X19347857Y-14727476D01*
X19338333Y-14717952D01*
X19347857Y-14708428D01*
X19347857Y-14727476D01*
X19481190Y-14527476D02*
X19500238Y-14527476D01*
X19519286Y-14537000D01*
X19528810Y-14546524D01*
X19538333Y-14565571D01*
X19547857Y-14603667D01*
X19547857Y-14651286D01*
X19538333Y-14689381D01*
X19528810Y-14708428D01*
X19519286Y-14717952D01*
X19500238Y-14727476D01*
X19481190Y-14727476D01*
X19462143Y-14717952D01*
X19452619Y-14708428D01*
X19443095Y-14689381D01*
X19433571Y-14651286D01*
X19433571Y-14603667D01*
X19443095Y-14565571D01*
X19452619Y-14546524D01*
X19462143Y-14537000D01*
X19481190Y-14527476D01*
X19719286Y-14594143D02*
X19719286Y-14727476D01*
X19671667Y-14517952D02*
X19624048Y-14660809D01*
X19747857Y-14660809D01*
X19805000Y-14527476D02*
X19928810Y-14527476D01*
X19862143Y-14603667D01*
X19890714Y-14603667D01*
X19909762Y-14613190D01*
X19919286Y-14622714D01*
X19928810Y-14641762D01*
X19928810Y-14689381D01*
X19919286Y-14708428D01*
X19909762Y-14717952D01*
X19890714Y-14727476D01*
X19833571Y-14727476D01*
X19814524Y-14717952D01*
X19805000Y-14708428D01*
X19995476Y-14527476D02*
X20119286Y-14527476D01*
X20052619Y-14603667D01*
X20081190Y-14603667D01*
X20100238Y-14613190D01*
X20109762Y-14622714D01*
X20119286Y-14641762D01*
X20119286Y-14689381D01*
X20109762Y-14708428D01*
X20100238Y-14717952D01*
X20081190Y-14727476D01*
X20024048Y-14727476D01*
X20005000Y-14717952D01*
X19995476Y-14708428D01*
X20195476Y-14527476D02*
X20195476Y-14565571D01*
X20271667Y-14527476D02*
X20271667Y-14565571D01*
X20566905Y-14803667D02*
X20557381Y-14794143D01*
X20538333Y-14765571D01*
X20528810Y-14746524D01*
X20519286Y-14717952D01*
X20509762Y-14670333D01*
X20509762Y-14632238D01*
X20519286Y-14584619D01*
X20528810Y-14556048D01*
X20538333Y-14537000D01*
X20557381Y-14508428D01*
X20566905Y-14498905D01*
X20624048Y-14527476D02*
X20747857Y-14527476D01*
X20681190Y-14603667D01*
X20709762Y-14603667D01*
X20728810Y-14613190D01*
X20738333Y-14622714D01*
X20747857Y-14641762D01*
X20747857Y-14689381D01*
X20738333Y-14708428D01*
X20728810Y-14717952D01*
X20709762Y-14727476D01*
X20652619Y-14727476D01*
X20633571Y-14717952D01*
X20624048Y-14708428D01*
X20985952Y-14727476D02*
X20985952Y-14527476D01*
X21071667Y-14727476D02*
X21071667Y-14622714D01*
X21062143Y-14603667D01*
X21043095Y-14594143D01*
X21014524Y-14594143D01*
X20995476Y-14603667D01*
X20985952Y-14613190D01*
X21195476Y-14727476D02*
X21176429Y-14717952D01*
X21166905Y-14708428D01*
X21157381Y-14689381D01*
X21157381Y-14632238D01*
X21166905Y-14613190D01*
X21176429Y-14603667D01*
X21195476Y-14594143D01*
X21224048Y-14594143D01*
X21243095Y-14603667D01*
X21252619Y-14613190D01*
X21262143Y-14632238D01*
X21262143Y-14689381D01*
X21252619Y-14708428D01*
X21243095Y-14717952D01*
X21224048Y-14727476D01*
X21195476Y-14727476D01*
X21376429Y-14727476D02*
X21357381Y-14717952D01*
X21347857Y-14698905D01*
X21347857Y-14527476D01*
X21528810Y-14717952D02*
X21509762Y-14727476D01*
X21471667Y-14727476D01*
X21452619Y-14717952D01*
X21443095Y-14698905D01*
X21443095Y-14622714D01*
X21452619Y-14603667D01*
X21471667Y-14594143D01*
X21509762Y-14594143D01*
X21528810Y-14603667D01*
X21538333Y-14622714D01*
X21538333Y-14641762D01*
X21443095Y-14660809D01*
X21614524Y-14717952D02*
X21633571Y-14727476D01*
X21671667Y-14727476D01*
X21690714Y-14717952D01*
X21700238Y-14698905D01*
X21700238Y-14689381D01*
X21690714Y-14670333D01*
X21671667Y-14660809D01*
X21643095Y-14660809D01*
X21624048Y-14651286D01*
X21614524Y-14632238D01*
X21614524Y-14622714D01*
X21624048Y-14603667D01*
X21643095Y-14594143D01*
X21671667Y-14594143D01*
X21690714Y-14603667D01*
X21766905Y-14803667D02*
X21776429Y-14794143D01*
X21795476Y-14765571D01*
X21805000Y-14746524D01*
X21814524Y-14717952D01*
X21824048Y-14670333D01*
X21824048Y-14632238D01*
X21814524Y-14584619D01*
X21805000Y-14556048D01*
X21795476Y-14537000D01*
X21776429Y-14508428D01*
X21766905Y-14498905D01*
D16*
X16920000Y-14976000D02*
X16995000Y-14901000D01*
X16920000Y-14826000D01*
X16845000Y-14901000D01*
X16920000Y-14976000D01*
D11*
X17357381Y-14991476D02*
X17243095Y-14991476D01*
X17300238Y-14991476D02*
X17300238Y-14791476D01*
X17281190Y-14820048D01*
X17262143Y-14839095D01*
X17243095Y-14848619D01*
X17443095Y-14972428D02*
X17452619Y-14981952D01*
X17443095Y-14991476D01*
X17433571Y-14981952D01*
X17443095Y-14972428D01*
X17443095Y-14991476D01*
X17633571Y-14791476D02*
X17538333Y-14791476D01*
X17528810Y-14886714D01*
X17538333Y-14877190D01*
X17557381Y-14867667D01*
X17605000Y-14867667D01*
X17624048Y-14877190D01*
X17633571Y-14886714D01*
X17643095Y-14905762D01*
X17643095Y-14953381D01*
X17633571Y-14972428D01*
X17624048Y-14981952D01*
X17605000Y-14991476D01*
X17557381Y-14991476D01*
X17538333Y-14981952D01*
X17528810Y-14972428D01*
X17766905Y-14791476D02*
X17785952Y-14791476D01*
X17805000Y-14801000D01*
X17814524Y-14810524D01*
X17824048Y-14829571D01*
X17833571Y-14867667D01*
X17833571Y-14915286D01*
X17824048Y-14953381D01*
X17814524Y-14972428D01*
X17805000Y-14981952D01*
X17785952Y-14991476D01*
X17766905Y-14991476D01*
X17747857Y-14981952D01*
X17738333Y-14972428D01*
X17728810Y-14953381D01*
X17719286Y-14915286D01*
X17719286Y-14867667D01*
X17728810Y-14829571D01*
X17738333Y-14810524D01*
X17747857Y-14801000D01*
X17766905Y-14791476D01*
X17957381Y-14791476D02*
X17976429Y-14791476D01*
X17995476Y-14801000D01*
X18005000Y-14810524D01*
X18014524Y-14829571D01*
X18024048Y-14867667D01*
X18024048Y-14915286D01*
X18014524Y-14953381D01*
X18005000Y-14972428D01*
X17995476Y-14981952D01*
X17976429Y-14991476D01*
X17957381Y-14991476D01*
X17938333Y-14981952D01*
X17928810Y-14972428D01*
X17919286Y-14953381D01*
X17909762Y-14915286D01*
X17909762Y-14867667D01*
X17919286Y-14829571D01*
X17928810Y-14810524D01*
X17938333Y-14801000D01*
X17957381Y-14791476D01*
X18109762Y-14991476D02*
X18109762Y-14858143D01*
X18109762Y-14877190D02*
X18119286Y-14867667D01*
X18138333Y-14858143D01*
X18166905Y-14858143D01*
X18185952Y-14867667D01*
X18195476Y-14886714D01*
X18195476Y-14991476D01*
X18195476Y-14886714D02*
X18205000Y-14867667D01*
X18224048Y-14858143D01*
X18252619Y-14858143D01*
X18271667Y-14867667D01*
X18281190Y-14886714D01*
X18281190Y-14991476D01*
X18376429Y-14991476D02*
X18376429Y-14858143D01*
X18376429Y-14877190D02*
X18385952Y-14867667D01*
X18405000Y-14858143D01*
X18433571Y-14858143D01*
X18452619Y-14867667D01*
X18462143Y-14886714D01*
X18462143Y-14991476D01*
X18462143Y-14886714D02*
X18471667Y-14867667D01*
X18490714Y-14858143D01*
X18519286Y-14858143D01*
X18538333Y-14867667D01*
X18547857Y-14886714D01*
X18547857Y-14991476D01*
X18938333Y-14781952D02*
X18766905Y-15039095D01*
X19195476Y-14791476D02*
X19214524Y-14791476D01*
X19233571Y-14801000D01*
X19243095Y-14810524D01*
X19252619Y-14829571D01*
X19262143Y-14867667D01*
X19262143Y-14915286D01*
X19252619Y-14953381D01*
X19243095Y-14972428D01*
X19233571Y-14981952D01*
X19214524Y-14991476D01*
X19195476Y-14991476D01*
X19176429Y-14981952D01*
X19166905Y-14972428D01*
X19157381Y-14953381D01*
X19147857Y-14915286D01*
X19147857Y-14867667D01*
X19157381Y-14829571D01*
X19166905Y-14810524D01*
X19176429Y-14801000D01*
X19195476Y-14791476D01*
X19347857Y-14972428D02*
X19357381Y-14981952D01*
X19347857Y-14991476D01*
X19338333Y-14981952D01*
X19347857Y-14972428D01*
X19347857Y-14991476D01*
X19481190Y-14791476D02*
X19500238Y-14791476D01*
X19519286Y-14801000D01*
X19528810Y-14810524D01*
X19538333Y-14829571D01*
X19547857Y-14867667D01*
X19547857Y-14915286D01*
X19538333Y-14953381D01*
X19528810Y-14972428D01*
X19519286Y-14981952D01*
X19500238Y-14991476D01*
X19481190Y-14991476D01*
X19462143Y-14981952D01*
X19452619Y-14972428D01*
X19443095Y-14953381D01*
X19433571Y-14915286D01*
X19433571Y-14867667D01*
X19443095Y-14829571D01*
X19452619Y-14810524D01*
X19462143Y-14801000D01*
X19481190Y-14791476D01*
X19728810Y-14791476D02*
X19633571Y-14791476D01*
X19624048Y-14886714D01*
X19633571Y-14877190D01*
X19652619Y-14867667D01*
X19700238Y-14867667D01*
X19719286Y-14877190D01*
X19728810Y-14886714D01*
X19738333Y-14905762D01*
X19738333Y-14953381D01*
X19728810Y-14972428D01*
X19719286Y-14981952D01*
X19700238Y-14991476D01*
X19652619Y-14991476D01*
X19633571Y-14981952D01*
X19624048Y-14972428D01*
X19833571Y-14991476D02*
X19871667Y-14991476D01*
X19890714Y-14981952D01*
X19900238Y-14972428D01*
X19919286Y-14943857D01*
X19928810Y-14905762D01*
X19928810Y-14829571D01*
X19919286Y-14810524D01*
X19909762Y-14801000D01*
X19890714Y-14791476D01*
X19852619Y-14791476D01*
X19833571Y-14801000D01*
X19824048Y-14810524D01*
X19814524Y-14829571D01*
X19814524Y-14877190D01*
X19824048Y-14896238D01*
X19833571Y-14905762D01*
X19852619Y-14915286D01*
X19890714Y-14915286D01*
X19909762Y-14905762D01*
X19919286Y-14896238D01*
X19928810Y-14877190D01*
X20119286Y-14991476D02*
X20005000Y-14991476D01*
X20062143Y-14991476D02*
X20062143Y-14791476D01*
X20043095Y-14820048D01*
X20024048Y-14839095D01*
X20005000Y-14848619D01*
X20195476Y-14791476D02*
X20195476Y-14829571D01*
X20271667Y-14791476D02*
X20271667Y-14829571D01*
X20566905Y-15067667D02*
X20557381Y-15058143D01*
X20538333Y-15029571D01*
X20528810Y-15010524D01*
X20519286Y-14981952D01*
X20509762Y-14934333D01*
X20509762Y-14896238D01*
X20519286Y-14848619D01*
X20528810Y-14820048D01*
X20538333Y-14801000D01*
X20557381Y-14772428D01*
X20566905Y-14762905D01*
X20633571Y-14810524D02*
X20643095Y-14801000D01*
X20662143Y-14791476D01*
X20709762Y-14791476D01*
X20728810Y-14801000D01*
X20738333Y-14810524D01*
X20747857Y-14829571D01*
X20747857Y-14848619D01*
X20738333Y-14877190D01*
X20624048Y-14991476D01*
X20747857Y-14991476D01*
X20985952Y-14991476D02*
X20985952Y-14791476D01*
X21071667Y-14991476D02*
X21071667Y-14886714D01*
X21062143Y-14867667D01*
X21043095Y-14858143D01*
X21014524Y-14858143D01*
X20995476Y-14867667D01*
X20985952Y-14877190D01*
X21195476Y-14991476D02*
X21176429Y-14981952D01*
X21166905Y-14972428D01*
X21157381Y-14953381D01*
X21157381Y-14896238D01*
X21166905Y-14877190D01*
X21176429Y-14867667D01*
X21195476Y-14858143D01*
X21224048Y-14858143D01*
X21243095Y-14867667D01*
X21252619Y-14877190D01*
X21262143Y-14896238D01*
X21262143Y-14953381D01*
X21252619Y-14972428D01*
X21243095Y-14981952D01*
X21224048Y-14991476D01*
X21195476Y-14991476D01*
X21376429Y-14991476D02*
X21357381Y-14981952D01*
X21347857Y-14962905D01*
X21347857Y-14791476D01*
X21528810Y-14981952D02*
X21509762Y-14991476D01*
X21471667Y-14991476D01*
X21452619Y-14981952D01*
X21443095Y-14962905D01*
X21443095Y-14886714D01*
X21452619Y-14867667D01*
X21471667Y-14858143D01*
X21509762Y-14858143D01*
X21528810Y-14867667D01*
X21538333Y-14886714D01*
X21538333Y-14905762D01*
X21443095Y-14924809D01*
X21614524Y-14981952D02*
X21633571Y-14991476D01*
X21671667Y-14991476D01*
X21690714Y-14981952D01*
X21700238Y-14962905D01*
X21700238Y-14953381D01*
X21690714Y-14934333D01*
X21671667Y-14924809D01*
X21643095Y-14924809D01*
X21624048Y-14915286D01*
X21614524Y-14896238D01*
X21614524Y-14886714D01*
X21624048Y-14867667D01*
X21643095Y-14858143D01*
X21671667Y-14858143D01*
X21690714Y-14867667D01*
X21766905Y-15067667D02*
X21776429Y-15058143D01*
X21795476Y-15029571D01*
X21805000Y-15010524D01*
X21814524Y-14981952D01*
X21824048Y-14934333D01*
X21824048Y-14896238D01*
X21814524Y-14848619D01*
X21805000Y-14820048D01*
X21795476Y-14801000D01*
X21776429Y-14772428D01*
X21766905Y-14762905D01*
X16795000Y-15071000D02*
X16995000Y-15271000D01*
X16995000Y-15071000D02*
X16795000Y-15271000D01*
X16995000Y-15171000D02*
G75*
G03*
X16995000Y-15171000I-100000J0D01*
G01*
X17243095Y-15080524D02*
X17252619Y-15071000D01*
X17271667Y-15061476D01*
X17319286Y-15061476D01*
X17338333Y-15071000D01*
X17347857Y-15080524D01*
X17357381Y-15099571D01*
X17357381Y-15118619D01*
X17347857Y-15147190D01*
X17233571Y-15261476D01*
X17357381Y-15261476D01*
X17443095Y-15242428D02*
X17452619Y-15251952D01*
X17443095Y-15261476D01*
X17433571Y-15251952D01*
X17443095Y-15242428D01*
X17443095Y-15261476D01*
X17528810Y-15080524D02*
X17538333Y-15071000D01*
X17557381Y-15061476D01*
X17605000Y-15061476D01*
X17624048Y-15071000D01*
X17633571Y-15080524D01*
X17643095Y-15099571D01*
X17643095Y-15118619D01*
X17633571Y-15147190D01*
X17519286Y-15261476D01*
X17643095Y-15261476D01*
X17766905Y-15061476D02*
X17785952Y-15061476D01*
X17805000Y-15071000D01*
X17814524Y-15080524D01*
X17824048Y-15099571D01*
X17833571Y-15137667D01*
X17833571Y-15185286D01*
X17824048Y-15223381D01*
X17814524Y-15242428D01*
X17805000Y-15251952D01*
X17785952Y-15261476D01*
X17766905Y-15261476D01*
X17747857Y-15251952D01*
X17738333Y-15242428D01*
X17728810Y-15223381D01*
X17719286Y-15185286D01*
X17719286Y-15137667D01*
X17728810Y-15099571D01*
X17738333Y-15080524D01*
X17747857Y-15071000D01*
X17766905Y-15061476D01*
X17957381Y-15061476D02*
X17976429Y-15061476D01*
X17995476Y-15071000D01*
X18005000Y-15080524D01*
X18014524Y-15099571D01*
X18024048Y-15137667D01*
X18024048Y-15185286D01*
X18014524Y-15223381D01*
X18005000Y-15242428D01*
X17995476Y-15251952D01*
X17976429Y-15261476D01*
X17957381Y-15261476D01*
X17938333Y-15251952D01*
X17928810Y-15242428D01*
X17919286Y-15223381D01*
X17909762Y-15185286D01*
X17909762Y-15137667D01*
X17919286Y-15099571D01*
X17928810Y-15080524D01*
X17938333Y-15071000D01*
X17957381Y-15061476D01*
X18109762Y-15261476D02*
X18109762Y-15128143D01*
X18109762Y-15147190D02*
X18119286Y-15137667D01*
X18138333Y-15128143D01*
X18166905Y-15128143D01*
X18185952Y-15137667D01*
X18195476Y-15156714D01*
X18195476Y-15261476D01*
X18195476Y-15156714D02*
X18205000Y-15137667D01*
X18224048Y-15128143D01*
X18252619Y-15128143D01*
X18271667Y-15137667D01*
X18281190Y-15156714D01*
X18281190Y-15261476D01*
X18376429Y-15261476D02*
X18376429Y-15128143D01*
X18376429Y-15147190D02*
X18385952Y-15137667D01*
X18405000Y-15128143D01*
X18433571Y-15128143D01*
X18452619Y-15137667D01*
X18462143Y-15156714D01*
X18462143Y-15261476D01*
X18462143Y-15156714D02*
X18471667Y-15137667D01*
X18490714Y-15128143D01*
X18519286Y-15128143D01*
X18538333Y-15137667D01*
X18547857Y-15156714D01*
X18547857Y-15261476D01*
X18938333Y-15051952D02*
X18766905Y-15309095D01*
X19195476Y-15061476D02*
X19214524Y-15061476D01*
X19233571Y-15071000D01*
X19243095Y-15080524D01*
X19252619Y-15099571D01*
X19262143Y-15137667D01*
X19262143Y-15185286D01*
X19252619Y-15223381D01*
X19243095Y-15242428D01*
X19233571Y-15251952D01*
X19214524Y-15261476D01*
X19195476Y-15261476D01*
X19176429Y-15251952D01*
X19166905Y-15242428D01*
X19157381Y-15223381D01*
X19147857Y-15185286D01*
X19147857Y-15137667D01*
X19157381Y-15099571D01*
X19166905Y-15080524D01*
X19176429Y-15071000D01*
X19195476Y-15061476D01*
X19347857Y-15242428D02*
X19357381Y-15251952D01*
X19347857Y-15261476D01*
X19338333Y-15251952D01*
X19347857Y-15242428D01*
X19347857Y-15261476D01*
X19481190Y-15061476D02*
X19500238Y-15061476D01*
X19519286Y-15071000D01*
X19528810Y-15080524D01*
X19538333Y-15099571D01*
X19547857Y-15137667D01*
X19547857Y-15185286D01*
X19538333Y-15223381D01*
X19528810Y-15242428D01*
X19519286Y-15251952D01*
X19500238Y-15261476D01*
X19481190Y-15261476D01*
X19462143Y-15251952D01*
X19452619Y-15242428D01*
X19443095Y-15223381D01*
X19433571Y-15185286D01*
X19433571Y-15137667D01*
X19443095Y-15099571D01*
X19452619Y-15080524D01*
X19462143Y-15071000D01*
X19481190Y-15061476D01*
X19662143Y-15147190D02*
X19643095Y-15137667D01*
X19633571Y-15128143D01*
X19624048Y-15109095D01*
X19624048Y-15099571D01*
X19633571Y-15080524D01*
X19643095Y-15071000D01*
X19662143Y-15061476D01*
X19700238Y-15061476D01*
X19719286Y-15071000D01*
X19728810Y-15080524D01*
X19738333Y-15099571D01*
X19738333Y-15109095D01*
X19728810Y-15128143D01*
X19719286Y-15137667D01*
X19700238Y-15147190D01*
X19662143Y-15147190D01*
X19643095Y-15156714D01*
X19633571Y-15166238D01*
X19624048Y-15185286D01*
X19624048Y-15223381D01*
X19633571Y-15242428D01*
X19643095Y-15251952D01*
X19662143Y-15261476D01*
X19700238Y-15261476D01*
X19719286Y-15251952D01*
X19728810Y-15242428D01*
X19738333Y-15223381D01*
X19738333Y-15185286D01*
X19728810Y-15166238D01*
X19719286Y-15156714D01*
X19700238Y-15147190D01*
X19909762Y-15061476D02*
X19871667Y-15061476D01*
X19852619Y-15071000D01*
X19843095Y-15080524D01*
X19824048Y-15109095D01*
X19814524Y-15147190D01*
X19814524Y-15223381D01*
X19824048Y-15242428D01*
X19833571Y-15251952D01*
X19852619Y-15261476D01*
X19890714Y-15261476D01*
X19909762Y-15251952D01*
X19919286Y-15242428D01*
X19928810Y-15223381D01*
X19928810Y-15175762D01*
X19919286Y-15156714D01*
X19909762Y-15147190D01*
X19890714Y-15137667D01*
X19852619Y-15137667D01*
X19833571Y-15147190D01*
X19824048Y-15156714D01*
X19814524Y-15175762D01*
X20100238Y-15061476D02*
X20062143Y-15061476D01*
X20043095Y-15071000D01*
X20033571Y-15080524D01*
X20014524Y-15109095D01*
X20005000Y-15147190D01*
X20005000Y-15223381D01*
X20014524Y-15242428D01*
X20024048Y-15251952D01*
X20043095Y-15261476D01*
X20081190Y-15261476D01*
X20100238Y-15251952D01*
X20109762Y-15242428D01*
X20119286Y-15223381D01*
X20119286Y-15175762D01*
X20109762Y-15156714D01*
X20100238Y-15147190D01*
X20081190Y-15137667D01*
X20043095Y-15137667D01*
X20024048Y-15147190D01*
X20014524Y-15156714D01*
X20005000Y-15175762D01*
X20195476Y-15061476D02*
X20195476Y-15099571D01*
X20271667Y-15061476D02*
X20271667Y-15099571D01*
X20566905Y-15337667D02*
X20557381Y-15328143D01*
X20538333Y-15299571D01*
X20528810Y-15280524D01*
X20519286Y-15251952D01*
X20509762Y-15204333D01*
X20509762Y-15166238D01*
X20519286Y-15118619D01*
X20528810Y-15090048D01*
X20538333Y-15071000D01*
X20557381Y-15042428D01*
X20566905Y-15032905D01*
X20728810Y-15128143D02*
X20728810Y-15261476D01*
X20681190Y-15051952D02*
X20633571Y-15194809D01*
X20757381Y-15194809D01*
X20985952Y-15261476D02*
X20985952Y-15061476D01*
X21071667Y-15261476D02*
X21071667Y-15156714D01*
X21062143Y-15137667D01*
X21043095Y-15128143D01*
X21014524Y-15128143D01*
X20995476Y-15137667D01*
X20985952Y-15147190D01*
X21195476Y-15261476D02*
X21176429Y-15251952D01*
X21166905Y-15242428D01*
X21157381Y-15223381D01*
X21157381Y-15166238D01*
X21166905Y-15147190D01*
X21176429Y-15137667D01*
X21195476Y-15128143D01*
X21224048Y-15128143D01*
X21243095Y-15137667D01*
X21252619Y-15147190D01*
X21262143Y-15166238D01*
X21262143Y-15223381D01*
X21252619Y-15242428D01*
X21243095Y-15251952D01*
X21224048Y-15261476D01*
X21195476Y-15261476D01*
X21376429Y-15261476D02*
X21357381Y-15251952D01*
X21347857Y-15232905D01*
X21347857Y-15061476D01*
X21528810Y-15251952D02*
X21509762Y-15261476D01*
X21471667Y-15261476D01*
X21452619Y-15251952D01*
X21443095Y-15232905D01*
X21443095Y-15156714D01*
X21452619Y-15137667D01*
X21471667Y-15128143D01*
X21509762Y-15128143D01*
X21528810Y-15137667D01*
X21538333Y-15156714D01*
X21538333Y-15175762D01*
X21443095Y-15194809D01*
X21614524Y-15251952D02*
X21633571Y-15261476D01*
X21671667Y-15261476D01*
X21690714Y-15251952D01*
X21700238Y-15232905D01*
X21700238Y-15223381D01*
X21690714Y-15204333D01*
X21671667Y-15194809D01*
X21643095Y-15194809D01*
X21624048Y-15185286D01*
X21614524Y-15166238D01*
X21614524Y-15156714D01*
X21624048Y-15137667D01*
X21643095Y-15128143D01*
X21671667Y-15128143D01*
X21690714Y-15137667D01*
X21766905Y-15337667D02*
X21776429Y-15328143D01*
X21795476Y-15299571D01*
X21805000Y-15280524D01*
X21814524Y-15251952D01*
X21824048Y-15204333D01*
X21824048Y-15166238D01*
X21814524Y-15118619D01*
X21805000Y-15090048D01*
X21795476Y-15071000D01*
X21776429Y-15042428D01*
X21766905Y-15032905D01*
M02*
